G04 MADE WITH FRITZING*
G04 WWW.FRITZING.ORG*
G04 DOUBLE SIDED*
G04 HOLES PLATED*
G04 CONTOUR ON CENTER OF CONTOUR VECTOR*
%ASAXBY*%
%FSLAX23Y23*%
%MOIN*%
%OFA0B0*%
%SFA1.0B1.0*%
%ADD10C,0.074803*%
%ADD11C,0.077778*%
%ADD12C,0.080000*%
%ADD13C,0.079370*%
%ADD14C,0.075000*%
%ADD15R,0.080000X0.080000*%
%ADD16R,0.079370X0.079370*%
%ADD17C,0.024000*%
%LNCOPPER0*%
G90*
G70*
G54D10*
X3042Y1776D03*
X2541Y1775D03*
X2641Y1775D03*
X2741Y1775D03*
X2841Y1775D03*
X2941Y1775D03*
X3042Y1375D03*
X2541Y1375D03*
X2641Y1375D03*
X2741Y1375D03*
X2841Y1375D03*
X2941Y1375D03*
G54D11*
X1941Y1975D03*
X1841Y1975D03*
X1741Y1975D03*
X1641Y1975D03*
X1541Y1975D03*
X1441Y1975D03*
X1341Y1975D03*
X1241Y1975D03*
X1241Y1075D03*
X1341Y1075D03*
X1441Y1075D03*
X1541Y1075D03*
X1641Y1075D03*
X1741Y1075D03*
X1841Y1075D03*
X1941Y1075D03*
G54D12*
X2238Y2575D03*
X2041Y2575D03*
X2938Y2575D03*
X2741Y2575D03*
G54D13*
X2457Y475D03*
X2654Y475D03*
X2851Y475D03*
X3048Y475D03*
X3244Y475D03*
X3441Y475D03*
X1644Y475D03*
X1841Y475D03*
X1438Y2575D03*
X1241Y2575D03*
G54D14*
X941Y875D03*
X1341Y875D03*
X1341Y2175D03*
X941Y2175D03*
G54D15*
X2238Y2575D03*
X2938Y2575D03*
G54D16*
X2457Y475D03*
X1644Y475D03*
X1438Y2575D03*
G54D17*
X1440Y2074D02*
X1441Y2004D01*
D02*
X1041Y2274D02*
X1041Y2074D01*
D02*
X1041Y2074D02*
X1440Y2074D01*
D02*
X741Y2274D02*
X1041Y2274D01*
D02*
X741Y876D02*
X741Y2274D01*
D02*
X913Y875D02*
X741Y876D01*
D02*
X1341Y1046D02*
X1341Y904D01*
D02*
X1641Y1046D02*
X1644Y506D01*
D02*
X1840Y876D02*
X1841Y506D01*
D02*
X1740Y876D02*
X1840Y876D01*
D02*
X1741Y1046D02*
X1740Y876D01*
D02*
X1341Y1375D02*
X1341Y1104D01*
D02*
X941Y1375D02*
X1341Y1375D01*
D02*
X941Y1874D02*
X941Y1375D01*
D02*
X941Y2146D02*
X941Y1874D01*
D02*
X1740Y2174D02*
X1370Y2175D01*
D02*
X1741Y2004D02*
X1740Y2174D01*
D02*
X1440Y2074D02*
X1441Y2004D01*
D02*
X1141Y2074D02*
X1440Y2074D01*
D02*
X1440Y2274D02*
X1141Y2274D01*
D02*
X1141Y2274D02*
X1141Y2074D01*
D02*
X1438Y2544D02*
X1440Y2274D01*
D02*
X1241Y2673D02*
X1241Y2606D01*
D02*
X2040Y2673D02*
X1241Y2673D01*
D02*
X2041Y2606D02*
X2040Y2673D01*
D02*
X2040Y2174D02*
X2224Y2547D01*
D02*
X1740Y2174D02*
X2040Y2174D01*
D02*
X1741Y2004D02*
X1740Y2174D01*
D02*
X2040Y2673D02*
X2041Y2606D01*
D02*
X2739Y2673D02*
X2040Y2673D01*
D02*
X2741Y2606D02*
X2739Y2673D01*
D02*
X2745Y1344D02*
X2847Y506D01*
D02*
X2839Y276D02*
X1341Y276D01*
D02*
X1341Y276D02*
X1341Y846D01*
D02*
X2849Y444D02*
X2839Y276D01*
D02*
X2848Y1345D02*
X3041Y505D01*
D02*
X3644Y177D02*
X3039Y177D01*
D02*
X3039Y177D02*
X3047Y444D01*
D02*
X3644Y2673D02*
X3644Y177D01*
D02*
X2739Y2673D02*
X3644Y2673D01*
D02*
X3429Y503D02*
X3054Y1347D01*
D02*
X3235Y504D02*
X2951Y1346D01*
D02*
X2653Y506D02*
X2642Y1344D01*
D02*
X2460Y506D02*
X2538Y1344D01*
D02*
X2439Y1974D02*
X2439Y1675D01*
D02*
X2439Y1675D02*
X1241Y1675D01*
D02*
X1241Y1675D02*
X1241Y1946D01*
D02*
X2839Y1974D02*
X2439Y1974D01*
D02*
X2841Y1805D02*
X2839Y1974D01*
D02*
X2239Y2174D02*
X2239Y1874D01*
D02*
X2239Y1874D02*
X1640Y1874D01*
D02*
X1640Y1874D02*
X1641Y1946D01*
D02*
X3039Y2174D02*
X2239Y2174D01*
D02*
X3041Y1806D02*
X3039Y2174D01*
D02*
X3138Y1575D02*
X2739Y1575D01*
D02*
X2739Y1575D02*
X2741Y1745D01*
D02*
X3138Y2574D02*
X3138Y1575D01*
D02*
X2969Y2575D02*
X3138Y2574D01*
D02*
X2741Y1405D02*
X2741Y1745D01*
D02*
X1440Y1575D02*
X2639Y1575D01*
D02*
X2639Y1575D02*
X2641Y1745D01*
D02*
X1441Y1104D02*
X1440Y1575D01*
D02*
X1540Y1775D02*
X1541Y1946D01*
D02*
X2339Y1775D02*
X1540Y1775D01*
D02*
X2339Y2074D02*
X2339Y1775D01*
D02*
X2939Y2074D02*
X2339Y2074D01*
D02*
X2941Y1805D02*
X2939Y2074D01*
G04 End of Copper0*
M02*