G04 MADE WITH FRITZING*
G04 WWW.FRITZING.ORG*
G04 DOUBLE SIDED*
G04 HOLES PLATED*
G04 CONTOUR ON CENTER OF CONTOUR VECTOR*
%ASAXBY*%
%FSLAX23Y23*%
%MOIN*%
%OFA0B0*%
%SFA1.0B1.0*%
%ADD10C,0.074803*%
%ADD11C,0.077778*%
%ADD12C,0.080000*%
%ADD13C,0.079370*%
%ADD14C,0.059370*%
%ADD15C,0.075000*%
%ADD16R,0.080000X0.080000*%
%ADD17R,0.079370X0.079370*%
%ADD18C,0.024000*%
%ADD19R,0.001000X0.001000*%
%LNCOPPER0*%
G90*
G70*
G54D10*
X3042Y1776D03*
X2541Y1775D03*
X2641Y1775D03*
X2741Y1775D03*
X2841Y1775D03*
X2941Y1775D03*
X3042Y1375D03*
X2541Y1375D03*
X2641Y1375D03*
X2741Y1375D03*
X2841Y1375D03*
X2941Y1375D03*
G54D11*
X1941Y1975D03*
X1841Y1975D03*
X1741Y1975D03*
X1641Y1975D03*
X1541Y1975D03*
X1441Y1975D03*
X1341Y1975D03*
X1241Y1975D03*
X1241Y1075D03*
X1341Y1075D03*
X1441Y1075D03*
X1541Y1075D03*
X1641Y1075D03*
X1741Y1075D03*
X1841Y1075D03*
X1941Y1075D03*
G54D12*
X2238Y2575D03*
X2041Y2575D03*
X2938Y2575D03*
X2741Y2575D03*
G54D13*
X2457Y475D03*
X2654Y475D03*
X2851Y475D03*
X3048Y475D03*
X3244Y475D03*
X3441Y475D03*
X1644Y475D03*
X1841Y475D03*
X1438Y2575D03*
X1241Y2575D03*
G54D14*
X3340Y2475D03*
X3340Y2775D03*
X3540Y2475D03*
X3540Y2775D03*
G54D15*
X941Y875D03*
X1341Y875D03*
X1341Y2175D03*
X941Y2175D03*
G54D16*
X2238Y2575D03*
X2938Y2575D03*
G54D17*
X2457Y475D03*
X1644Y475D03*
X1438Y2575D03*
G54D18*
X1440Y2074D02*
X1441Y2004D01*
D02*
X1041Y2274D02*
X1041Y2074D01*
D02*
X1041Y2074D02*
X1440Y2074D01*
D02*
X741Y2274D02*
X1041Y2274D01*
D02*
X741Y876D02*
X741Y2274D01*
D02*
X913Y875D02*
X741Y876D01*
D02*
X1341Y1046D02*
X1341Y904D01*
D02*
X1641Y1046D02*
X1644Y506D01*
D02*
X1840Y876D02*
X1841Y506D01*
D02*
X1740Y876D02*
X1840Y876D01*
D02*
X1741Y1046D02*
X1740Y876D01*
D02*
X1341Y1375D02*
X1341Y1104D01*
D02*
X941Y1375D02*
X1341Y1375D01*
D02*
X941Y1874D02*
X941Y1375D01*
D02*
X941Y2146D02*
X941Y1874D01*
D02*
X1740Y2174D02*
X1370Y2175D01*
D02*
X1741Y2004D02*
X1740Y2174D01*
D02*
X1440Y2074D02*
X1441Y2004D01*
D02*
X1141Y2074D02*
X1440Y2074D01*
D02*
X1440Y2274D02*
X1141Y2274D01*
D02*
X1141Y2274D02*
X1141Y2074D01*
D02*
X1438Y2544D02*
X1440Y2274D01*
D02*
X1241Y2673D02*
X1241Y2606D01*
D02*
X2040Y2673D02*
X1241Y2673D01*
D02*
X2041Y2606D02*
X2040Y2673D01*
D02*
X2040Y2174D02*
X2224Y2547D01*
D02*
X1740Y2174D02*
X2040Y2174D01*
D02*
X1741Y2004D02*
X1740Y2174D01*
D02*
X2040Y2673D02*
X2041Y2606D01*
D02*
X2739Y2673D02*
X2040Y2673D01*
D02*
X2741Y2606D02*
X2739Y2673D01*
D02*
X2745Y1344D02*
X2847Y506D01*
D02*
X2839Y276D02*
X1341Y276D01*
D02*
X1341Y276D02*
X1341Y846D01*
D02*
X2849Y444D02*
X2839Y276D01*
D02*
X2848Y1345D02*
X3041Y505D01*
D02*
X3644Y177D02*
X3039Y177D01*
D02*
X3039Y177D02*
X3047Y444D01*
D02*
X3644Y2673D02*
X3644Y177D01*
D02*
X2739Y2673D02*
X3644Y2673D01*
D02*
X3429Y503D02*
X3054Y1347D01*
D02*
X3235Y504D02*
X2951Y1346D01*
D02*
X2653Y506D02*
X2642Y1344D01*
D02*
X2460Y506D02*
X2538Y1344D01*
D02*
X2439Y1974D02*
X2439Y1675D01*
D02*
X2439Y1675D02*
X1241Y1675D01*
D02*
X1241Y1675D02*
X1241Y1946D01*
D02*
X2839Y1974D02*
X2439Y1974D01*
D02*
X2841Y1805D02*
X2839Y1974D01*
D02*
X2239Y2174D02*
X2239Y1874D01*
D02*
X2239Y1874D02*
X1640Y1874D01*
D02*
X1640Y1874D02*
X1641Y1946D01*
D02*
X3039Y2174D02*
X2239Y2174D01*
D02*
X3041Y1806D02*
X3039Y2174D01*
D02*
X3138Y1575D02*
X2739Y1575D01*
D02*
X2739Y1575D02*
X2741Y1745D01*
D02*
X3138Y2574D02*
X3138Y1575D01*
D02*
X2969Y2575D02*
X3138Y2574D01*
D02*
X2741Y1405D02*
X2741Y1745D01*
D02*
X1440Y1575D02*
X2639Y1575D01*
D02*
X2639Y1575D02*
X2641Y1745D01*
D02*
X1441Y1104D02*
X1440Y1575D01*
D02*
X1540Y1775D02*
X1541Y1946D01*
D02*
X2339Y1775D02*
X1540Y1775D01*
D02*
X2339Y2074D02*
X2339Y1775D01*
D02*
X2939Y2074D02*
X2339Y2074D01*
D02*
X2941Y1805D02*
X2939Y2074D01*
G54D19*
X3309Y2805D02*
X3368Y2805D01*
X3509Y2805D02*
X3568Y2805D01*
X3309Y2804D02*
X3368Y2804D01*
X3509Y2804D02*
X3568Y2804D01*
X3309Y2803D02*
X3368Y2803D01*
X3509Y2803D02*
X3568Y2803D01*
X3309Y2802D02*
X3368Y2802D01*
X3509Y2802D02*
X3568Y2802D01*
X3309Y2801D02*
X3368Y2801D01*
X3509Y2801D02*
X3568Y2801D01*
X3309Y2800D02*
X3368Y2800D01*
X3509Y2800D02*
X3568Y2800D01*
X3309Y2799D02*
X3368Y2799D01*
X3509Y2799D02*
X3568Y2799D01*
X3309Y2798D02*
X3368Y2798D01*
X3509Y2798D02*
X3568Y2798D01*
X3309Y2797D02*
X3368Y2797D01*
X3509Y2797D02*
X3568Y2797D01*
X3309Y2796D02*
X3368Y2796D01*
X3509Y2796D02*
X3568Y2796D01*
X3309Y2795D02*
X3333Y2795D01*
X3344Y2795D02*
X3368Y2795D01*
X3509Y2795D02*
X3533Y2795D01*
X3544Y2795D02*
X3568Y2795D01*
X3309Y2794D02*
X3330Y2794D01*
X3347Y2794D02*
X3368Y2794D01*
X3509Y2794D02*
X3530Y2794D01*
X3547Y2794D02*
X3568Y2794D01*
X3309Y2793D02*
X3328Y2793D01*
X3349Y2793D02*
X3368Y2793D01*
X3509Y2793D02*
X3528Y2793D01*
X3549Y2793D02*
X3568Y2793D01*
X3309Y2792D02*
X3327Y2792D01*
X3350Y2792D02*
X3368Y2792D01*
X3509Y2792D02*
X3527Y2792D01*
X3550Y2792D02*
X3568Y2792D01*
X3309Y2791D02*
X3325Y2791D01*
X3351Y2791D02*
X3368Y2791D01*
X3509Y2791D02*
X3525Y2791D01*
X3551Y2791D02*
X3568Y2791D01*
X3309Y2790D02*
X3324Y2790D01*
X3353Y2790D02*
X3368Y2790D01*
X3509Y2790D02*
X3524Y2790D01*
X3553Y2790D02*
X3568Y2790D01*
X3309Y2789D02*
X3323Y2789D01*
X3354Y2789D02*
X3368Y2789D01*
X3509Y2789D02*
X3523Y2789D01*
X3554Y2789D02*
X3568Y2789D01*
X641Y2788D02*
X761Y2788D01*
X3309Y2788D02*
X3322Y2788D01*
X3347Y2788D02*
X3568Y2788D01*
X3582Y2788D02*
X3738Y2788D01*
X637Y2787D02*
X3039Y2787D01*
X3309Y2787D02*
X3322Y2787D01*
X3334Y2787D02*
X3742Y2787D01*
X635Y2786D02*
X3100Y2786D01*
X3266Y2786D02*
X3744Y2786D01*
X634Y2785D02*
X3745Y2785D01*
X633Y2784D02*
X3746Y2784D01*
X632Y2783D02*
X3747Y2783D01*
X632Y2782D02*
X3747Y2782D01*
X631Y2781D02*
X3748Y2781D01*
X631Y2780D02*
X3748Y2780D01*
X630Y2779D02*
X3748Y2779D01*
X630Y2778D02*
X3749Y2778D01*
X630Y2777D02*
X3749Y2777D01*
X630Y2776D02*
X3749Y2776D01*
X630Y2775D02*
X3749Y2775D01*
X630Y2774D02*
X3749Y2774D01*
X630Y2773D02*
X3748Y2773D01*
X630Y2772D02*
X3748Y2772D01*
X630Y2771D02*
X3748Y2771D01*
X630Y2770D02*
X3747Y2770D01*
X630Y2769D02*
X3746Y2769D01*
X630Y2768D02*
X3746Y2768D01*
X630Y2767D02*
X3745Y2767D01*
X630Y2766D02*
X3743Y2766D01*
X630Y2765D02*
X3741Y2765D01*
X630Y2764D02*
X653Y2764D01*
X773Y2764D02*
X3472Y2764D01*
X3509Y2764D02*
X3522Y2764D01*
X3539Y2764D02*
X3583Y2764D01*
X3714Y2764D02*
X3738Y2764D01*
X630Y2763D02*
X653Y2763D01*
X3040Y2763D02*
X3385Y2763D01*
X3509Y2763D02*
X3523Y2763D01*
X3554Y2763D02*
X3568Y2763D01*
X3714Y2763D02*
X3737Y2763D01*
X630Y2762D02*
X653Y2762D01*
X3100Y2762D02*
X3264Y2762D01*
X3309Y2762D02*
X3324Y2762D01*
X3353Y2762D02*
X3368Y2762D01*
X3509Y2762D02*
X3524Y2762D01*
X3553Y2762D02*
X3568Y2762D01*
X3713Y2762D02*
X3737Y2762D01*
X630Y2761D02*
X653Y2761D01*
X3309Y2761D02*
X3325Y2761D01*
X3352Y2761D02*
X3368Y2761D01*
X3509Y2761D02*
X3525Y2761D01*
X3552Y2761D02*
X3568Y2761D01*
X3713Y2761D02*
X3736Y2761D01*
X630Y2760D02*
X653Y2760D01*
X3309Y2760D02*
X3327Y2760D01*
X3350Y2760D02*
X3368Y2760D01*
X3509Y2760D02*
X3526Y2760D01*
X3550Y2760D02*
X3568Y2760D01*
X3713Y2760D02*
X3736Y2760D01*
X630Y2759D02*
X653Y2759D01*
X3309Y2759D02*
X3328Y2759D01*
X3349Y2759D02*
X3368Y2759D01*
X3509Y2759D02*
X3528Y2759D01*
X3549Y2759D02*
X3568Y2759D01*
X3713Y2759D02*
X3736Y2759D01*
X630Y2758D02*
X653Y2758D01*
X3309Y2758D02*
X3330Y2758D01*
X3347Y2758D02*
X3368Y2758D01*
X3509Y2758D02*
X3530Y2758D01*
X3547Y2758D02*
X3568Y2758D01*
X3713Y2758D02*
X3736Y2758D01*
X630Y2757D02*
X653Y2757D01*
X3309Y2757D02*
X3333Y2757D01*
X3344Y2757D02*
X3368Y2757D01*
X3509Y2757D02*
X3533Y2757D01*
X3544Y2757D02*
X3568Y2757D01*
X3713Y2757D02*
X3736Y2757D01*
X630Y2756D02*
X653Y2756D01*
X3309Y2756D02*
X3368Y2756D01*
X3509Y2756D02*
X3568Y2756D01*
X3713Y2756D02*
X3736Y2756D01*
X630Y2755D02*
X653Y2755D01*
X3309Y2755D02*
X3368Y2755D01*
X3509Y2755D02*
X3568Y2755D01*
X3713Y2755D02*
X3736Y2755D01*
X630Y2754D02*
X653Y2754D01*
X3309Y2754D02*
X3368Y2754D01*
X3509Y2754D02*
X3568Y2754D01*
X3713Y2754D02*
X3736Y2754D01*
X630Y2753D02*
X653Y2753D01*
X3309Y2753D02*
X3368Y2753D01*
X3509Y2753D02*
X3568Y2753D01*
X3713Y2753D02*
X3736Y2753D01*
X630Y2752D02*
X653Y2752D01*
X3309Y2752D02*
X3368Y2752D01*
X3509Y2752D02*
X3568Y2752D01*
X3713Y2752D02*
X3736Y2752D01*
X630Y2751D02*
X653Y2751D01*
X3309Y2751D02*
X3368Y2751D01*
X3509Y2751D02*
X3568Y2751D01*
X3713Y2751D02*
X3736Y2751D01*
X630Y2750D02*
X653Y2750D01*
X3309Y2750D02*
X3368Y2750D01*
X3509Y2750D02*
X3568Y2750D01*
X3713Y2750D02*
X3736Y2750D01*
X630Y2749D02*
X653Y2749D01*
X3309Y2749D02*
X3368Y2749D01*
X3509Y2749D02*
X3568Y2749D01*
X3713Y2749D02*
X3736Y2749D01*
X630Y2748D02*
X653Y2748D01*
X3309Y2748D02*
X3368Y2748D01*
X3509Y2748D02*
X3568Y2748D01*
X3713Y2748D02*
X3736Y2748D01*
X630Y2747D02*
X653Y2747D01*
X3309Y2747D02*
X3368Y2747D01*
X3509Y2747D02*
X3568Y2747D01*
X3713Y2747D02*
X3736Y2747D01*
X630Y2746D02*
X653Y2746D01*
X3713Y2746D02*
X3736Y2746D01*
X630Y2745D02*
X653Y2745D01*
X3713Y2745D02*
X3736Y2745D01*
X630Y2744D02*
X653Y2744D01*
X3714Y2744D02*
X3737Y2744D01*
X630Y2743D02*
X653Y2743D01*
X3714Y2743D02*
X3737Y2743D01*
X630Y2742D02*
X653Y2742D01*
X3714Y2742D02*
X3737Y2742D01*
X630Y2741D02*
X653Y2741D01*
X3714Y2741D02*
X3737Y2741D01*
X630Y2740D02*
X653Y2740D01*
X3714Y2740D02*
X3737Y2740D01*
X630Y2739D02*
X653Y2739D01*
X3714Y2739D02*
X3737Y2739D01*
X630Y2738D02*
X653Y2738D01*
X3714Y2738D02*
X3737Y2738D01*
X630Y2737D02*
X653Y2737D01*
X3714Y2737D02*
X3737Y2737D01*
X630Y2736D02*
X653Y2736D01*
X3714Y2736D02*
X3737Y2736D01*
X630Y2735D02*
X653Y2735D01*
X3714Y2735D02*
X3738Y2735D01*
X630Y2734D02*
X653Y2734D01*
X3714Y2734D02*
X3738Y2734D01*
X630Y2733D02*
X653Y2733D01*
X3715Y2733D02*
X3738Y2733D01*
X630Y2732D02*
X653Y2732D01*
X3715Y2732D02*
X3738Y2732D01*
X630Y2731D02*
X653Y2731D01*
X3715Y2731D02*
X3738Y2731D01*
X630Y2730D02*
X653Y2730D01*
X3715Y2730D02*
X3738Y2730D01*
X630Y2729D02*
X653Y2729D01*
X3715Y2729D02*
X3738Y2729D01*
X630Y2728D02*
X653Y2728D01*
X3715Y2728D02*
X3739Y2728D01*
X630Y2727D02*
X653Y2727D01*
X3715Y2727D02*
X3739Y2727D01*
X630Y2726D02*
X653Y2726D01*
X3716Y2726D02*
X3739Y2726D01*
X630Y2725D02*
X653Y2725D01*
X3716Y2725D02*
X3739Y2725D01*
X630Y2724D02*
X653Y2724D01*
X3716Y2724D02*
X3739Y2724D01*
X630Y2723D02*
X653Y2723D01*
X3716Y2723D02*
X3739Y2723D01*
X630Y2722D02*
X653Y2722D01*
X3716Y2722D02*
X3739Y2722D01*
X630Y2721D02*
X653Y2721D01*
X3716Y2721D02*
X3740Y2721D01*
X630Y2720D02*
X653Y2720D01*
X3716Y2720D02*
X3740Y2720D01*
X630Y2719D02*
X653Y2719D01*
X3717Y2719D02*
X3740Y2719D01*
X630Y2718D02*
X653Y2718D01*
X3717Y2718D02*
X3740Y2718D01*
X630Y2717D02*
X653Y2717D01*
X3717Y2717D02*
X3740Y2717D01*
X630Y2716D02*
X653Y2716D01*
X3717Y2716D02*
X3741Y2716D01*
X630Y2715D02*
X653Y2715D01*
X3717Y2715D02*
X3741Y2715D01*
X630Y2714D02*
X653Y2714D01*
X3718Y2714D02*
X3741Y2714D01*
X630Y2713D02*
X653Y2713D01*
X3718Y2713D02*
X3741Y2713D01*
X630Y2712D02*
X653Y2712D01*
X3718Y2712D02*
X3741Y2712D01*
X630Y2711D02*
X653Y2711D01*
X3718Y2711D02*
X3741Y2711D01*
X630Y2710D02*
X653Y2710D01*
X3718Y2710D02*
X3742Y2710D01*
X630Y2709D02*
X653Y2709D01*
X3718Y2709D02*
X3742Y2709D01*
X630Y2708D02*
X653Y2708D01*
X3719Y2708D02*
X3742Y2708D01*
X630Y2707D02*
X653Y2707D01*
X3719Y2707D02*
X3742Y2707D01*
X630Y2706D02*
X653Y2706D01*
X3719Y2706D02*
X3742Y2706D01*
X630Y2705D02*
X653Y2705D01*
X3719Y2705D02*
X3743Y2705D01*
X630Y2704D02*
X653Y2704D01*
X3719Y2704D02*
X3743Y2704D01*
X630Y2703D02*
X653Y2703D01*
X3720Y2703D02*
X3743Y2703D01*
X630Y2702D02*
X653Y2702D01*
X3720Y2702D02*
X3743Y2702D01*
X630Y2701D02*
X653Y2701D01*
X3720Y2701D02*
X3743Y2701D01*
X630Y2700D02*
X653Y2700D01*
X3720Y2700D02*
X3744Y2700D01*
X630Y2699D02*
X653Y2699D01*
X3720Y2699D02*
X3744Y2699D01*
X630Y2698D02*
X653Y2698D01*
X3721Y2698D02*
X3744Y2698D01*
X630Y2697D02*
X653Y2697D01*
X3721Y2697D02*
X3744Y2697D01*
X630Y2696D02*
X653Y2696D01*
X3721Y2696D02*
X3744Y2696D01*
X630Y2695D02*
X653Y2695D01*
X3721Y2695D02*
X3745Y2695D01*
X630Y2694D02*
X653Y2694D01*
X3721Y2694D02*
X3745Y2694D01*
X630Y2693D02*
X653Y2693D01*
X3722Y2693D02*
X3745Y2693D01*
X630Y2692D02*
X653Y2692D01*
X3722Y2692D02*
X3745Y2692D01*
X630Y2691D02*
X653Y2691D01*
X3722Y2691D02*
X3746Y2691D01*
X630Y2690D02*
X653Y2690D01*
X3722Y2690D02*
X3746Y2690D01*
X630Y2689D02*
X653Y2689D01*
X3722Y2689D02*
X3746Y2689D01*
X630Y2688D02*
X653Y2688D01*
X3723Y2688D02*
X3746Y2688D01*
X630Y2687D02*
X653Y2687D01*
X3723Y2687D02*
X3746Y2687D01*
X630Y2686D02*
X653Y2686D01*
X3723Y2686D02*
X3747Y2686D01*
X630Y2685D02*
X653Y2685D01*
X3723Y2685D02*
X3747Y2685D01*
X630Y2684D02*
X653Y2684D01*
X3724Y2684D02*
X3747Y2684D01*
X630Y2683D02*
X653Y2683D01*
X3724Y2683D02*
X3747Y2683D01*
X630Y2682D02*
X653Y2682D01*
X3724Y2682D02*
X3748Y2682D01*
X630Y2681D02*
X653Y2681D01*
X3724Y2681D02*
X3748Y2681D01*
X630Y2680D02*
X653Y2680D01*
X3724Y2680D02*
X3748Y2680D01*
X630Y2679D02*
X653Y2679D01*
X3725Y2679D02*
X3748Y2679D01*
X630Y2678D02*
X653Y2678D01*
X3725Y2678D02*
X3748Y2678D01*
X630Y2677D02*
X653Y2677D01*
X3725Y2677D02*
X3749Y2677D01*
X630Y2676D02*
X653Y2676D01*
X3725Y2676D02*
X3749Y2676D01*
X630Y2675D02*
X653Y2675D01*
X3726Y2675D02*
X3749Y2675D01*
X630Y2674D02*
X653Y2674D01*
X3726Y2674D02*
X3749Y2674D01*
X630Y2673D02*
X653Y2673D01*
X3726Y2673D02*
X3749Y2673D01*
X630Y2672D02*
X653Y2672D01*
X3726Y2672D02*
X3749Y2672D01*
X630Y2671D02*
X653Y2671D01*
X3726Y2671D02*
X3749Y2671D01*
X630Y2670D02*
X653Y2670D01*
X3726Y2670D02*
X3749Y2670D01*
X630Y2669D02*
X653Y2669D01*
X3726Y2669D02*
X3749Y2669D01*
X630Y2668D02*
X653Y2668D01*
X3726Y2668D02*
X3749Y2668D01*
X630Y2667D02*
X653Y2667D01*
X3726Y2667D02*
X3750Y2667D01*
X630Y2666D02*
X653Y2666D01*
X3727Y2666D02*
X3750Y2666D01*
X630Y2665D02*
X653Y2665D01*
X3727Y2665D02*
X3750Y2665D01*
X630Y2664D02*
X653Y2664D01*
X3727Y2664D02*
X3750Y2664D01*
X630Y2663D02*
X653Y2663D01*
X3727Y2663D02*
X3750Y2663D01*
X630Y2662D02*
X653Y2662D01*
X3727Y2662D02*
X3750Y2662D01*
X630Y2661D02*
X653Y2661D01*
X3727Y2661D02*
X3750Y2661D01*
X630Y2660D02*
X653Y2660D01*
X3727Y2660D02*
X3750Y2660D01*
X630Y2659D02*
X653Y2659D01*
X3727Y2659D02*
X3750Y2659D01*
X630Y2658D02*
X653Y2658D01*
X3727Y2658D02*
X3750Y2658D01*
X630Y2657D02*
X653Y2657D01*
X3727Y2657D02*
X3750Y2657D01*
X630Y2656D02*
X653Y2656D01*
X3727Y2656D02*
X3751Y2656D01*
X630Y2655D02*
X653Y2655D01*
X3728Y2655D02*
X3751Y2655D01*
X630Y2654D02*
X653Y2654D01*
X3728Y2654D02*
X3751Y2654D01*
X630Y2653D02*
X653Y2653D01*
X3728Y2653D02*
X3751Y2653D01*
X630Y2652D02*
X653Y2652D01*
X3728Y2652D02*
X3751Y2652D01*
X630Y2651D02*
X653Y2651D01*
X3728Y2651D02*
X3751Y2651D01*
X630Y2650D02*
X653Y2650D01*
X3728Y2650D02*
X3751Y2650D01*
X630Y2649D02*
X653Y2649D01*
X3728Y2649D02*
X3751Y2649D01*
X630Y2648D02*
X653Y2648D01*
X3728Y2648D02*
X3751Y2648D01*
X630Y2647D02*
X653Y2647D01*
X3728Y2647D02*
X3751Y2647D01*
X630Y2646D02*
X653Y2646D01*
X3728Y2646D02*
X3751Y2646D01*
X630Y2645D02*
X653Y2645D01*
X3728Y2645D02*
X3751Y2645D01*
X630Y2644D02*
X653Y2644D01*
X3728Y2644D02*
X3752Y2644D01*
X630Y2643D02*
X653Y2643D01*
X3729Y2643D02*
X3752Y2643D01*
X630Y2642D02*
X653Y2642D01*
X3729Y2642D02*
X3752Y2642D01*
X630Y2641D02*
X653Y2641D01*
X3729Y2641D02*
X3752Y2641D01*
X630Y2640D02*
X653Y2640D01*
X3729Y2640D02*
X3752Y2640D01*
X630Y2639D02*
X653Y2639D01*
X3729Y2639D02*
X3752Y2639D01*
X630Y2638D02*
X653Y2638D01*
X3729Y2638D02*
X3752Y2638D01*
X630Y2637D02*
X653Y2637D01*
X3729Y2637D02*
X3752Y2637D01*
X630Y2636D02*
X653Y2636D01*
X3729Y2636D02*
X3752Y2636D01*
X630Y2635D02*
X653Y2635D01*
X3729Y2635D02*
X3752Y2635D01*
X630Y2634D02*
X653Y2634D01*
X3729Y2634D02*
X3752Y2634D01*
X630Y2633D02*
X653Y2633D01*
X3729Y2633D02*
X3752Y2633D01*
X630Y2632D02*
X653Y2632D01*
X3729Y2632D02*
X3752Y2632D01*
X630Y2631D02*
X653Y2631D01*
X3729Y2631D02*
X3752Y2631D01*
X630Y2630D02*
X653Y2630D01*
X3729Y2630D02*
X3752Y2630D01*
X630Y2629D02*
X653Y2629D01*
X3729Y2629D02*
X3752Y2629D01*
X630Y2628D02*
X653Y2628D01*
X3729Y2628D02*
X3752Y2628D01*
X630Y2627D02*
X653Y2627D01*
X3729Y2627D02*
X3752Y2627D01*
X630Y2626D02*
X653Y2626D01*
X3729Y2626D02*
X3752Y2626D01*
X630Y2625D02*
X653Y2625D01*
X3730Y2625D02*
X3753Y2625D01*
X630Y2624D02*
X653Y2624D01*
X3730Y2624D02*
X3753Y2624D01*
X630Y2623D02*
X653Y2623D01*
X3730Y2623D02*
X3753Y2623D01*
X630Y2622D02*
X653Y2622D01*
X3730Y2622D02*
X3753Y2622D01*
X630Y2621D02*
X653Y2621D01*
X3730Y2621D02*
X3753Y2621D01*
X630Y2620D02*
X653Y2620D01*
X3730Y2620D02*
X3753Y2620D01*
X630Y2619D02*
X653Y2619D01*
X3730Y2619D02*
X3753Y2619D01*
X630Y2618D02*
X653Y2618D01*
X3730Y2618D02*
X3753Y2618D01*
X630Y2617D02*
X653Y2617D01*
X3730Y2617D02*
X3753Y2617D01*
X630Y2616D02*
X653Y2616D01*
X3730Y2616D02*
X3753Y2616D01*
X630Y2615D02*
X653Y2615D01*
X3730Y2615D02*
X3753Y2615D01*
X630Y2614D02*
X653Y2614D01*
X3730Y2614D02*
X3753Y2614D01*
X630Y2613D02*
X653Y2613D01*
X3730Y2613D02*
X3753Y2613D01*
X630Y2612D02*
X653Y2612D01*
X3730Y2612D02*
X3753Y2612D01*
X630Y2611D02*
X653Y2611D01*
X3730Y2611D02*
X3753Y2611D01*
X630Y2610D02*
X653Y2610D01*
X3730Y2610D02*
X3753Y2610D01*
X630Y2609D02*
X653Y2609D01*
X3730Y2609D02*
X3753Y2609D01*
X630Y2608D02*
X653Y2608D01*
X3730Y2608D02*
X3753Y2608D01*
X630Y2607D02*
X653Y2607D01*
X3729Y2607D02*
X3752Y2607D01*
X630Y2606D02*
X653Y2606D01*
X3729Y2606D02*
X3752Y2606D01*
X630Y2605D02*
X653Y2605D01*
X3729Y2605D02*
X3752Y2605D01*
X630Y2604D02*
X653Y2604D01*
X3729Y2604D02*
X3752Y2604D01*
X630Y2603D02*
X653Y2603D01*
X3729Y2603D02*
X3752Y2603D01*
X630Y2602D02*
X653Y2602D01*
X3729Y2602D02*
X3752Y2602D01*
X630Y2601D02*
X653Y2601D01*
X3729Y2601D02*
X3752Y2601D01*
X630Y2600D02*
X653Y2600D01*
X3729Y2600D02*
X3752Y2600D01*
X630Y2599D02*
X653Y2599D01*
X3729Y2599D02*
X3752Y2599D01*
X630Y2598D02*
X653Y2598D01*
X3729Y2598D02*
X3752Y2598D01*
X630Y2597D02*
X653Y2597D01*
X3729Y2597D02*
X3752Y2597D01*
X630Y2596D02*
X653Y2596D01*
X3729Y2596D02*
X3752Y2596D01*
X630Y2595D02*
X653Y2595D01*
X3729Y2595D02*
X3752Y2595D01*
X630Y2594D02*
X653Y2594D01*
X3729Y2594D02*
X3752Y2594D01*
X630Y2593D02*
X653Y2593D01*
X3729Y2593D02*
X3752Y2593D01*
X630Y2592D02*
X653Y2592D01*
X3729Y2592D02*
X3752Y2592D01*
X630Y2591D02*
X653Y2591D01*
X3728Y2591D02*
X3752Y2591D01*
X630Y2590D02*
X653Y2590D01*
X3728Y2590D02*
X3751Y2590D01*
X630Y2589D02*
X653Y2589D01*
X3728Y2589D02*
X3751Y2589D01*
X630Y2588D02*
X653Y2588D01*
X3728Y2588D02*
X3751Y2588D01*
X630Y2587D02*
X653Y2587D01*
X3728Y2587D02*
X3751Y2587D01*
X630Y2586D02*
X653Y2586D01*
X3728Y2586D02*
X3751Y2586D01*
X630Y2585D02*
X653Y2585D01*
X3728Y2585D02*
X3751Y2585D01*
X630Y2584D02*
X653Y2584D01*
X3728Y2584D02*
X3751Y2584D01*
X630Y2583D02*
X653Y2583D01*
X3727Y2583D02*
X3751Y2583D01*
X630Y2582D02*
X653Y2582D01*
X3727Y2582D02*
X3750Y2582D01*
X630Y2581D02*
X653Y2581D01*
X3727Y2581D02*
X3750Y2581D01*
X630Y2580D02*
X653Y2580D01*
X3727Y2580D02*
X3750Y2580D01*
X630Y2579D02*
X653Y2579D01*
X3727Y2579D02*
X3750Y2579D01*
X630Y2578D02*
X653Y2578D01*
X3726Y2578D02*
X3750Y2578D01*
X630Y2577D02*
X653Y2577D01*
X3726Y2577D02*
X3750Y2577D01*
X630Y2576D02*
X653Y2576D01*
X3726Y2576D02*
X3749Y2576D01*
X630Y2575D02*
X653Y2575D01*
X3726Y2575D02*
X3749Y2575D01*
X630Y2574D02*
X653Y2574D01*
X3726Y2574D02*
X3749Y2574D01*
X630Y2573D02*
X653Y2573D01*
X3726Y2573D02*
X3749Y2573D01*
X630Y2572D02*
X653Y2572D01*
X3726Y2572D02*
X3749Y2572D01*
X630Y2571D02*
X653Y2571D01*
X3726Y2571D02*
X3749Y2571D01*
X630Y2570D02*
X653Y2570D01*
X3726Y2570D02*
X3749Y2570D01*
X630Y2569D02*
X653Y2569D01*
X3726Y2569D02*
X3749Y2569D01*
X630Y2568D02*
X653Y2568D01*
X3726Y2568D02*
X3749Y2568D01*
X630Y2567D02*
X653Y2567D01*
X3726Y2567D02*
X3749Y2567D01*
X630Y2566D02*
X653Y2566D01*
X3726Y2566D02*
X3749Y2566D01*
X630Y2565D02*
X653Y2565D01*
X3726Y2565D02*
X3749Y2565D01*
X630Y2564D02*
X653Y2564D01*
X3726Y2564D02*
X3749Y2564D01*
X630Y2563D02*
X653Y2563D01*
X3726Y2563D02*
X3749Y2563D01*
X630Y2562D02*
X653Y2562D01*
X3725Y2562D02*
X3748Y2562D01*
X630Y2561D02*
X653Y2561D01*
X3725Y2561D02*
X3748Y2561D01*
X630Y2560D02*
X653Y2560D01*
X3725Y2560D02*
X3748Y2560D01*
X630Y2559D02*
X653Y2559D01*
X3725Y2559D02*
X3748Y2559D01*
X630Y2558D02*
X653Y2558D01*
X3725Y2558D02*
X3748Y2558D01*
X630Y2557D02*
X653Y2557D01*
X3725Y2557D02*
X3748Y2557D01*
X630Y2556D02*
X653Y2556D01*
X3725Y2556D02*
X3748Y2556D01*
X630Y2555D02*
X653Y2555D01*
X3725Y2555D02*
X3748Y2555D01*
X630Y2554D02*
X653Y2554D01*
X3725Y2554D02*
X3748Y2554D01*
X630Y2553D02*
X653Y2553D01*
X3725Y2553D02*
X3748Y2553D01*
X630Y2552D02*
X653Y2552D01*
X3725Y2552D02*
X3748Y2552D01*
X630Y2551D02*
X653Y2551D01*
X3725Y2551D02*
X3748Y2551D01*
X630Y2550D02*
X653Y2550D01*
X3725Y2550D02*
X3748Y2550D01*
X630Y2549D02*
X653Y2549D01*
X3725Y2549D02*
X3748Y2549D01*
X630Y2548D02*
X653Y2548D01*
X3725Y2548D02*
X3748Y2548D01*
X630Y2547D02*
X653Y2547D01*
X3725Y2547D02*
X3748Y2547D01*
X630Y2546D02*
X653Y2546D01*
X3725Y2546D02*
X3748Y2546D01*
X630Y2545D02*
X653Y2545D01*
X3725Y2545D02*
X3748Y2545D01*
X630Y2544D02*
X653Y2544D01*
X3725Y2544D02*
X3748Y2544D01*
X630Y2543D02*
X653Y2543D01*
X3725Y2543D02*
X3748Y2543D01*
X630Y2542D02*
X653Y2542D01*
X3725Y2542D02*
X3748Y2542D01*
X630Y2541D02*
X653Y2541D01*
X3725Y2541D02*
X3748Y2541D01*
X630Y2540D02*
X653Y2540D01*
X3725Y2540D02*
X3748Y2540D01*
X630Y2539D02*
X653Y2539D01*
X3725Y2539D02*
X3748Y2539D01*
X630Y2538D02*
X653Y2538D01*
X3725Y2538D02*
X3748Y2538D01*
X630Y2537D02*
X653Y2537D01*
X3725Y2537D02*
X3748Y2537D01*
X630Y2536D02*
X653Y2536D01*
X3725Y2536D02*
X3748Y2536D01*
X630Y2535D02*
X653Y2535D01*
X3725Y2535D02*
X3748Y2535D01*
X630Y2534D02*
X653Y2534D01*
X3725Y2534D02*
X3748Y2534D01*
X630Y2533D02*
X653Y2533D01*
X3725Y2533D02*
X3748Y2533D01*
X630Y2532D02*
X653Y2532D01*
X3725Y2532D02*
X3748Y2532D01*
X630Y2531D02*
X653Y2531D01*
X3725Y2531D02*
X3748Y2531D01*
X630Y2530D02*
X653Y2530D01*
X3725Y2530D02*
X3748Y2530D01*
X630Y2529D02*
X653Y2529D01*
X3725Y2529D02*
X3748Y2529D01*
X630Y2528D02*
X653Y2528D01*
X3725Y2528D02*
X3748Y2528D01*
X630Y2527D02*
X653Y2527D01*
X3724Y2527D02*
X3747Y2527D01*
X630Y2526D02*
X653Y2526D01*
X3724Y2526D02*
X3747Y2526D01*
X630Y2525D02*
X653Y2525D01*
X3724Y2525D02*
X3747Y2525D01*
X630Y2524D02*
X653Y2524D01*
X3724Y2524D02*
X3747Y2524D01*
X630Y2523D02*
X653Y2523D01*
X3724Y2523D02*
X3747Y2523D01*
X630Y2522D02*
X653Y2522D01*
X3724Y2522D02*
X3747Y2522D01*
X630Y2521D02*
X653Y2521D01*
X3724Y2521D02*
X3747Y2521D01*
X630Y2520D02*
X653Y2520D01*
X3724Y2520D02*
X3747Y2520D01*
X630Y2519D02*
X653Y2519D01*
X3724Y2519D02*
X3747Y2519D01*
X630Y2518D02*
X653Y2518D01*
X3724Y2518D02*
X3747Y2518D01*
X630Y2517D02*
X653Y2517D01*
X3724Y2517D02*
X3747Y2517D01*
X630Y2516D02*
X653Y2516D01*
X3724Y2516D02*
X3747Y2516D01*
X630Y2515D02*
X653Y2515D01*
X3724Y2515D02*
X3747Y2515D01*
X630Y2514D02*
X653Y2514D01*
X3724Y2514D02*
X3747Y2514D01*
X630Y2513D02*
X653Y2513D01*
X3724Y2513D02*
X3747Y2513D01*
X630Y2512D02*
X653Y2512D01*
X3724Y2512D02*
X3747Y2512D01*
X630Y2511D02*
X653Y2511D01*
X3724Y2511D02*
X3747Y2511D01*
X630Y2510D02*
X653Y2510D01*
X3724Y2510D02*
X3747Y2510D01*
X630Y2509D02*
X653Y2509D01*
X3724Y2509D02*
X3747Y2509D01*
X630Y2508D02*
X653Y2508D01*
X3724Y2508D02*
X3747Y2508D01*
X630Y2507D02*
X653Y2507D01*
X3724Y2507D02*
X3747Y2507D01*
X630Y2506D02*
X653Y2506D01*
X3724Y2506D02*
X3747Y2506D01*
X630Y2505D02*
X653Y2505D01*
X3309Y2505D02*
X3368Y2505D01*
X3509Y2505D02*
X3568Y2505D01*
X3724Y2505D02*
X3747Y2505D01*
X630Y2504D02*
X653Y2504D01*
X3309Y2504D02*
X3368Y2504D01*
X3509Y2504D02*
X3568Y2504D01*
X3724Y2504D02*
X3747Y2504D01*
X630Y2503D02*
X653Y2503D01*
X3309Y2503D02*
X3368Y2503D01*
X3509Y2503D02*
X3568Y2503D01*
X3724Y2503D02*
X3747Y2503D01*
X630Y2502D02*
X653Y2502D01*
X3309Y2502D02*
X3368Y2502D01*
X3509Y2502D02*
X3568Y2502D01*
X3724Y2502D02*
X3747Y2502D01*
X630Y2501D02*
X653Y2501D01*
X3309Y2501D02*
X3368Y2501D01*
X3509Y2501D02*
X3568Y2501D01*
X3724Y2501D02*
X3747Y2501D01*
X630Y2500D02*
X653Y2500D01*
X3309Y2500D02*
X3368Y2500D01*
X3509Y2500D02*
X3568Y2500D01*
X3724Y2500D02*
X3747Y2500D01*
X630Y2499D02*
X653Y2499D01*
X3309Y2499D02*
X3368Y2499D01*
X3509Y2499D02*
X3568Y2499D01*
X3724Y2499D02*
X3747Y2499D01*
X630Y2498D02*
X653Y2498D01*
X3309Y2498D02*
X3368Y2498D01*
X3509Y2498D02*
X3568Y2498D01*
X3724Y2498D02*
X3747Y2498D01*
X630Y2497D02*
X653Y2497D01*
X3309Y2497D02*
X3368Y2497D01*
X3509Y2497D02*
X3568Y2497D01*
X3724Y2497D02*
X3747Y2497D01*
X630Y2496D02*
X653Y2496D01*
X3309Y2496D02*
X3368Y2496D01*
X3509Y2496D02*
X3568Y2496D01*
X3724Y2496D02*
X3747Y2496D01*
X630Y2495D02*
X653Y2495D01*
X3309Y2495D02*
X3333Y2495D01*
X3344Y2495D02*
X3368Y2495D01*
X3509Y2495D02*
X3533Y2495D01*
X3544Y2495D02*
X3568Y2495D01*
X3724Y2495D02*
X3747Y2495D01*
X630Y2494D02*
X653Y2494D01*
X3309Y2494D02*
X3330Y2494D01*
X3347Y2494D02*
X3368Y2494D01*
X3509Y2494D02*
X3530Y2494D01*
X3547Y2494D02*
X3568Y2494D01*
X3724Y2494D02*
X3747Y2494D01*
X630Y2493D02*
X653Y2493D01*
X3309Y2493D02*
X3328Y2493D01*
X3349Y2493D02*
X3368Y2493D01*
X3509Y2493D02*
X3528Y2493D01*
X3549Y2493D02*
X3568Y2493D01*
X3724Y2493D02*
X3747Y2493D01*
X630Y2492D02*
X653Y2492D01*
X3309Y2492D02*
X3327Y2492D01*
X3350Y2492D02*
X3368Y2492D01*
X3509Y2492D02*
X3526Y2492D01*
X3550Y2492D02*
X3568Y2492D01*
X3724Y2492D02*
X3747Y2492D01*
X630Y2491D02*
X653Y2491D01*
X3309Y2491D02*
X3325Y2491D01*
X3352Y2491D02*
X3368Y2491D01*
X3509Y2491D02*
X3525Y2491D01*
X3552Y2491D02*
X3568Y2491D01*
X3724Y2491D02*
X3747Y2491D01*
X630Y2490D02*
X653Y2490D01*
X3309Y2490D02*
X3324Y2490D01*
X3353Y2490D02*
X3368Y2490D01*
X3509Y2490D02*
X3524Y2490D01*
X3553Y2490D02*
X3568Y2490D01*
X3724Y2490D02*
X3747Y2490D01*
X630Y2489D02*
X653Y2489D01*
X3309Y2489D02*
X3323Y2489D01*
X3354Y2489D02*
X3368Y2489D01*
X3509Y2489D02*
X3523Y2489D01*
X3554Y2489D02*
X3568Y2489D01*
X3724Y2489D02*
X3747Y2489D01*
X630Y2488D02*
X653Y2488D01*
X3309Y2488D02*
X3322Y2488D01*
X3354Y2488D02*
X3368Y2488D01*
X3509Y2488D02*
X3522Y2488D01*
X3554Y2488D02*
X3568Y2488D01*
X3724Y2488D02*
X3747Y2488D01*
X630Y2487D02*
X653Y2487D01*
X3309Y2487D02*
X3322Y2487D01*
X3355Y2487D02*
X3368Y2487D01*
X3509Y2487D02*
X3522Y2487D01*
X3555Y2487D02*
X3568Y2487D01*
X3724Y2487D02*
X3747Y2487D01*
X630Y2486D02*
X653Y2486D01*
X3309Y2486D02*
X3321Y2486D01*
X3356Y2486D02*
X3368Y2486D01*
X3509Y2486D02*
X3521Y2486D01*
X3556Y2486D02*
X3568Y2486D01*
X3724Y2486D02*
X3747Y2486D01*
X630Y2485D02*
X653Y2485D01*
X3309Y2485D02*
X3321Y2485D01*
X3356Y2485D02*
X3368Y2485D01*
X3509Y2485D02*
X3520Y2485D01*
X3556Y2485D02*
X3568Y2485D01*
X3724Y2485D02*
X3747Y2485D01*
X630Y2484D02*
X653Y2484D01*
X3309Y2484D02*
X3320Y2484D01*
X3357Y2484D02*
X3368Y2484D01*
X3509Y2484D02*
X3520Y2484D01*
X3557Y2484D02*
X3568Y2484D01*
X3724Y2484D02*
X3747Y2484D01*
X630Y2483D02*
X653Y2483D01*
X3309Y2483D02*
X3320Y2483D01*
X3357Y2483D02*
X3368Y2483D01*
X3509Y2483D02*
X3520Y2483D01*
X3557Y2483D02*
X3568Y2483D01*
X3723Y2483D02*
X3747Y2483D01*
X630Y2482D02*
X653Y2482D01*
X3309Y2482D02*
X3319Y2482D01*
X3358Y2482D02*
X3368Y2482D01*
X3509Y2482D02*
X3519Y2482D01*
X3558Y2482D02*
X3568Y2482D01*
X3723Y2482D02*
X3746Y2482D01*
X630Y2481D02*
X653Y2481D01*
X3309Y2481D02*
X3319Y2481D01*
X3358Y2481D02*
X3368Y2481D01*
X3509Y2481D02*
X3519Y2481D01*
X3558Y2481D02*
X3568Y2481D01*
X3723Y2481D02*
X3746Y2481D01*
X630Y2480D02*
X653Y2480D01*
X3309Y2480D02*
X3319Y2480D01*
X3358Y2480D02*
X3368Y2480D01*
X3509Y2480D02*
X3519Y2480D01*
X3558Y2480D02*
X3568Y2480D01*
X3723Y2480D02*
X3746Y2480D01*
X630Y2479D02*
X653Y2479D01*
X3309Y2479D02*
X3319Y2479D01*
X3358Y2479D02*
X3368Y2479D01*
X3509Y2479D02*
X3519Y2479D01*
X3558Y2479D02*
X3568Y2479D01*
X3723Y2479D02*
X3746Y2479D01*
X630Y2478D02*
X653Y2478D01*
X3309Y2478D02*
X3318Y2478D01*
X3358Y2478D02*
X3368Y2478D01*
X3509Y2478D02*
X3518Y2478D01*
X3558Y2478D02*
X3568Y2478D01*
X3723Y2478D02*
X3746Y2478D01*
X630Y2477D02*
X653Y2477D01*
X3309Y2477D02*
X3318Y2477D01*
X3359Y2477D02*
X3368Y2477D01*
X3509Y2477D02*
X3518Y2477D01*
X3558Y2477D02*
X3568Y2477D01*
X3723Y2477D02*
X3746Y2477D01*
X630Y2476D02*
X653Y2476D01*
X3309Y2476D02*
X3318Y2476D01*
X3359Y2476D02*
X3368Y2476D01*
X3509Y2476D02*
X3518Y2476D01*
X3559Y2476D02*
X3568Y2476D01*
X3723Y2476D02*
X3746Y2476D01*
X630Y2475D02*
X653Y2475D01*
X3309Y2475D02*
X3318Y2475D01*
X3358Y2475D02*
X3368Y2475D01*
X3509Y2475D02*
X3518Y2475D01*
X3558Y2475D02*
X3568Y2475D01*
X3723Y2475D02*
X3746Y2475D01*
X630Y2474D02*
X653Y2474D01*
X3309Y2474D02*
X3318Y2474D01*
X3358Y2474D02*
X3368Y2474D01*
X3509Y2474D02*
X3518Y2474D01*
X3558Y2474D02*
X3568Y2474D01*
X3723Y2474D02*
X3746Y2474D01*
X630Y2473D02*
X653Y2473D01*
X3309Y2473D02*
X3319Y2473D01*
X3358Y2473D02*
X3368Y2473D01*
X3509Y2473D02*
X3519Y2473D01*
X3558Y2473D02*
X3568Y2473D01*
X3723Y2473D02*
X3746Y2473D01*
X630Y2472D02*
X653Y2472D01*
X3309Y2472D02*
X3319Y2472D01*
X3358Y2472D02*
X3368Y2472D01*
X3509Y2472D02*
X3519Y2472D01*
X3558Y2472D02*
X3568Y2472D01*
X3723Y2472D02*
X3746Y2472D01*
X630Y2471D02*
X653Y2471D01*
X3309Y2471D02*
X3319Y2471D01*
X3358Y2471D02*
X3368Y2471D01*
X3509Y2471D02*
X3519Y2471D01*
X3558Y2471D02*
X3568Y2471D01*
X3723Y2471D02*
X3746Y2471D01*
X630Y2470D02*
X653Y2470D01*
X3309Y2470D02*
X3319Y2470D01*
X3358Y2470D02*
X3368Y2470D01*
X3509Y2470D02*
X3519Y2470D01*
X3558Y2470D02*
X3568Y2470D01*
X3723Y2470D02*
X3746Y2470D01*
X630Y2469D02*
X653Y2469D01*
X3309Y2469D02*
X3320Y2469D01*
X3357Y2469D02*
X3368Y2469D01*
X3509Y2469D02*
X3520Y2469D01*
X3557Y2469D02*
X3568Y2469D01*
X3723Y2469D02*
X3746Y2469D01*
X630Y2468D02*
X653Y2468D01*
X3309Y2468D02*
X3320Y2468D01*
X3357Y2468D02*
X3368Y2468D01*
X3509Y2468D02*
X3520Y2468D01*
X3557Y2468D02*
X3568Y2468D01*
X3723Y2468D02*
X3746Y2468D01*
X630Y2467D02*
X653Y2467D01*
X3309Y2467D02*
X3321Y2467D01*
X3356Y2467D02*
X3368Y2467D01*
X3509Y2467D02*
X3520Y2467D01*
X3556Y2467D02*
X3568Y2467D01*
X3723Y2467D02*
X3746Y2467D01*
X630Y2466D02*
X653Y2466D01*
X3309Y2466D02*
X3321Y2466D01*
X3356Y2466D02*
X3368Y2466D01*
X3509Y2466D02*
X3521Y2466D01*
X3556Y2466D02*
X3568Y2466D01*
X3723Y2466D02*
X3746Y2466D01*
X630Y2465D02*
X653Y2465D01*
X3309Y2465D02*
X3322Y2465D01*
X3355Y2465D02*
X3368Y2465D01*
X3509Y2465D02*
X3522Y2465D01*
X3555Y2465D02*
X3568Y2465D01*
X3723Y2465D02*
X3746Y2465D01*
X630Y2464D02*
X653Y2464D01*
X3309Y2464D02*
X3322Y2464D01*
X3354Y2464D02*
X3368Y2464D01*
X3509Y2464D02*
X3522Y2464D01*
X3554Y2464D02*
X3568Y2464D01*
X3723Y2464D02*
X3746Y2464D01*
X630Y2463D02*
X653Y2463D01*
X3309Y2463D02*
X3323Y2463D01*
X3354Y2463D02*
X3368Y2463D01*
X3509Y2463D02*
X3523Y2463D01*
X3554Y2463D02*
X3568Y2463D01*
X3723Y2463D02*
X3746Y2463D01*
X630Y2462D02*
X653Y2462D01*
X3309Y2462D02*
X3324Y2462D01*
X3353Y2462D02*
X3368Y2462D01*
X3509Y2462D02*
X3524Y2462D01*
X3553Y2462D02*
X3568Y2462D01*
X3723Y2462D02*
X3746Y2462D01*
X630Y2461D02*
X653Y2461D01*
X3309Y2461D02*
X3325Y2461D01*
X3351Y2461D02*
X3368Y2461D01*
X3509Y2461D02*
X3525Y2461D01*
X3551Y2461D02*
X3568Y2461D01*
X3723Y2461D02*
X3746Y2461D01*
X630Y2460D02*
X653Y2460D01*
X3309Y2460D02*
X3327Y2460D01*
X3350Y2460D02*
X3368Y2460D01*
X3509Y2460D02*
X3527Y2460D01*
X3550Y2460D02*
X3568Y2460D01*
X3723Y2460D02*
X3746Y2460D01*
X630Y2459D02*
X653Y2459D01*
X3309Y2459D02*
X3328Y2459D01*
X3349Y2459D02*
X3368Y2459D01*
X3509Y2459D02*
X3528Y2459D01*
X3549Y2459D02*
X3568Y2459D01*
X3723Y2459D02*
X3746Y2459D01*
X630Y2458D02*
X653Y2458D01*
X3309Y2458D02*
X3330Y2458D01*
X3347Y2458D02*
X3368Y2458D01*
X3509Y2458D02*
X3530Y2458D01*
X3547Y2458D02*
X3568Y2458D01*
X3723Y2458D02*
X3746Y2458D01*
X630Y2457D02*
X653Y2457D01*
X3309Y2457D02*
X3333Y2457D01*
X3344Y2457D02*
X3368Y2457D01*
X3509Y2457D02*
X3533Y2457D01*
X3544Y2457D02*
X3568Y2457D01*
X3723Y2457D02*
X3746Y2457D01*
X630Y2456D02*
X653Y2456D01*
X3309Y2456D02*
X3368Y2456D01*
X3509Y2456D02*
X3568Y2456D01*
X3723Y2456D02*
X3746Y2456D01*
X630Y2455D02*
X653Y2455D01*
X3309Y2455D02*
X3368Y2455D01*
X3509Y2455D02*
X3568Y2455D01*
X3723Y2455D02*
X3746Y2455D01*
X630Y2454D02*
X653Y2454D01*
X3309Y2454D02*
X3368Y2454D01*
X3509Y2454D02*
X3568Y2454D01*
X3723Y2454D02*
X3746Y2454D01*
X630Y2453D02*
X653Y2453D01*
X3309Y2453D02*
X3368Y2453D01*
X3509Y2453D02*
X3568Y2453D01*
X3723Y2453D02*
X3746Y2453D01*
X630Y2452D02*
X653Y2452D01*
X3309Y2452D02*
X3368Y2452D01*
X3509Y2452D02*
X3568Y2452D01*
X3723Y2452D02*
X3746Y2452D01*
X630Y2451D02*
X653Y2451D01*
X3309Y2451D02*
X3368Y2451D01*
X3509Y2451D02*
X3568Y2451D01*
X3723Y2451D02*
X3746Y2451D01*
X630Y2450D02*
X653Y2450D01*
X3309Y2450D02*
X3368Y2450D01*
X3509Y2450D02*
X3568Y2450D01*
X3723Y2450D02*
X3746Y2450D01*
X630Y2449D02*
X653Y2449D01*
X3309Y2449D02*
X3368Y2449D01*
X3509Y2449D02*
X3568Y2449D01*
X3723Y2449D02*
X3746Y2449D01*
X630Y2448D02*
X653Y2448D01*
X3309Y2448D02*
X3368Y2448D01*
X3509Y2448D02*
X3568Y2448D01*
X3723Y2448D02*
X3746Y2448D01*
X630Y2447D02*
X653Y2447D01*
X3309Y2447D02*
X3368Y2447D01*
X3509Y2447D02*
X3568Y2447D01*
X3723Y2447D02*
X3746Y2447D01*
X630Y2446D02*
X653Y2446D01*
X3723Y2446D02*
X3746Y2446D01*
X630Y2445D02*
X653Y2445D01*
X3723Y2445D02*
X3746Y2445D01*
X630Y2444D02*
X653Y2444D01*
X3723Y2444D02*
X3746Y2444D01*
X630Y2443D02*
X653Y2443D01*
X3723Y2443D02*
X3746Y2443D01*
X630Y2442D02*
X653Y2442D01*
X3723Y2442D02*
X3746Y2442D01*
X630Y2441D02*
X653Y2441D01*
X3723Y2441D02*
X3746Y2441D01*
X630Y2440D02*
X653Y2440D01*
X3723Y2440D02*
X3746Y2440D01*
X630Y2439D02*
X653Y2439D01*
X3723Y2439D02*
X3746Y2439D01*
X630Y2438D02*
X653Y2438D01*
X3723Y2438D02*
X3746Y2438D01*
X630Y2437D02*
X653Y2437D01*
X3723Y2437D02*
X3746Y2437D01*
X630Y2436D02*
X653Y2436D01*
X3723Y2436D02*
X3746Y2436D01*
X630Y2435D02*
X653Y2435D01*
X3723Y2435D02*
X3746Y2435D01*
X630Y2434D02*
X653Y2434D01*
X3723Y2434D02*
X3746Y2434D01*
X630Y2433D02*
X653Y2433D01*
X3723Y2433D02*
X3746Y2433D01*
X630Y2432D02*
X653Y2432D01*
X3723Y2432D02*
X3746Y2432D01*
X630Y2431D02*
X653Y2431D01*
X3723Y2431D02*
X3746Y2431D01*
X630Y2430D02*
X653Y2430D01*
X3723Y2430D02*
X3746Y2430D01*
X630Y2429D02*
X653Y2429D01*
X3723Y2429D02*
X3746Y2429D01*
X630Y2428D02*
X653Y2428D01*
X3723Y2428D02*
X3746Y2428D01*
X630Y2427D02*
X653Y2427D01*
X3723Y2427D02*
X3746Y2427D01*
X630Y2426D02*
X653Y2426D01*
X3723Y2426D02*
X3746Y2426D01*
X630Y2425D02*
X653Y2425D01*
X3722Y2425D02*
X3745Y2425D01*
X630Y2424D02*
X653Y2424D01*
X3722Y2424D02*
X3745Y2424D01*
X630Y2423D02*
X653Y2423D01*
X3722Y2423D02*
X3745Y2423D01*
X630Y2422D02*
X653Y2422D01*
X3722Y2422D02*
X3745Y2422D01*
X630Y2421D02*
X653Y2421D01*
X3722Y2421D02*
X3745Y2421D01*
X630Y2420D02*
X653Y2420D01*
X3722Y2420D02*
X3745Y2420D01*
X630Y2419D02*
X653Y2419D01*
X3722Y2419D02*
X3745Y2419D01*
X630Y2418D02*
X653Y2418D01*
X3722Y2418D02*
X3745Y2418D01*
X630Y2417D02*
X653Y2417D01*
X3722Y2417D02*
X3745Y2417D01*
X630Y2416D02*
X653Y2416D01*
X3722Y2416D02*
X3745Y2416D01*
X630Y2415D02*
X653Y2415D01*
X3722Y2415D02*
X3745Y2415D01*
X630Y2414D02*
X653Y2414D01*
X3722Y2414D02*
X3745Y2414D01*
X630Y2413D02*
X653Y2413D01*
X3722Y2413D02*
X3745Y2413D01*
X630Y2412D02*
X653Y2412D01*
X3722Y2412D02*
X3745Y2412D01*
X630Y2411D02*
X653Y2411D01*
X3722Y2411D02*
X3745Y2411D01*
X630Y2410D02*
X653Y2410D01*
X3722Y2410D02*
X3745Y2410D01*
X630Y2409D02*
X653Y2409D01*
X3722Y2409D02*
X3745Y2409D01*
X630Y2408D02*
X653Y2408D01*
X3722Y2408D02*
X3745Y2408D01*
X630Y2407D02*
X653Y2407D01*
X3722Y2407D02*
X3745Y2407D01*
X630Y2406D02*
X653Y2406D01*
X3722Y2406D02*
X3745Y2406D01*
X630Y2405D02*
X653Y2405D01*
X3722Y2405D02*
X3745Y2405D01*
X630Y2404D02*
X653Y2404D01*
X3722Y2404D02*
X3745Y2404D01*
X630Y2403D02*
X653Y2403D01*
X3722Y2403D02*
X3745Y2403D01*
X630Y2402D02*
X653Y2402D01*
X3722Y2402D02*
X3745Y2402D01*
X630Y2401D02*
X653Y2401D01*
X3722Y2401D02*
X3745Y2401D01*
X630Y2400D02*
X653Y2400D01*
X3722Y2400D02*
X3745Y2400D01*
X630Y2399D02*
X653Y2399D01*
X3722Y2399D02*
X3745Y2399D01*
X630Y2398D02*
X653Y2398D01*
X3722Y2398D02*
X3745Y2398D01*
X630Y2397D02*
X653Y2397D01*
X3722Y2397D02*
X3745Y2397D01*
X630Y2396D02*
X653Y2396D01*
X3722Y2396D02*
X3745Y2396D01*
X630Y2395D02*
X653Y2395D01*
X3722Y2395D02*
X3745Y2395D01*
X630Y2394D02*
X653Y2394D01*
X3722Y2394D02*
X3745Y2394D01*
X630Y2393D02*
X653Y2393D01*
X3722Y2393D02*
X3745Y2393D01*
X630Y2392D02*
X653Y2392D01*
X3722Y2392D02*
X3745Y2392D01*
X630Y2391D02*
X653Y2391D01*
X3722Y2391D02*
X3745Y2391D01*
X630Y2390D02*
X653Y2390D01*
X3722Y2390D02*
X3745Y2390D01*
X630Y2389D02*
X653Y2389D01*
X3722Y2389D02*
X3745Y2389D01*
X630Y2388D02*
X653Y2388D01*
X3722Y2388D02*
X3745Y2388D01*
X630Y2387D02*
X653Y2387D01*
X3722Y2387D02*
X3745Y2387D01*
X630Y2386D02*
X653Y2386D01*
X3722Y2386D02*
X3745Y2386D01*
X630Y2385D02*
X653Y2385D01*
X3722Y2385D02*
X3745Y2385D01*
X630Y2384D02*
X653Y2384D01*
X3722Y2384D02*
X3745Y2384D01*
X630Y2383D02*
X653Y2383D01*
X3722Y2383D02*
X3745Y2383D01*
X630Y2382D02*
X653Y2382D01*
X3722Y2382D02*
X3745Y2382D01*
X630Y2381D02*
X653Y2381D01*
X3722Y2381D02*
X3745Y2381D01*
X630Y2380D02*
X653Y2380D01*
X3722Y2380D02*
X3745Y2380D01*
X630Y2379D02*
X653Y2379D01*
X3722Y2379D02*
X3745Y2379D01*
X630Y2378D02*
X653Y2378D01*
X3722Y2378D02*
X3745Y2378D01*
X630Y2377D02*
X653Y2377D01*
X3722Y2377D02*
X3745Y2377D01*
X630Y2376D02*
X653Y2376D01*
X3722Y2376D02*
X3745Y2376D01*
X630Y2375D02*
X653Y2375D01*
X3722Y2375D02*
X3745Y2375D01*
X630Y2374D02*
X653Y2374D01*
X3722Y2374D02*
X3745Y2374D01*
X630Y2373D02*
X653Y2373D01*
X3722Y2373D02*
X3745Y2373D01*
X630Y2372D02*
X653Y2372D01*
X3722Y2372D02*
X3745Y2372D01*
X630Y2371D02*
X653Y2371D01*
X3722Y2371D02*
X3745Y2371D01*
X630Y2370D02*
X653Y2370D01*
X3722Y2370D02*
X3745Y2370D01*
X630Y2369D02*
X653Y2369D01*
X3722Y2369D02*
X3745Y2369D01*
X630Y2368D02*
X653Y2368D01*
X3722Y2368D02*
X3745Y2368D01*
X630Y2367D02*
X653Y2367D01*
X3722Y2367D02*
X3745Y2367D01*
X630Y2366D02*
X653Y2366D01*
X3722Y2366D02*
X3745Y2366D01*
X630Y2365D02*
X653Y2365D01*
X3722Y2365D02*
X3745Y2365D01*
X630Y2364D02*
X653Y2364D01*
X3722Y2364D02*
X3745Y2364D01*
X630Y2363D02*
X653Y2363D01*
X3722Y2363D02*
X3745Y2363D01*
X630Y2362D02*
X653Y2362D01*
X3722Y2362D02*
X3745Y2362D01*
X630Y2361D02*
X653Y2361D01*
X3722Y2361D02*
X3745Y2361D01*
X630Y2360D02*
X653Y2360D01*
X3722Y2360D02*
X3745Y2360D01*
X630Y2359D02*
X653Y2359D01*
X3722Y2359D02*
X3745Y2359D01*
X630Y2358D02*
X653Y2358D01*
X3722Y2358D02*
X3745Y2358D01*
X630Y2357D02*
X653Y2357D01*
X3722Y2357D02*
X3745Y2357D01*
X630Y2356D02*
X653Y2356D01*
X3722Y2356D02*
X3745Y2356D01*
X630Y2355D02*
X653Y2355D01*
X3722Y2355D02*
X3745Y2355D01*
X630Y2354D02*
X653Y2354D01*
X3722Y2354D02*
X3745Y2354D01*
X630Y2353D02*
X653Y2353D01*
X3722Y2353D02*
X3745Y2353D01*
X630Y2352D02*
X653Y2352D01*
X3722Y2352D02*
X3745Y2352D01*
X630Y2351D02*
X653Y2351D01*
X3722Y2351D02*
X3745Y2351D01*
X630Y2350D02*
X653Y2350D01*
X3722Y2350D02*
X3745Y2350D01*
X630Y2349D02*
X653Y2349D01*
X3722Y2349D02*
X3745Y2349D01*
X630Y2348D02*
X653Y2348D01*
X3722Y2348D02*
X3745Y2348D01*
X630Y2347D02*
X653Y2347D01*
X3722Y2347D02*
X3745Y2347D01*
X630Y2346D02*
X653Y2346D01*
X3722Y2346D02*
X3745Y2346D01*
X630Y2345D02*
X653Y2345D01*
X3722Y2345D02*
X3745Y2345D01*
X630Y2344D02*
X653Y2344D01*
X3722Y2344D02*
X3745Y2344D01*
X630Y2343D02*
X653Y2343D01*
X3722Y2343D02*
X3745Y2343D01*
X630Y2342D02*
X653Y2342D01*
X3722Y2342D02*
X3745Y2342D01*
X630Y2341D02*
X653Y2341D01*
X3722Y2341D02*
X3745Y2341D01*
X630Y2340D02*
X653Y2340D01*
X3722Y2340D02*
X3744Y2340D01*
X630Y2339D02*
X653Y2339D01*
X3721Y2339D02*
X3744Y2339D01*
X630Y2338D02*
X653Y2338D01*
X3721Y2338D02*
X3744Y2338D01*
X630Y2337D02*
X653Y2337D01*
X3721Y2337D02*
X3744Y2337D01*
X630Y2336D02*
X653Y2336D01*
X3721Y2336D02*
X3744Y2336D01*
X630Y2335D02*
X653Y2335D01*
X3721Y2335D02*
X3744Y2335D01*
X630Y2334D02*
X653Y2334D01*
X3721Y2334D02*
X3744Y2334D01*
X630Y2333D02*
X653Y2333D01*
X3721Y2333D02*
X3744Y2333D01*
X630Y2332D02*
X653Y2332D01*
X3721Y2332D02*
X3744Y2332D01*
X630Y2331D02*
X653Y2331D01*
X3721Y2331D02*
X3744Y2331D01*
X630Y2330D02*
X653Y2330D01*
X3721Y2330D02*
X3744Y2330D01*
X630Y2329D02*
X653Y2329D01*
X3721Y2329D02*
X3744Y2329D01*
X630Y2328D02*
X653Y2328D01*
X3721Y2328D02*
X3744Y2328D01*
X630Y2327D02*
X653Y2327D01*
X3721Y2327D02*
X3744Y2327D01*
X630Y2326D02*
X653Y2326D01*
X3721Y2326D02*
X3744Y2326D01*
X630Y2325D02*
X653Y2325D01*
X3721Y2325D02*
X3744Y2325D01*
X630Y2324D02*
X653Y2324D01*
X3721Y2324D02*
X3744Y2324D01*
X630Y2323D02*
X653Y2323D01*
X3721Y2323D02*
X3744Y2323D01*
X630Y2322D02*
X653Y2322D01*
X3721Y2322D02*
X3744Y2322D01*
X630Y2321D02*
X653Y2321D01*
X3721Y2321D02*
X3744Y2321D01*
X630Y2320D02*
X653Y2320D01*
X3721Y2320D02*
X3744Y2320D01*
X630Y2319D02*
X653Y2319D01*
X3721Y2319D02*
X3744Y2319D01*
X630Y2318D02*
X653Y2318D01*
X3721Y2318D02*
X3744Y2318D01*
X630Y2317D02*
X653Y2317D01*
X3721Y2317D02*
X3744Y2317D01*
X630Y2316D02*
X653Y2316D01*
X3721Y2316D02*
X3744Y2316D01*
X630Y2315D02*
X653Y2315D01*
X3721Y2315D02*
X3744Y2315D01*
X630Y2314D02*
X653Y2314D01*
X3721Y2314D02*
X3744Y2314D01*
X630Y2313D02*
X653Y2313D01*
X3721Y2313D02*
X3744Y2313D01*
X630Y2312D02*
X653Y2312D01*
X3721Y2312D02*
X3744Y2312D01*
X630Y2311D02*
X653Y2311D01*
X3721Y2311D02*
X3744Y2311D01*
X630Y2310D02*
X653Y2310D01*
X3721Y2310D02*
X3744Y2310D01*
X630Y2309D02*
X653Y2309D01*
X3721Y2309D02*
X3744Y2309D01*
X630Y2308D02*
X653Y2308D01*
X3721Y2308D02*
X3744Y2308D01*
X630Y2307D02*
X653Y2307D01*
X3721Y2307D02*
X3744Y2307D01*
X630Y2306D02*
X653Y2306D01*
X3721Y2306D02*
X3744Y2306D01*
X630Y2305D02*
X653Y2305D01*
X3721Y2305D02*
X3744Y2305D01*
X630Y2304D02*
X653Y2304D01*
X3721Y2304D02*
X3744Y2304D01*
X630Y2303D02*
X653Y2303D01*
X3721Y2303D02*
X3744Y2303D01*
X630Y2302D02*
X653Y2302D01*
X3721Y2302D02*
X3744Y2302D01*
X630Y2301D02*
X653Y2301D01*
X3721Y2301D02*
X3744Y2301D01*
X630Y2300D02*
X653Y2300D01*
X3721Y2300D02*
X3744Y2300D01*
X630Y2299D02*
X653Y2299D01*
X3721Y2299D02*
X3744Y2299D01*
X630Y2298D02*
X653Y2298D01*
X3721Y2298D02*
X3744Y2298D01*
X630Y2297D02*
X653Y2297D01*
X3721Y2297D02*
X3744Y2297D01*
X630Y2296D02*
X653Y2296D01*
X3721Y2296D02*
X3744Y2296D01*
X630Y2295D02*
X653Y2295D01*
X3721Y2295D02*
X3744Y2295D01*
X630Y2294D02*
X653Y2294D01*
X3721Y2294D02*
X3744Y2294D01*
X630Y2293D02*
X653Y2293D01*
X3721Y2293D02*
X3744Y2293D01*
X630Y2292D02*
X653Y2292D01*
X3721Y2292D02*
X3744Y2292D01*
X630Y2291D02*
X653Y2291D01*
X3721Y2291D02*
X3744Y2291D01*
X630Y2290D02*
X653Y2290D01*
X3721Y2290D02*
X3744Y2290D01*
X630Y2289D02*
X653Y2289D01*
X3721Y2289D02*
X3744Y2289D01*
X630Y2288D02*
X653Y2288D01*
X3721Y2288D02*
X3744Y2288D01*
X630Y2287D02*
X653Y2287D01*
X3721Y2287D02*
X3744Y2287D01*
X630Y2286D02*
X653Y2286D01*
X3721Y2286D02*
X3744Y2286D01*
X630Y2285D02*
X653Y2285D01*
X3721Y2285D02*
X3744Y2285D01*
X630Y2284D02*
X653Y2284D01*
X3721Y2284D02*
X3744Y2284D01*
X630Y2283D02*
X653Y2283D01*
X3721Y2283D02*
X3744Y2283D01*
X630Y2282D02*
X653Y2282D01*
X3721Y2282D02*
X3744Y2282D01*
X630Y2281D02*
X653Y2281D01*
X3721Y2281D02*
X3744Y2281D01*
X630Y2280D02*
X653Y2280D01*
X3721Y2280D02*
X3744Y2280D01*
X630Y2279D02*
X653Y2279D01*
X3721Y2279D02*
X3744Y2279D01*
X630Y2278D02*
X653Y2278D01*
X3721Y2278D02*
X3744Y2278D01*
X630Y2277D02*
X653Y2277D01*
X3721Y2277D02*
X3744Y2277D01*
X630Y2276D02*
X653Y2276D01*
X3721Y2276D02*
X3744Y2276D01*
X630Y2275D02*
X653Y2275D01*
X3721Y2275D02*
X3744Y2275D01*
X630Y2274D02*
X653Y2274D01*
X3721Y2274D02*
X3744Y2274D01*
X630Y2273D02*
X653Y2273D01*
X3721Y2273D02*
X3744Y2273D01*
X630Y2272D02*
X653Y2272D01*
X3721Y2272D02*
X3744Y2272D01*
X630Y2271D02*
X653Y2271D01*
X3721Y2271D02*
X3744Y2271D01*
X630Y2270D02*
X653Y2270D01*
X3721Y2270D02*
X3744Y2270D01*
X630Y2269D02*
X653Y2269D01*
X3721Y2269D02*
X3744Y2269D01*
X630Y2268D02*
X653Y2268D01*
X3721Y2268D02*
X3744Y2268D01*
X630Y2267D02*
X653Y2267D01*
X3721Y2267D02*
X3744Y2267D01*
X630Y2266D02*
X653Y2266D01*
X3721Y2266D02*
X3744Y2266D01*
X630Y2265D02*
X653Y2265D01*
X3721Y2265D02*
X3744Y2265D01*
X630Y2264D02*
X653Y2264D01*
X3721Y2264D02*
X3744Y2264D01*
X630Y2263D02*
X653Y2263D01*
X3721Y2263D02*
X3744Y2263D01*
X630Y2262D02*
X653Y2262D01*
X3721Y2262D02*
X3744Y2262D01*
X630Y2261D02*
X653Y2261D01*
X3721Y2261D02*
X3744Y2261D01*
X630Y2260D02*
X653Y2260D01*
X3721Y2260D02*
X3744Y2260D01*
X630Y2259D02*
X653Y2259D01*
X3721Y2259D02*
X3744Y2259D01*
X630Y2258D02*
X653Y2258D01*
X3721Y2258D02*
X3744Y2258D01*
X630Y2257D02*
X653Y2257D01*
X3721Y2257D02*
X3744Y2257D01*
X630Y2256D02*
X653Y2256D01*
X3721Y2256D02*
X3744Y2256D01*
X630Y2255D02*
X653Y2255D01*
X3721Y2255D02*
X3744Y2255D01*
X630Y2254D02*
X653Y2254D01*
X3721Y2254D02*
X3744Y2254D01*
X630Y2253D02*
X653Y2253D01*
X3721Y2253D02*
X3744Y2253D01*
X630Y2252D02*
X653Y2252D01*
X3721Y2252D02*
X3744Y2252D01*
X630Y2251D02*
X653Y2251D01*
X3721Y2251D02*
X3744Y2251D01*
X630Y2250D02*
X653Y2250D01*
X3721Y2250D02*
X3744Y2250D01*
X630Y2249D02*
X653Y2249D01*
X3721Y2249D02*
X3744Y2249D01*
X630Y2248D02*
X653Y2248D01*
X3721Y2248D02*
X3744Y2248D01*
X630Y2247D02*
X653Y2247D01*
X3721Y2247D02*
X3744Y2247D01*
X630Y2246D02*
X653Y2246D01*
X3721Y2246D02*
X3744Y2246D01*
X630Y2245D02*
X653Y2245D01*
X3721Y2245D02*
X3744Y2245D01*
X630Y2244D02*
X653Y2244D01*
X3721Y2244D02*
X3744Y2244D01*
X630Y2243D02*
X653Y2243D01*
X3721Y2243D02*
X3744Y2243D01*
X630Y2242D02*
X653Y2242D01*
X3721Y2242D02*
X3744Y2242D01*
X630Y2241D02*
X653Y2241D01*
X3721Y2241D02*
X3744Y2241D01*
X630Y2240D02*
X653Y2240D01*
X3721Y2240D02*
X3744Y2240D01*
X630Y2239D02*
X653Y2239D01*
X3721Y2239D02*
X3744Y2239D01*
X630Y2238D02*
X653Y2238D01*
X3721Y2238D02*
X3744Y2238D01*
X630Y2237D02*
X653Y2237D01*
X3721Y2237D02*
X3744Y2237D01*
X630Y2236D02*
X653Y2236D01*
X3721Y2236D02*
X3744Y2236D01*
X630Y2235D02*
X653Y2235D01*
X3721Y2235D02*
X3744Y2235D01*
X630Y2234D02*
X653Y2234D01*
X3721Y2234D02*
X3744Y2234D01*
X630Y2233D02*
X653Y2233D01*
X3721Y2233D02*
X3744Y2233D01*
X630Y2232D02*
X653Y2232D01*
X3721Y2232D02*
X3744Y2232D01*
X630Y2231D02*
X653Y2231D01*
X3721Y2231D02*
X3744Y2231D01*
X630Y2230D02*
X653Y2230D01*
X3721Y2230D02*
X3744Y2230D01*
X630Y2229D02*
X653Y2229D01*
X3721Y2229D02*
X3744Y2229D01*
X630Y2228D02*
X653Y2228D01*
X3721Y2228D02*
X3744Y2228D01*
X630Y2227D02*
X653Y2227D01*
X3721Y2227D02*
X3744Y2227D01*
X630Y2226D02*
X653Y2226D01*
X3721Y2226D02*
X3744Y2226D01*
X630Y2225D02*
X653Y2225D01*
X3721Y2225D02*
X3744Y2225D01*
X630Y2224D02*
X653Y2224D01*
X3721Y2224D02*
X3744Y2224D01*
X630Y2223D02*
X653Y2223D01*
X3721Y2223D02*
X3744Y2223D01*
X630Y2222D02*
X653Y2222D01*
X3721Y2222D02*
X3744Y2222D01*
X630Y2221D02*
X653Y2221D01*
X3721Y2221D02*
X3744Y2221D01*
X630Y2220D02*
X653Y2220D01*
X3721Y2220D02*
X3744Y2220D01*
X630Y2219D02*
X653Y2219D01*
X3721Y2219D02*
X3744Y2219D01*
X630Y2218D02*
X653Y2218D01*
X3721Y2218D02*
X3744Y2218D01*
X630Y2217D02*
X653Y2217D01*
X3721Y2217D02*
X3744Y2217D01*
X630Y2216D02*
X653Y2216D01*
X3721Y2216D02*
X3744Y2216D01*
X630Y2215D02*
X653Y2215D01*
X3721Y2215D02*
X3744Y2215D01*
X630Y2214D02*
X653Y2214D01*
X3721Y2214D02*
X3744Y2214D01*
X630Y2213D02*
X653Y2213D01*
X3721Y2213D02*
X3744Y2213D01*
X630Y2212D02*
X653Y2212D01*
X3721Y2212D02*
X3744Y2212D01*
X630Y2211D02*
X653Y2211D01*
X3721Y2211D02*
X3744Y2211D01*
X630Y2210D02*
X653Y2210D01*
X3721Y2210D02*
X3744Y2210D01*
X630Y2209D02*
X653Y2209D01*
X3721Y2209D02*
X3744Y2209D01*
X630Y2208D02*
X653Y2208D01*
X3721Y2208D02*
X3744Y2208D01*
X630Y2207D02*
X653Y2207D01*
X3721Y2207D02*
X3744Y2207D01*
X630Y2206D02*
X653Y2206D01*
X3721Y2206D02*
X3744Y2206D01*
X630Y2205D02*
X653Y2205D01*
X3721Y2205D02*
X3744Y2205D01*
X630Y2204D02*
X653Y2204D01*
X3721Y2204D02*
X3744Y2204D01*
X630Y2203D02*
X653Y2203D01*
X3721Y2203D02*
X3744Y2203D01*
X630Y2202D02*
X653Y2202D01*
X3721Y2202D02*
X3744Y2202D01*
X630Y2201D02*
X653Y2201D01*
X3721Y2201D02*
X3744Y2201D01*
X630Y2200D02*
X653Y2200D01*
X3721Y2200D02*
X3744Y2200D01*
X630Y2199D02*
X653Y2199D01*
X3721Y2199D02*
X3744Y2199D01*
X630Y2198D02*
X653Y2198D01*
X3721Y2198D02*
X3744Y2198D01*
X630Y2197D02*
X653Y2197D01*
X3721Y2197D02*
X3744Y2197D01*
X630Y2196D02*
X653Y2196D01*
X3721Y2196D02*
X3744Y2196D01*
X630Y2195D02*
X653Y2195D01*
X3721Y2195D02*
X3744Y2195D01*
X630Y2194D02*
X653Y2194D01*
X3721Y2194D02*
X3744Y2194D01*
X630Y2193D02*
X653Y2193D01*
X3721Y2193D02*
X3744Y2193D01*
X630Y2192D02*
X653Y2192D01*
X3721Y2192D02*
X3744Y2192D01*
X630Y2191D02*
X653Y2191D01*
X3721Y2191D02*
X3744Y2191D01*
X630Y2190D02*
X653Y2190D01*
X3721Y2190D02*
X3744Y2190D01*
X630Y2189D02*
X653Y2189D01*
X3721Y2189D02*
X3744Y2189D01*
X630Y2188D02*
X653Y2188D01*
X3721Y2188D02*
X3744Y2188D01*
X630Y2187D02*
X653Y2187D01*
X3721Y2187D02*
X3744Y2187D01*
X630Y2186D02*
X653Y2186D01*
X3721Y2186D02*
X3744Y2186D01*
X630Y2185D02*
X653Y2185D01*
X3721Y2185D02*
X3744Y2185D01*
X630Y2184D02*
X653Y2184D01*
X3721Y2184D02*
X3744Y2184D01*
X630Y2183D02*
X653Y2183D01*
X3721Y2183D02*
X3744Y2183D01*
X630Y2182D02*
X653Y2182D01*
X3721Y2182D02*
X3744Y2182D01*
X630Y2181D02*
X653Y2181D01*
X3721Y2181D02*
X3744Y2181D01*
X630Y2180D02*
X653Y2180D01*
X3721Y2180D02*
X3744Y2180D01*
X630Y2179D02*
X653Y2179D01*
X3721Y2179D02*
X3744Y2179D01*
X630Y2178D02*
X653Y2178D01*
X3721Y2178D02*
X3744Y2178D01*
X630Y2177D02*
X653Y2177D01*
X3721Y2177D02*
X3744Y2177D01*
X630Y2176D02*
X653Y2176D01*
X3721Y2176D02*
X3744Y2176D01*
X630Y2175D02*
X653Y2175D01*
X3721Y2175D02*
X3744Y2175D01*
X630Y2174D02*
X653Y2174D01*
X3721Y2174D02*
X3744Y2174D01*
X630Y2173D02*
X653Y2173D01*
X3721Y2173D02*
X3744Y2173D01*
X630Y2172D02*
X653Y2172D01*
X3721Y2172D02*
X3744Y2172D01*
X630Y2171D02*
X653Y2171D01*
X3721Y2171D02*
X3744Y2171D01*
X630Y2170D02*
X653Y2170D01*
X3721Y2170D02*
X3744Y2170D01*
X630Y2169D02*
X653Y2169D01*
X3721Y2169D02*
X3744Y2169D01*
X630Y2168D02*
X653Y2168D01*
X3721Y2168D02*
X3744Y2168D01*
X630Y2167D02*
X653Y2167D01*
X3721Y2167D02*
X3744Y2167D01*
X630Y2166D02*
X653Y2166D01*
X3721Y2166D02*
X3744Y2166D01*
X630Y2165D02*
X653Y2165D01*
X3721Y2165D02*
X3744Y2165D01*
X630Y2164D02*
X653Y2164D01*
X3721Y2164D02*
X3744Y2164D01*
X630Y2163D02*
X653Y2163D01*
X3721Y2163D02*
X3744Y2163D01*
X630Y2162D02*
X653Y2162D01*
X3721Y2162D02*
X3743Y2162D01*
X630Y2161D02*
X653Y2161D01*
X3721Y2161D02*
X3743Y2161D01*
X630Y2160D02*
X653Y2160D01*
X3721Y2160D02*
X3743Y2160D01*
X630Y2159D02*
X653Y2159D01*
X3721Y2159D02*
X3743Y2159D01*
X630Y2158D02*
X653Y2158D01*
X3721Y2158D02*
X3743Y2158D01*
X630Y2157D02*
X653Y2157D01*
X3721Y2157D02*
X3743Y2157D01*
X630Y2156D02*
X653Y2156D01*
X3720Y2156D02*
X3743Y2156D01*
X630Y2155D02*
X653Y2155D01*
X3720Y2155D02*
X3743Y2155D01*
X630Y2154D02*
X653Y2154D01*
X3720Y2154D02*
X3743Y2154D01*
X630Y2153D02*
X653Y2153D01*
X3720Y2153D02*
X3743Y2153D01*
X630Y2152D02*
X653Y2152D01*
X3720Y2152D02*
X3743Y2152D01*
X630Y2151D02*
X653Y2151D01*
X3720Y2151D02*
X3743Y2151D01*
X630Y2150D02*
X653Y2150D01*
X3720Y2150D02*
X3743Y2150D01*
X630Y2149D02*
X653Y2149D01*
X3720Y2149D02*
X3743Y2149D01*
X630Y2148D02*
X653Y2148D01*
X3720Y2148D02*
X3743Y2148D01*
X630Y2147D02*
X653Y2147D01*
X3720Y2147D02*
X3743Y2147D01*
X630Y2146D02*
X653Y2146D01*
X3720Y2146D02*
X3743Y2146D01*
X630Y2145D02*
X653Y2145D01*
X3720Y2145D02*
X3743Y2145D01*
X630Y2144D02*
X653Y2144D01*
X3720Y2144D02*
X3743Y2144D01*
X630Y2143D02*
X653Y2143D01*
X3720Y2143D02*
X3743Y2143D01*
X630Y2142D02*
X653Y2142D01*
X3720Y2142D02*
X3743Y2142D01*
X630Y2141D02*
X653Y2141D01*
X3720Y2141D02*
X3743Y2141D01*
X630Y2140D02*
X653Y2140D01*
X3720Y2140D02*
X3743Y2140D01*
X630Y2139D02*
X653Y2139D01*
X3720Y2139D02*
X3743Y2139D01*
X630Y2138D02*
X653Y2138D01*
X3720Y2138D02*
X3743Y2138D01*
X630Y2137D02*
X653Y2137D01*
X3720Y2137D02*
X3743Y2137D01*
X630Y2136D02*
X653Y2136D01*
X3720Y2136D02*
X3743Y2136D01*
X630Y2135D02*
X653Y2135D01*
X3720Y2135D02*
X3743Y2135D01*
X630Y2134D02*
X653Y2134D01*
X3720Y2134D02*
X3743Y2134D01*
X630Y2133D02*
X653Y2133D01*
X3720Y2133D02*
X3743Y2133D01*
X630Y2132D02*
X653Y2132D01*
X3720Y2132D02*
X3743Y2132D01*
X630Y2131D02*
X653Y2131D01*
X3720Y2131D02*
X3743Y2131D01*
X630Y2130D02*
X653Y2130D01*
X3720Y2130D02*
X3743Y2130D01*
X630Y2129D02*
X653Y2129D01*
X3720Y2129D02*
X3743Y2129D01*
X630Y2128D02*
X653Y2128D01*
X3720Y2128D02*
X3743Y2128D01*
X630Y2127D02*
X653Y2127D01*
X3720Y2127D02*
X3743Y2127D01*
X630Y2126D02*
X653Y2126D01*
X3720Y2126D02*
X3743Y2126D01*
X630Y2125D02*
X653Y2125D01*
X3720Y2125D02*
X3743Y2125D01*
X630Y2124D02*
X653Y2124D01*
X3720Y2124D02*
X3743Y2124D01*
X630Y2123D02*
X653Y2123D01*
X3720Y2123D02*
X3743Y2123D01*
X630Y2122D02*
X653Y2122D01*
X3720Y2122D02*
X3743Y2122D01*
X630Y2121D02*
X653Y2121D01*
X3720Y2121D02*
X3743Y2121D01*
X630Y2120D02*
X653Y2120D01*
X3720Y2120D02*
X3743Y2120D01*
X630Y2119D02*
X653Y2119D01*
X3720Y2119D02*
X3743Y2119D01*
X630Y2118D02*
X653Y2118D01*
X3720Y2118D02*
X3743Y2118D01*
X630Y2117D02*
X653Y2117D01*
X3720Y2117D02*
X3743Y2117D01*
X630Y2116D02*
X653Y2116D01*
X3720Y2116D02*
X3743Y2116D01*
X630Y2115D02*
X653Y2115D01*
X3720Y2115D02*
X3743Y2115D01*
X630Y2114D02*
X653Y2114D01*
X3720Y2114D02*
X3743Y2114D01*
X630Y2113D02*
X653Y2113D01*
X3720Y2113D02*
X3743Y2113D01*
X630Y2112D02*
X653Y2112D01*
X3720Y2112D02*
X3743Y2112D01*
X630Y2111D02*
X653Y2111D01*
X3720Y2111D02*
X3743Y2111D01*
X630Y2110D02*
X653Y2110D01*
X3720Y2110D02*
X3743Y2110D01*
X630Y2109D02*
X653Y2109D01*
X3720Y2109D02*
X3743Y2109D01*
X630Y2108D02*
X653Y2108D01*
X3720Y2108D02*
X3743Y2108D01*
X630Y2107D02*
X653Y2107D01*
X3720Y2107D02*
X3743Y2107D01*
X630Y2106D02*
X653Y2106D01*
X3720Y2106D02*
X3743Y2106D01*
X630Y2105D02*
X653Y2105D01*
X3720Y2105D02*
X3743Y2105D01*
X630Y2104D02*
X653Y2104D01*
X3720Y2104D02*
X3743Y2104D01*
X630Y2103D02*
X653Y2103D01*
X3720Y2103D02*
X3743Y2103D01*
X630Y2102D02*
X653Y2102D01*
X3720Y2102D02*
X3743Y2102D01*
X630Y2101D02*
X653Y2101D01*
X3720Y2101D02*
X3743Y2101D01*
X630Y2100D02*
X653Y2100D01*
X3720Y2100D02*
X3743Y2100D01*
X630Y2099D02*
X653Y2099D01*
X3720Y2099D02*
X3743Y2099D01*
X630Y2098D02*
X653Y2098D01*
X3720Y2098D02*
X3743Y2098D01*
X630Y2097D02*
X653Y2097D01*
X3720Y2097D02*
X3743Y2097D01*
X630Y2096D02*
X653Y2096D01*
X3720Y2096D02*
X3743Y2096D01*
X630Y2095D02*
X653Y2095D01*
X3720Y2095D02*
X3743Y2095D01*
X630Y2094D02*
X653Y2094D01*
X3720Y2094D02*
X3743Y2094D01*
X630Y2093D02*
X653Y2093D01*
X3720Y2093D02*
X3743Y2093D01*
X630Y2092D02*
X653Y2092D01*
X3720Y2092D02*
X3743Y2092D01*
X630Y2091D02*
X653Y2091D01*
X3720Y2091D02*
X3743Y2091D01*
X630Y2090D02*
X653Y2090D01*
X3720Y2090D02*
X3743Y2090D01*
X630Y2089D02*
X653Y2089D01*
X3720Y2089D02*
X3743Y2089D01*
X630Y2088D02*
X653Y2088D01*
X3720Y2088D02*
X3743Y2088D01*
X630Y2087D02*
X653Y2087D01*
X3720Y2087D02*
X3743Y2087D01*
X630Y2086D02*
X653Y2086D01*
X3720Y2086D02*
X3743Y2086D01*
X630Y2085D02*
X653Y2085D01*
X3720Y2085D02*
X3743Y2085D01*
X630Y2084D02*
X653Y2084D01*
X3720Y2084D02*
X3743Y2084D01*
X630Y2083D02*
X653Y2083D01*
X3720Y2083D02*
X3743Y2083D01*
X630Y2082D02*
X653Y2082D01*
X3720Y2082D02*
X3743Y2082D01*
X630Y2081D02*
X653Y2081D01*
X3720Y2081D02*
X3743Y2081D01*
X630Y2080D02*
X653Y2080D01*
X3720Y2080D02*
X3743Y2080D01*
X630Y2079D02*
X653Y2079D01*
X3720Y2079D02*
X3743Y2079D01*
X630Y2078D02*
X653Y2078D01*
X3720Y2078D02*
X3743Y2078D01*
X630Y2077D02*
X653Y2077D01*
X3720Y2077D02*
X3743Y2077D01*
X630Y2076D02*
X653Y2076D01*
X3720Y2076D02*
X3743Y2076D01*
X630Y2075D02*
X653Y2075D01*
X3720Y2075D02*
X3743Y2075D01*
X630Y2074D02*
X653Y2074D01*
X3720Y2074D02*
X3743Y2074D01*
X630Y2073D02*
X653Y2073D01*
X3720Y2073D02*
X3743Y2073D01*
X630Y2072D02*
X653Y2072D01*
X3720Y2072D02*
X3743Y2072D01*
X630Y2071D02*
X653Y2071D01*
X3720Y2071D02*
X3743Y2071D01*
X630Y2070D02*
X653Y2070D01*
X3720Y2070D02*
X3743Y2070D01*
X630Y2069D02*
X653Y2069D01*
X3720Y2069D02*
X3743Y2069D01*
X630Y2068D02*
X653Y2068D01*
X3720Y2068D02*
X3743Y2068D01*
X630Y2067D02*
X653Y2067D01*
X3720Y2067D02*
X3743Y2067D01*
X630Y2066D02*
X653Y2066D01*
X3720Y2066D02*
X3743Y2066D01*
X630Y2065D02*
X653Y2065D01*
X3720Y2065D02*
X3743Y2065D01*
X630Y2064D02*
X653Y2064D01*
X3720Y2064D02*
X3743Y2064D01*
X630Y2063D02*
X653Y2063D01*
X3720Y2063D02*
X3743Y2063D01*
X630Y2062D02*
X653Y2062D01*
X3720Y2062D02*
X3743Y2062D01*
X630Y2061D02*
X653Y2061D01*
X3720Y2061D02*
X3743Y2061D01*
X630Y2060D02*
X653Y2060D01*
X3720Y2060D02*
X3743Y2060D01*
X630Y2059D02*
X653Y2059D01*
X3720Y2059D02*
X3743Y2059D01*
X630Y2058D02*
X653Y2058D01*
X3720Y2058D02*
X3743Y2058D01*
X630Y2057D02*
X653Y2057D01*
X3720Y2057D02*
X3743Y2057D01*
X630Y2056D02*
X653Y2056D01*
X3720Y2056D02*
X3743Y2056D01*
X630Y2055D02*
X653Y2055D01*
X3720Y2055D02*
X3743Y2055D01*
X630Y2054D02*
X653Y2054D01*
X3720Y2054D02*
X3743Y2054D01*
X630Y2053D02*
X653Y2053D01*
X3720Y2053D02*
X3743Y2053D01*
X630Y2052D02*
X653Y2052D01*
X3720Y2052D02*
X3743Y2052D01*
X630Y2051D02*
X653Y2051D01*
X3720Y2051D02*
X3743Y2051D01*
X630Y2050D02*
X653Y2050D01*
X3720Y2050D02*
X3743Y2050D01*
X630Y2049D02*
X653Y2049D01*
X3720Y2049D02*
X3743Y2049D01*
X630Y2048D02*
X653Y2048D01*
X3720Y2048D02*
X3743Y2048D01*
X630Y2047D02*
X653Y2047D01*
X3720Y2047D02*
X3743Y2047D01*
X630Y2046D02*
X653Y2046D01*
X3720Y2046D02*
X3743Y2046D01*
X630Y2045D02*
X653Y2045D01*
X3720Y2045D02*
X3743Y2045D01*
X630Y2044D02*
X653Y2044D01*
X3720Y2044D02*
X3743Y2044D01*
X630Y2043D02*
X653Y2043D01*
X3720Y2043D02*
X3743Y2043D01*
X630Y2042D02*
X653Y2042D01*
X3720Y2042D02*
X3743Y2042D01*
X630Y2041D02*
X653Y2041D01*
X3720Y2041D02*
X3743Y2041D01*
X630Y2040D02*
X653Y2040D01*
X3720Y2040D02*
X3743Y2040D01*
X630Y2039D02*
X653Y2039D01*
X3720Y2039D02*
X3743Y2039D01*
X630Y2038D02*
X653Y2038D01*
X3720Y2038D02*
X3743Y2038D01*
X630Y2037D02*
X653Y2037D01*
X3720Y2037D02*
X3743Y2037D01*
X630Y2036D02*
X653Y2036D01*
X3720Y2036D02*
X3743Y2036D01*
X630Y2035D02*
X653Y2035D01*
X3720Y2035D02*
X3743Y2035D01*
X630Y2034D02*
X653Y2034D01*
X3720Y2034D02*
X3743Y2034D01*
X630Y2033D02*
X653Y2033D01*
X3720Y2033D02*
X3743Y2033D01*
X630Y2032D02*
X653Y2032D01*
X3720Y2032D02*
X3743Y2032D01*
X630Y2031D02*
X653Y2031D01*
X3720Y2031D02*
X3743Y2031D01*
X630Y2030D02*
X653Y2030D01*
X3720Y2030D02*
X3743Y2030D01*
X630Y2029D02*
X653Y2029D01*
X3720Y2029D02*
X3743Y2029D01*
X630Y2028D02*
X653Y2028D01*
X3720Y2028D02*
X3743Y2028D01*
X630Y2027D02*
X653Y2027D01*
X3720Y2027D02*
X3743Y2027D01*
X630Y2026D02*
X653Y2026D01*
X3720Y2026D02*
X3743Y2026D01*
X630Y2025D02*
X653Y2025D01*
X3720Y2025D02*
X3743Y2025D01*
X630Y2024D02*
X653Y2024D01*
X3720Y2024D02*
X3743Y2024D01*
X630Y2023D02*
X653Y2023D01*
X3720Y2023D02*
X3743Y2023D01*
X630Y2022D02*
X653Y2022D01*
X3720Y2022D02*
X3743Y2022D01*
X630Y2021D02*
X653Y2021D01*
X3720Y2021D02*
X3743Y2021D01*
X630Y2020D02*
X653Y2020D01*
X3720Y2020D02*
X3743Y2020D01*
X630Y2019D02*
X653Y2019D01*
X3720Y2019D02*
X3743Y2019D01*
X630Y2018D02*
X653Y2018D01*
X3720Y2018D02*
X3743Y2018D01*
X630Y2017D02*
X653Y2017D01*
X3720Y2017D02*
X3743Y2017D01*
X630Y2016D02*
X653Y2016D01*
X3720Y2016D02*
X3743Y2016D01*
X630Y2015D02*
X653Y2015D01*
X3720Y2015D02*
X3743Y2015D01*
X630Y2014D02*
X653Y2014D01*
X3720Y2014D02*
X3743Y2014D01*
X630Y2013D02*
X653Y2013D01*
X3720Y2013D02*
X3743Y2013D01*
X630Y2012D02*
X653Y2012D01*
X3720Y2012D02*
X3743Y2012D01*
X630Y2011D02*
X653Y2011D01*
X3720Y2011D02*
X3743Y2011D01*
X630Y2010D02*
X653Y2010D01*
X3720Y2010D02*
X3743Y2010D01*
X630Y2009D02*
X653Y2009D01*
X3720Y2009D02*
X3743Y2009D01*
X630Y2008D02*
X653Y2008D01*
X3720Y2008D02*
X3743Y2008D01*
X630Y2007D02*
X653Y2007D01*
X3720Y2007D02*
X3743Y2007D01*
X630Y2006D02*
X653Y2006D01*
X3720Y2006D02*
X3743Y2006D01*
X630Y2005D02*
X653Y2005D01*
X3720Y2005D02*
X3743Y2005D01*
X630Y2004D02*
X653Y2004D01*
X3720Y2004D02*
X3743Y2004D01*
X630Y2003D02*
X653Y2003D01*
X3720Y2003D02*
X3743Y2003D01*
X630Y2002D02*
X653Y2002D01*
X3720Y2002D02*
X3743Y2002D01*
X630Y2001D02*
X653Y2001D01*
X3720Y2001D02*
X3743Y2001D01*
X630Y2000D02*
X653Y2000D01*
X3720Y2000D02*
X3743Y2000D01*
X630Y1999D02*
X653Y1999D01*
X3720Y1999D02*
X3743Y1999D01*
X630Y1998D02*
X653Y1998D01*
X3720Y1998D02*
X3743Y1998D01*
X630Y1997D02*
X653Y1997D01*
X3720Y1997D02*
X3743Y1997D01*
X630Y1996D02*
X653Y1996D01*
X3720Y1996D02*
X3743Y1996D01*
X630Y1995D02*
X653Y1995D01*
X3720Y1995D02*
X3743Y1995D01*
X630Y1994D02*
X653Y1994D01*
X3720Y1994D02*
X3743Y1994D01*
X630Y1993D02*
X653Y1993D01*
X3720Y1993D02*
X3743Y1993D01*
X630Y1992D02*
X653Y1992D01*
X3720Y1992D02*
X3743Y1992D01*
X630Y1991D02*
X653Y1991D01*
X3720Y1991D02*
X3743Y1991D01*
X630Y1990D02*
X653Y1990D01*
X3720Y1990D02*
X3743Y1990D01*
X630Y1989D02*
X653Y1989D01*
X3720Y1989D02*
X3743Y1989D01*
X630Y1988D02*
X653Y1988D01*
X3720Y1988D02*
X3743Y1988D01*
X630Y1987D02*
X653Y1987D01*
X3720Y1987D02*
X3743Y1987D01*
X630Y1986D02*
X653Y1986D01*
X3720Y1986D02*
X3743Y1986D01*
X630Y1985D02*
X653Y1985D01*
X3720Y1985D02*
X3743Y1985D01*
X630Y1984D02*
X653Y1984D01*
X3720Y1984D02*
X3743Y1984D01*
X630Y1983D02*
X653Y1983D01*
X3720Y1983D02*
X3743Y1983D01*
X630Y1982D02*
X653Y1982D01*
X3720Y1982D02*
X3743Y1982D01*
X630Y1981D02*
X653Y1981D01*
X3720Y1981D02*
X3743Y1981D01*
X630Y1980D02*
X653Y1980D01*
X3720Y1980D02*
X3743Y1980D01*
X630Y1979D02*
X653Y1979D01*
X3720Y1979D02*
X3743Y1979D01*
X630Y1978D02*
X653Y1978D01*
X3720Y1978D02*
X3743Y1978D01*
X630Y1977D02*
X653Y1977D01*
X3720Y1977D02*
X3743Y1977D01*
X630Y1976D02*
X653Y1976D01*
X3720Y1976D02*
X3743Y1976D01*
X630Y1975D02*
X653Y1975D01*
X3720Y1975D02*
X3743Y1975D01*
X630Y1974D02*
X653Y1974D01*
X3720Y1974D02*
X3743Y1974D01*
X630Y1973D02*
X653Y1973D01*
X3720Y1973D02*
X3743Y1973D01*
X630Y1972D02*
X653Y1972D01*
X3720Y1972D02*
X3743Y1972D01*
X630Y1971D02*
X653Y1971D01*
X3720Y1971D02*
X3743Y1971D01*
X630Y1970D02*
X653Y1970D01*
X3720Y1970D02*
X3743Y1970D01*
X630Y1969D02*
X653Y1969D01*
X3720Y1969D02*
X3743Y1969D01*
X630Y1968D02*
X653Y1968D01*
X3720Y1968D02*
X3743Y1968D01*
X630Y1967D02*
X653Y1967D01*
X3720Y1967D02*
X3743Y1967D01*
X630Y1966D02*
X653Y1966D01*
X3720Y1966D02*
X3743Y1966D01*
X630Y1965D02*
X653Y1965D01*
X3720Y1965D02*
X3743Y1965D01*
X630Y1964D02*
X653Y1964D01*
X3720Y1964D02*
X3743Y1964D01*
X630Y1963D02*
X653Y1963D01*
X3720Y1963D02*
X3743Y1963D01*
X630Y1962D02*
X653Y1962D01*
X3720Y1962D02*
X3743Y1962D01*
X630Y1961D02*
X653Y1961D01*
X3720Y1961D02*
X3743Y1961D01*
X630Y1960D02*
X653Y1960D01*
X3720Y1960D02*
X3743Y1960D01*
X630Y1959D02*
X653Y1959D01*
X3720Y1959D02*
X3743Y1959D01*
X630Y1958D02*
X653Y1958D01*
X3720Y1958D02*
X3743Y1958D01*
X630Y1957D02*
X653Y1957D01*
X3720Y1957D02*
X3743Y1957D01*
X630Y1956D02*
X653Y1956D01*
X3720Y1956D02*
X3743Y1956D01*
X630Y1955D02*
X653Y1955D01*
X3720Y1955D02*
X3743Y1955D01*
X630Y1954D02*
X653Y1954D01*
X3720Y1954D02*
X3743Y1954D01*
X630Y1953D02*
X653Y1953D01*
X3720Y1953D02*
X3743Y1953D01*
X630Y1952D02*
X653Y1952D01*
X3720Y1952D02*
X3743Y1952D01*
X630Y1951D02*
X653Y1951D01*
X3720Y1951D02*
X3743Y1951D01*
X630Y1950D02*
X653Y1950D01*
X3720Y1950D02*
X3743Y1950D01*
X630Y1949D02*
X653Y1949D01*
X3720Y1949D02*
X3743Y1949D01*
X630Y1948D02*
X653Y1948D01*
X3720Y1948D02*
X3743Y1948D01*
X630Y1947D02*
X653Y1947D01*
X3720Y1947D02*
X3743Y1947D01*
X630Y1946D02*
X653Y1946D01*
X3720Y1946D02*
X3743Y1946D01*
X630Y1945D02*
X653Y1945D01*
X3720Y1945D02*
X3743Y1945D01*
X630Y1944D02*
X653Y1944D01*
X3720Y1944D02*
X3743Y1944D01*
X630Y1943D02*
X653Y1943D01*
X3720Y1943D02*
X3743Y1943D01*
X630Y1942D02*
X653Y1942D01*
X3720Y1942D02*
X3743Y1942D01*
X630Y1941D02*
X653Y1941D01*
X3720Y1941D02*
X3743Y1941D01*
X630Y1940D02*
X653Y1940D01*
X3720Y1940D02*
X3743Y1940D01*
X630Y1939D02*
X653Y1939D01*
X3720Y1939D02*
X3743Y1939D01*
X630Y1938D02*
X653Y1938D01*
X3720Y1938D02*
X3743Y1938D01*
X630Y1937D02*
X653Y1937D01*
X3720Y1937D02*
X3743Y1937D01*
X630Y1936D02*
X653Y1936D01*
X3720Y1936D02*
X3743Y1936D01*
X630Y1935D02*
X653Y1935D01*
X3720Y1935D02*
X3743Y1935D01*
X630Y1934D02*
X653Y1934D01*
X3720Y1934D02*
X3743Y1934D01*
X630Y1933D02*
X653Y1933D01*
X3720Y1933D02*
X3743Y1933D01*
X630Y1932D02*
X653Y1932D01*
X3720Y1932D02*
X3743Y1932D01*
X630Y1931D02*
X653Y1931D01*
X3720Y1931D02*
X3743Y1931D01*
X630Y1930D02*
X653Y1930D01*
X3720Y1930D02*
X3743Y1930D01*
X630Y1929D02*
X653Y1929D01*
X3720Y1929D02*
X3743Y1929D01*
X630Y1928D02*
X653Y1928D01*
X3720Y1928D02*
X3743Y1928D01*
X630Y1927D02*
X653Y1927D01*
X3720Y1927D02*
X3743Y1927D01*
X630Y1926D02*
X653Y1926D01*
X3720Y1926D02*
X3743Y1926D01*
X630Y1925D02*
X653Y1925D01*
X3720Y1925D02*
X3743Y1925D01*
X630Y1924D02*
X653Y1924D01*
X3720Y1924D02*
X3743Y1924D01*
X630Y1923D02*
X653Y1923D01*
X3720Y1923D02*
X3743Y1923D01*
X630Y1922D02*
X653Y1922D01*
X3720Y1922D02*
X3743Y1922D01*
X630Y1921D02*
X653Y1921D01*
X3720Y1921D02*
X3743Y1921D01*
X630Y1920D02*
X653Y1920D01*
X3720Y1920D02*
X3743Y1920D01*
X630Y1919D02*
X653Y1919D01*
X3720Y1919D02*
X3743Y1919D01*
X630Y1918D02*
X653Y1918D01*
X3720Y1918D02*
X3743Y1918D01*
X630Y1917D02*
X653Y1917D01*
X3720Y1917D02*
X3743Y1917D01*
X630Y1916D02*
X653Y1916D01*
X3720Y1916D02*
X3743Y1916D01*
X630Y1915D02*
X653Y1915D01*
X3720Y1915D02*
X3743Y1915D01*
X630Y1914D02*
X653Y1914D01*
X3720Y1914D02*
X3743Y1914D01*
X630Y1913D02*
X653Y1913D01*
X3720Y1913D02*
X3743Y1913D01*
X630Y1912D02*
X653Y1912D01*
X3720Y1912D02*
X3743Y1912D01*
X630Y1911D02*
X653Y1911D01*
X3720Y1911D02*
X3743Y1911D01*
X630Y1910D02*
X653Y1910D01*
X3720Y1910D02*
X3743Y1910D01*
X630Y1909D02*
X653Y1909D01*
X3720Y1909D02*
X3743Y1909D01*
X630Y1908D02*
X653Y1908D01*
X3720Y1908D02*
X3743Y1908D01*
X630Y1907D02*
X653Y1907D01*
X3720Y1907D02*
X3743Y1907D01*
X630Y1906D02*
X653Y1906D01*
X3720Y1906D02*
X3743Y1906D01*
X630Y1905D02*
X653Y1905D01*
X3720Y1905D02*
X3743Y1905D01*
X630Y1904D02*
X653Y1904D01*
X3720Y1904D02*
X3743Y1904D01*
X630Y1903D02*
X653Y1903D01*
X3720Y1903D02*
X3743Y1903D01*
X630Y1902D02*
X653Y1902D01*
X3720Y1902D02*
X3743Y1902D01*
X630Y1901D02*
X653Y1901D01*
X3720Y1901D02*
X3743Y1901D01*
X630Y1900D02*
X653Y1900D01*
X3720Y1900D02*
X3743Y1900D01*
X630Y1899D02*
X653Y1899D01*
X3720Y1899D02*
X3743Y1899D01*
X630Y1898D02*
X653Y1898D01*
X3720Y1898D02*
X3743Y1898D01*
X630Y1897D02*
X653Y1897D01*
X3720Y1897D02*
X3743Y1897D01*
X630Y1896D02*
X653Y1896D01*
X3720Y1896D02*
X3743Y1896D01*
X630Y1895D02*
X653Y1895D01*
X3720Y1895D02*
X3743Y1895D01*
X630Y1894D02*
X653Y1894D01*
X3720Y1894D02*
X3743Y1894D01*
X630Y1893D02*
X653Y1893D01*
X3720Y1893D02*
X3743Y1893D01*
X630Y1892D02*
X653Y1892D01*
X3720Y1892D02*
X3743Y1892D01*
X630Y1891D02*
X653Y1891D01*
X3720Y1891D02*
X3743Y1891D01*
X630Y1890D02*
X653Y1890D01*
X3720Y1890D02*
X3743Y1890D01*
X630Y1889D02*
X653Y1889D01*
X3720Y1889D02*
X3743Y1889D01*
X630Y1888D02*
X653Y1888D01*
X3720Y1888D02*
X3743Y1888D01*
X630Y1887D02*
X653Y1887D01*
X3720Y1887D02*
X3743Y1887D01*
X630Y1886D02*
X653Y1886D01*
X3720Y1886D02*
X3743Y1886D01*
X630Y1885D02*
X653Y1885D01*
X3720Y1885D02*
X3743Y1885D01*
X630Y1884D02*
X653Y1884D01*
X3720Y1884D02*
X3743Y1884D01*
X630Y1883D02*
X653Y1883D01*
X3720Y1883D02*
X3743Y1883D01*
X630Y1882D02*
X653Y1882D01*
X3720Y1882D02*
X3743Y1882D01*
X630Y1881D02*
X653Y1881D01*
X3721Y1881D02*
X3743Y1881D01*
X630Y1880D02*
X653Y1880D01*
X3721Y1880D02*
X3743Y1880D01*
X630Y1879D02*
X653Y1879D01*
X3721Y1879D02*
X3743Y1879D01*
X630Y1878D02*
X653Y1878D01*
X3721Y1878D02*
X3743Y1878D01*
X630Y1877D02*
X653Y1877D01*
X3721Y1877D02*
X3744Y1877D01*
X630Y1876D02*
X653Y1876D01*
X3721Y1876D02*
X3744Y1876D01*
X630Y1875D02*
X653Y1875D01*
X3721Y1875D02*
X3744Y1875D01*
X630Y1874D02*
X653Y1874D01*
X3721Y1874D02*
X3744Y1874D01*
X630Y1873D02*
X653Y1873D01*
X3721Y1873D02*
X3744Y1873D01*
X630Y1872D02*
X653Y1872D01*
X3721Y1872D02*
X3744Y1872D01*
X630Y1871D02*
X653Y1871D01*
X3721Y1871D02*
X3744Y1871D01*
X630Y1870D02*
X653Y1870D01*
X3721Y1870D02*
X3744Y1870D01*
X630Y1869D02*
X653Y1869D01*
X3721Y1869D02*
X3744Y1869D01*
X630Y1868D02*
X653Y1868D01*
X3721Y1868D02*
X3744Y1868D01*
X630Y1867D02*
X653Y1867D01*
X3721Y1867D02*
X3744Y1867D01*
X630Y1866D02*
X653Y1866D01*
X3721Y1866D02*
X3744Y1866D01*
X630Y1865D02*
X653Y1865D01*
X3721Y1865D02*
X3744Y1865D01*
X630Y1864D02*
X653Y1864D01*
X3721Y1864D02*
X3744Y1864D01*
X630Y1863D02*
X653Y1863D01*
X3721Y1863D02*
X3744Y1863D01*
X630Y1862D02*
X653Y1862D01*
X3721Y1862D02*
X3744Y1862D01*
X630Y1861D02*
X653Y1861D01*
X3721Y1861D02*
X3744Y1861D01*
X630Y1860D02*
X653Y1860D01*
X3721Y1860D02*
X3744Y1860D01*
X630Y1859D02*
X653Y1859D01*
X3721Y1859D02*
X3744Y1859D01*
X630Y1858D02*
X653Y1858D01*
X3721Y1858D02*
X3744Y1858D01*
X630Y1857D02*
X653Y1857D01*
X3721Y1857D02*
X3744Y1857D01*
X630Y1856D02*
X653Y1856D01*
X3721Y1856D02*
X3744Y1856D01*
X630Y1855D02*
X653Y1855D01*
X3721Y1855D02*
X3744Y1855D01*
X630Y1854D02*
X653Y1854D01*
X3721Y1854D02*
X3744Y1854D01*
X630Y1853D02*
X653Y1853D01*
X3721Y1853D02*
X3744Y1853D01*
X630Y1852D02*
X653Y1852D01*
X3721Y1852D02*
X3744Y1852D01*
X630Y1851D02*
X653Y1851D01*
X3721Y1851D02*
X3744Y1851D01*
X630Y1850D02*
X653Y1850D01*
X3721Y1850D02*
X3744Y1850D01*
X630Y1849D02*
X653Y1849D01*
X3721Y1849D02*
X3744Y1849D01*
X630Y1848D02*
X653Y1848D01*
X3721Y1848D02*
X3744Y1848D01*
X630Y1847D02*
X653Y1847D01*
X3721Y1847D02*
X3744Y1847D01*
X630Y1846D02*
X653Y1846D01*
X3721Y1846D02*
X3744Y1846D01*
X630Y1845D02*
X653Y1845D01*
X3721Y1845D02*
X3744Y1845D01*
X630Y1844D02*
X653Y1844D01*
X3721Y1844D02*
X3744Y1844D01*
X630Y1843D02*
X653Y1843D01*
X3721Y1843D02*
X3744Y1843D01*
X630Y1842D02*
X653Y1842D01*
X3721Y1842D02*
X3744Y1842D01*
X630Y1841D02*
X653Y1841D01*
X3721Y1841D02*
X3744Y1841D01*
X630Y1840D02*
X653Y1840D01*
X3721Y1840D02*
X3744Y1840D01*
X630Y1839D02*
X653Y1839D01*
X3721Y1839D02*
X3744Y1839D01*
X630Y1838D02*
X653Y1838D01*
X3721Y1838D02*
X3744Y1838D01*
X630Y1837D02*
X653Y1837D01*
X3721Y1837D02*
X3744Y1837D01*
X630Y1836D02*
X653Y1836D01*
X3721Y1836D02*
X3744Y1836D01*
X630Y1835D02*
X653Y1835D01*
X3721Y1835D02*
X3744Y1835D01*
X630Y1834D02*
X653Y1834D01*
X3721Y1834D02*
X3744Y1834D01*
X630Y1833D02*
X653Y1833D01*
X3721Y1833D02*
X3744Y1833D01*
X630Y1832D02*
X653Y1832D01*
X3721Y1832D02*
X3744Y1832D01*
X630Y1831D02*
X653Y1831D01*
X3721Y1831D02*
X3744Y1831D01*
X630Y1830D02*
X653Y1830D01*
X3721Y1830D02*
X3744Y1830D01*
X630Y1829D02*
X653Y1829D01*
X3721Y1829D02*
X3744Y1829D01*
X630Y1828D02*
X653Y1828D01*
X3721Y1828D02*
X3744Y1828D01*
X630Y1827D02*
X653Y1827D01*
X3721Y1827D02*
X3744Y1827D01*
X630Y1826D02*
X653Y1826D01*
X3721Y1826D02*
X3744Y1826D01*
X630Y1825D02*
X653Y1825D01*
X3721Y1825D02*
X3744Y1825D01*
X630Y1824D02*
X653Y1824D01*
X3721Y1824D02*
X3744Y1824D01*
X630Y1823D02*
X653Y1823D01*
X3721Y1823D02*
X3744Y1823D01*
X630Y1822D02*
X653Y1822D01*
X3721Y1822D02*
X3744Y1822D01*
X630Y1821D02*
X653Y1821D01*
X3721Y1821D02*
X3744Y1821D01*
X630Y1820D02*
X653Y1820D01*
X3721Y1820D02*
X3744Y1820D01*
X630Y1819D02*
X653Y1819D01*
X3721Y1819D02*
X3744Y1819D01*
X630Y1818D02*
X653Y1818D01*
X3721Y1818D02*
X3744Y1818D01*
X630Y1817D02*
X653Y1817D01*
X3721Y1817D02*
X3744Y1817D01*
X630Y1816D02*
X653Y1816D01*
X3721Y1816D02*
X3744Y1816D01*
X630Y1815D02*
X653Y1815D01*
X3721Y1815D02*
X3744Y1815D01*
X630Y1814D02*
X653Y1814D01*
X3721Y1814D02*
X3744Y1814D01*
X630Y1813D02*
X653Y1813D01*
X3721Y1813D02*
X3744Y1813D01*
X630Y1812D02*
X653Y1812D01*
X3721Y1812D02*
X3744Y1812D01*
X630Y1811D02*
X653Y1811D01*
X3721Y1811D02*
X3744Y1811D01*
X630Y1810D02*
X653Y1810D01*
X3721Y1810D02*
X3744Y1810D01*
X630Y1809D02*
X653Y1809D01*
X3721Y1809D02*
X3744Y1809D01*
X630Y1808D02*
X653Y1808D01*
X3721Y1808D02*
X3744Y1808D01*
X630Y1807D02*
X653Y1807D01*
X3721Y1807D02*
X3744Y1807D01*
X630Y1806D02*
X653Y1806D01*
X3721Y1806D02*
X3744Y1806D01*
X630Y1805D02*
X653Y1805D01*
X3721Y1805D02*
X3744Y1805D01*
X630Y1804D02*
X653Y1804D01*
X3721Y1804D02*
X3744Y1804D01*
X630Y1803D02*
X653Y1803D01*
X3721Y1803D02*
X3744Y1803D01*
X630Y1802D02*
X653Y1802D01*
X3721Y1802D02*
X3744Y1802D01*
X630Y1801D02*
X653Y1801D01*
X3721Y1801D02*
X3744Y1801D01*
X630Y1800D02*
X653Y1800D01*
X3721Y1800D02*
X3744Y1800D01*
X630Y1799D02*
X653Y1799D01*
X3721Y1799D02*
X3744Y1799D01*
X630Y1798D02*
X653Y1798D01*
X3721Y1798D02*
X3744Y1798D01*
X630Y1797D02*
X653Y1797D01*
X3721Y1797D02*
X3744Y1797D01*
X630Y1796D02*
X653Y1796D01*
X3721Y1796D02*
X3744Y1796D01*
X630Y1795D02*
X653Y1795D01*
X3721Y1795D02*
X3744Y1795D01*
X630Y1794D02*
X653Y1794D01*
X3721Y1794D02*
X3744Y1794D01*
X630Y1793D02*
X653Y1793D01*
X3721Y1793D02*
X3744Y1793D01*
X630Y1792D02*
X653Y1792D01*
X3721Y1792D02*
X3744Y1792D01*
X630Y1791D02*
X653Y1791D01*
X3721Y1791D02*
X3744Y1791D01*
X630Y1790D02*
X653Y1790D01*
X3721Y1790D02*
X3744Y1790D01*
X630Y1789D02*
X653Y1789D01*
X3721Y1789D02*
X3744Y1789D01*
X630Y1788D02*
X653Y1788D01*
X3721Y1788D02*
X3744Y1788D01*
X630Y1787D02*
X653Y1787D01*
X3721Y1787D02*
X3744Y1787D01*
X630Y1786D02*
X653Y1786D01*
X3721Y1786D02*
X3744Y1786D01*
X630Y1785D02*
X653Y1785D01*
X3721Y1785D02*
X3744Y1785D01*
X630Y1784D02*
X653Y1784D01*
X3721Y1784D02*
X3744Y1784D01*
X630Y1783D02*
X653Y1783D01*
X3721Y1783D02*
X3744Y1783D01*
X630Y1782D02*
X653Y1782D01*
X3721Y1782D02*
X3744Y1782D01*
X630Y1781D02*
X653Y1781D01*
X3721Y1781D02*
X3744Y1781D01*
X630Y1780D02*
X653Y1780D01*
X3721Y1780D02*
X3744Y1780D01*
X630Y1779D02*
X653Y1779D01*
X3721Y1779D02*
X3744Y1779D01*
X630Y1778D02*
X653Y1778D01*
X3721Y1778D02*
X3744Y1778D01*
X630Y1777D02*
X653Y1777D01*
X3721Y1777D02*
X3744Y1777D01*
X630Y1776D02*
X653Y1776D01*
X3721Y1776D02*
X3744Y1776D01*
X630Y1775D02*
X653Y1775D01*
X3721Y1775D02*
X3744Y1775D01*
X630Y1774D02*
X653Y1774D01*
X3721Y1774D02*
X3744Y1774D01*
X630Y1773D02*
X653Y1773D01*
X3721Y1773D02*
X3744Y1773D01*
X630Y1772D02*
X653Y1772D01*
X3721Y1772D02*
X3744Y1772D01*
X630Y1771D02*
X653Y1771D01*
X3721Y1771D02*
X3744Y1771D01*
X630Y1770D02*
X653Y1770D01*
X3721Y1770D02*
X3744Y1770D01*
X630Y1769D02*
X653Y1769D01*
X3721Y1769D02*
X3744Y1769D01*
X630Y1768D02*
X653Y1768D01*
X3721Y1768D02*
X3744Y1768D01*
X630Y1767D02*
X653Y1767D01*
X3721Y1767D02*
X3744Y1767D01*
X630Y1766D02*
X653Y1766D01*
X3721Y1766D02*
X3744Y1766D01*
X630Y1765D02*
X653Y1765D01*
X3721Y1765D02*
X3744Y1765D01*
X630Y1764D02*
X653Y1764D01*
X3721Y1764D02*
X3744Y1764D01*
X630Y1763D02*
X653Y1763D01*
X3721Y1763D02*
X3744Y1763D01*
X630Y1762D02*
X653Y1762D01*
X3721Y1762D02*
X3744Y1762D01*
X630Y1761D02*
X653Y1761D01*
X3721Y1761D02*
X3744Y1761D01*
X630Y1760D02*
X653Y1760D01*
X3721Y1760D02*
X3744Y1760D01*
X630Y1759D02*
X653Y1759D01*
X3721Y1759D02*
X3744Y1759D01*
X630Y1758D02*
X653Y1758D01*
X3721Y1758D02*
X3744Y1758D01*
X630Y1757D02*
X653Y1757D01*
X3721Y1757D02*
X3744Y1757D01*
X630Y1756D02*
X653Y1756D01*
X3721Y1756D02*
X3744Y1756D01*
X630Y1755D02*
X653Y1755D01*
X3721Y1755D02*
X3744Y1755D01*
X630Y1754D02*
X653Y1754D01*
X3721Y1754D02*
X3744Y1754D01*
X630Y1753D02*
X653Y1753D01*
X3721Y1753D02*
X3744Y1753D01*
X630Y1752D02*
X653Y1752D01*
X3721Y1752D02*
X3744Y1752D01*
X630Y1751D02*
X653Y1751D01*
X3721Y1751D02*
X3744Y1751D01*
X630Y1750D02*
X653Y1750D01*
X3721Y1750D02*
X3744Y1750D01*
X630Y1749D02*
X653Y1749D01*
X3721Y1749D02*
X3744Y1749D01*
X630Y1748D02*
X653Y1748D01*
X3721Y1748D02*
X3744Y1748D01*
X630Y1747D02*
X653Y1747D01*
X3721Y1747D02*
X3744Y1747D01*
X630Y1746D02*
X653Y1746D01*
X3721Y1746D02*
X3744Y1746D01*
X630Y1745D02*
X653Y1745D01*
X3721Y1745D02*
X3744Y1745D01*
X630Y1744D02*
X653Y1744D01*
X3721Y1744D02*
X3744Y1744D01*
X630Y1743D02*
X653Y1743D01*
X3721Y1743D02*
X3744Y1743D01*
X630Y1742D02*
X653Y1742D01*
X3721Y1742D02*
X3744Y1742D01*
X630Y1741D02*
X653Y1741D01*
X3721Y1741D02*
X3744Y1741D01*
X630Y1740D02*
X653Y1740D01*
X3721Y1740D02*
X3744Y1740D01*
X630Y1739D02*
X653Y1739D01*
X3721Y1739D02*
X3744Y1739D01*
X630Y1738D02*
X653Y1738D01*
X3721Y1738D02*
X3744Y1738D01*
X630Y1737D02*
X653Y1737D01*
X3721Y1737D02*
X3744Y1737D01*
X630Y1736D02*
X653Y1736D01*
X3721Y1736D02*
X3744Y1736D01*
X630Y1735D02*
X653Y1735D01*
X3721Y1735D02*
X3744Y1735D01*
X630Y1734D02*
X653Y1734D01*
X3721Y1734D02*
X3744Y1734D01*
X630Y1733D02*
X653Y1733D01*
X3721Y1733D02*
X3744Y1733D01*
X630Y1732D02*
X653Y1732D01*
X3721Y1732D02*
X3744Y1732D01*
X630Y1731D02*
X653Y1731D01*
X3721Y1731D02*
X3744Y1731D01*
X630Y1730D02*
X653Y1730D01*
X3721Y1730D02*
X3744Y1730D01*
X630Y1729D02*
X653Y1729D01*
X3721Y1729D02*
X3744Y1729D01*
X630Y1728D02*
X653Y1728D01*
X3721Y1728D02*
X3744Y1728D01*
X630Y1727D02*
X653Y1727D01*
X3721Y1727D02*
X3744Y1727D01*
X630Y1726D02*
X653Y1726D01*
X3721Y1726D02*
X3744Y1726D01*
X630Y1725D02*
X653Y1725D01*
X3721Y1725D02*
X3744Y1725D01*
X630Y1724D02*
X653Y1724D01*
X3721Y1724D02*
X3744Y1724D01*
X630Y1723D02*
X653Y1723D01*
X3721Y1723D02*
X3744Y1723D01*
X630Y1722D02*
X653Y1722D01*
X3721Y1722D02*
X3744Y1722D01*
X630Y1721D02*
X653Y1721D01*
X3721Y1721D02*
X3744Y1721D01*
X630Y1720D02*
X653Y1720D01*
X3721Y1720D02*
X3744Y1720D01*
X630Y1719D02*
X653Y1719D01*
X3721Y1719D02*
X3744Y1719D01*
X630Y1718D02*
X653Y1718D01*
X3721Y1718D02*
X3744Y1718D01*
X630Y1717D02*
X653Y1717D01*
X3721Y1717D02*
X3744Y1717D01*
X630Y1716D02*
X653Y1716D01*
X3721Y1716D02*
X3744Y1716D01*
X630Y1715D02*
X653Y1715D01*
X3721Y1715D02*
X3744Y1715D01*
X630Y1714D02*
X653Y1714D01*
X3721Y1714D02*
X3744Y1714D01*
X630Y1713D02*
X653Y1713D01*
X3721Y1713D02*
X3744Y1713D01*
X630Y1712D02*
X653Y1712D01*
X3721Y1712D02*
X3744Y1712D01*
X630Y1711D02*
X653Y1711D01*
X3721Y1711D02*
X3744Y1711D01*
X630Y1710D02*
X653Y1710D01*
X3721Y1710D02*
X3744Y1710D01*
X630Y1709D02*
X653Y1709D01*
X3721Y1709D02*
X3744Y1709D01*
X630Y1708D02*
X653Y1708D01*
X3721Y1708D02*
X3744Y1708D01*
X630Y1707D02*
X653Y1707D01*
X3721Y1707D02*
X3744Y1707D01*
X630Y1706D02*
X653Y1706D01*
X3721Y1706D02*
X3744Y1706D01*
X630Y1705D02*
X653Y1705D01*
X3721Y1705D02*
X3744Y1705D01*
X630Y1704D02*
X653Y1704D01*
X3721Y1704D02*
X3744Y1704D01*
X630Y1703D02*
X653Y1703D01*
X3721Y1703D02*
X3744Y1703D01*
X630Y1702D02*
X653Y1702D01*
X3721Y1702D02*
X3744Y1702D01*
X630Y1701D02*
X653Y1701D01*
X3721Y1701D02*
X3744Y1701D01*
X630Y1700D02*
X653Y1700D01*
X3721Y1700D02*
X3744Y1700D01*
X630Y1699D02*
X653Y1699D01*
X3721Y1699D02*
X3744Y1699D01*
X630Y1698D02*
X653Y1698D01*
X3721Y1698D02*
X3744Y1698D01*
X630Y1697D02*
X653Y1697D01*
X3721Y1697D02*
X3744Y1697D01*
X630Y1696D02*
X653Y1696D01*
X3721Y1696D02*
X3744Y1696D01*
X630Y1695D02*
X653Y1695D01*
X3721Y1695D02*
X3744Y1695D01*
X630Y1694D02*
X653Y1694D01*
X3721Y1694D02*
X3744Y1694D01*
X630Y1693D02*
X653Y1693D01*
X3721Y1693D02*
X3744Y1693D01*
X630Y1692D02*
X653Y1692D01*
X3721Y1692D02*
X3744Y1692D01*
X630Y1691D02*
X653Y1691D01*
X3721Y1691D02*
X3744Y1691D01*
X630Y1690D02*
X653Y1690D01*
X3721Y1690D02*
X3744Y1690D01*
X630Y1689D02*
X653Y1689D01*
X3721Y1689D02*
X3744Y1689D01*
X630Y1688D02*
X653Y1688D01*
X3721Y1688D02*
X3744Y1688D01*
X630Y1687D02*
X653Y1687D01*
X3721Y1687D02*
X3744Y1687D01*
X630Y1686D02*
X653Y1686D01*
X3721Y1686D02*
X3744Y1686D01*
X630Y1685D02*
X653Y1685D01*
X3721Y1685D02*
X3744Y1685D01*
X630Y1684D02*
X653Y1684D01*
X3721Y1684D02*
X3744Y1684D01*
X630Y1683D02*
X653Y1683D01*
X3721Y1683D02*
X3744Y1683D01*
X630Y1682D02*
X653Y1682D01*
X3721Y1682D02*
X3744Y1682D01*
X630Y1681D02*
X653Y1681D01*
X3721Y1681D02*
X3744Y1681D01*
X630Y1680D02*
X653Y1680D01*
X3721Y1680D02*
X3744Y1680D01*
X630Y1679D02*
X653Y1679D01*
X3721Y1679D02*
X3744Y1679D01*
X630Y1678D02*
X653Y1678D01*
X3721Y1678D02*
X3744Y1678D01*
X630Y1677D02*
X653Y1677D01*
X3721Y1677D02*
X3744Y1677D01*
X630Y1676D02*
X653Y1676D01*
X3721Y1676D02*
X3744Y1676D01*
X630Y1675D02*
X653Y1675D01*
X3721Y1675D02*
X3744Y1675D01*
X630Y1674D02*
X653Y1674D01*
X3721Y1674D02*
X3744Y1674D01*
X630Y1673D02*
X653Y1673D01*
X3721Y1673D02*
X3744Y1673D01*
X630Y1672D02*
X653Y1672D01*
X3721Y1672D02*
X3744Y1672D01*
X630Y1671D02*
X653Y1671D01*
X3721Y1671D02*
X3744Y1671D01*
X630Y1670D02*
X653Y1670D01*
X3721Y1670D02*
X3744Y1670D01*
X630Y1669D02*
X653Y1669D01*
X3721Y1669D02*
X3744Y1669D01*
X630Y1668D02*
X653Y1668D01*
X3721Y1668D02*
X3744Y1668D01*
X630Y1667D02*
X653Y1667D01*
X3721Y1667D02*
X3744Y1667D01*
X630Y1666D02*
X653Y1666D01*
X3721Y1666D02*
X3744Y1666D01*
X630Y1665D02*
X653Y1665D01*
X3721Y1665D02*
X3744Y1665D01*
X630Y1664D02*
X653Y1664D01*
X3721Y1664D02*
X3744Y1664D01*
X630Y1663D02*
X653Y1663D01*
X3721Y1663D02*
X3744Y1663D01*
X630Y1662D02*
X653Y1662D01*
X3721Y1662D02*
X3744Y1662D01*
X630Y1661D02*
X653Y1661D01*
X3721Y1661D02*
X3744Y1661D01*
X630Y1660D02*
X653Y1660D01*
X3721Y1660D02*
X3744Y1660D01*
X630Y1659D02*
X653Y1659D01*
X3721Y1659D02*
X3744Y1659D01*
X630Y1658D02*
X653Y1658D01*
X3721Y1658D02*
X3744Y1658D01*
X630Y1657D02*
X653Y1657D01*
X3721Y1657D02*
X3744Y1657D01*
X630Y1656D02*
X653Y1656D01*
X3721Y1656D02*
X3744Y1656D01*
X630Y1655D02*
X653Y1655D01*
X3721Y1655D02*
X3744Y1655D01*
X630Y1654D02*
X653Y1654D01*
X3721Y1654D02*
X3744Y1654D01*
X630Y1653D02*
X653Y1653D01*
X3721Y1653D02*
X3744Y1653D01*
X630Y1652D02*
X653Y1652D01*
X3721Y1652D02*
X3744Y1652D01*
X630Y1651D02*
X653Y1651D01*
X3721Y1651D02*
X3744Y1651D01*
X630Y1650D02*
X653Y1650D01*
X3721Y1650D02*
X3744Y1650D01*
X630Y1649D02*
X653Y1649D01*
X3721Y1649D02*
X3744Y1649D01*
X630Y1648D02*
X653Y1648D01*
X3721Y1648D02*
X3744Y1648D01*
X630Y1647D02*
X653Y1647D01*
X3721Y1647D02*
X3744Y1647D01*
X630Y1646D02*
X653Y1646D01*
X3721Y1646D02*
X3744Y1646D01*
X630Y1645D02*
X653Y1645D01*
X3721Y1645D02*
X3744Y1645D01*
X630Y1644D02*
X653Y1644D01*
X3721Y1644D02*
X3744Y1644D01*
X630Y1643D02*
X653Y1643D01*
X3721Y1643D02*
X3744Y1643D01*
X630Y1642D02*
X653Y1642D01*
X3721Y1642D02*
X3744Y1642D01*
X630Y1641D02*
X653Y1641D01*
X3721Y1641D02*
X3744Y1641D01*
X630Y1640D02*
X653Y1640D01*
X3721Y1640D02*
X3744Y1640D01*
X630Y1639D02*
X653Y1639D01*
X3721Y1639D02*
X3744Y1639D01*
X630Y1638D02*
X653Y1638D01*
X3721Y1638D02*
X3744Y1638D01*
X630Y1637D02*
X653Y1637D01*
X3721Y1637D02*
X3744Y1637D01*
X630Y1636D02*
X653Y1636D01*
X3721Y1636D02*
X3744Y1636D01*
X630Y1635D02*
X653Y1635D01*
X3721Y1635D02*
X3744Y1635D01*
X630Y1634D02*
X653Y1634D01*
X3721Y1634D02*
X3744Y1634D01*
X630Y1633D02*
X653Y1633D01*
X3721Y1633D02*
X3744Y1633D01*
X630Y1632D02*
X653Y1632D01*
X3721Y1632D02*
X3744Y1632D01*
X630Y1631D02*
X653Y1631D01*
X3721Y1631D02*
X3744Y1631D01*
X630Y1630D02*
X653Y1630D01*
X3721Y1630D02*
X3744Y1630D01*
X630Y1629D02*
X653Y1629D01*
X3721Y1629D02*
X3744Y1629D01*
X630Y1628D02*
X653Y1628D01*
X3721Y1628D02*
X3744Y1628D01*
X630Y1627D02*
X653Y1627D01*
X3721Y1627D02*
X3744Y1627D01*
X630Y1626D02*
X653Y1626D01*
X3721Y1626D02*
X3744Y1626D01*
X630Y1625D02*
X653Y1625D01*
X3721Y1625D02*
X3744Y1625D01*
X630Y1624D02*
X653Y1624D01*
X3721Y1624D02*
X3744Y1624D01*
X630Y1623D02*
X653Y1623D01*
X3721Y1623D02*
X3744Y1623D01*
X630Y1622D02*
X653Y1622D01*
X3721Y1622D02*
X3744Y1622D01*
X630Y1621D02*
X653Y1621D01*
X3721Y1621D02*
X3744Y1621D01*
X630Y1620D02*
X653Y1620D01*
X3721Y1620D02*
X3744Y1620D01*
X630Y1619D02*
X653Y1619D01*
X3721Y1619D02*
X3744Y1619D01*
X630Y1618D02*
X653Y1618D01*
X3721Y1618D02*
X3744Y1618D01*
X630Y1617D02*
X653Y1617D01*
X3721Y1617D02*
X3744Y1617D01*
X630Y1616D02*
X653Y1616D01*
X3721Y1616D02*
X3744Y1616D01*
X630Y1615D02*
X653Y1615D01*
X3721Y1615D02*
X3744Y1615D01*
X630Y1614D02*
X653Y1614D01*
X3721Y1614D02*
X3744Y1614D01*
X630Y1613D02*
X653Y1613D01*
X3721Y1613D02*
X3744Y1613D01*
X630Y1612D02*
X653Y1612D01*
X3721Y1612D02*
X3744Y1612D01*
X630Y1611D02*
X653Y1611D01*
X3721Y1611D02*
X3744Y1611D01*
X630Y1610D02*
X653Y1610D01*
X3721Y1610D02*
X3744Y1610D01*
X630Y1609D02*
X653Y1609D01*
X3721Y1609D02*
X3744Y1609D01*
X630Y1608D02*
X653Y1608D01*
X3721Y1608D02*
X3744Y1608D01*
X630Y1607D02*
X653Y1607D01*
X3721Y1607D02*
X3744Y1607D01*
X630Y1606D02*
X653Y1606D01*
X3721Y1606D02*
X3744Y1606D01*
X630Y1605D02*
X653Y1605D01*
X3721Y1605D02*
X3744Y1605D01*
X630Y1604D02*
X653Y1604D01*
X3721Y1604D02*
X3744Y1604D01*
X630Y1603D02*
X653Y1603D01*
X3721Y1603D02*
X3744Y1603D01*
X630Y1602D02*
X653Y1602D01*
X3721Y1602D02*
X3744Y1602D01*
X630Y1601D02*
X653Y1601D01*
X3721Y1601D02*
X3744Y1601D01*
X630Y1600D02*
X653Y1600D01*
X3721Y1600D02*
X3744Y1600D01*
X630Y1599D02*
X653Y1599D01*
X3721Y1599D02*
X3744Y1599D01*
X630Y1598D02*
X653Y1598D01*
X3721Y1598D02*
X3744Y1598D01*
X630Y1597D02*
X653Y1597D01*
X3721Y1597D02*
X3744Y1597D01*
X630Y1596D02*
X653Y1596D01*
X3721Y1596D02*
X3744Y1596D01*
X630Y1595D02*
X653Y1595D01*
X3721Y1595D02*
X3744Y1595D01*
X630Y1594D02*
X653Y1594D01*
X3721Y1594D02*
X3744Y1594D01*
X630Y1593D02*
X653Y1593D01*
X3721Y1593D02*
X3744Y1593D01*
X630Y1592D02*
X653Y1592D01*
X3721Y1592D02*
X3744Y1592D01*
X630Y1591D02*
X653Y1591D01*
X3721Y1591D02*
X3744Y1591D01*
X630Y1590D02*
X653Y1590D01*
X3721Y1590D02*
X3744Y1590D01*
X630Y1589D02*
X653Y1589D01*
X3721Y1589D02*
X3744Y1589D01*
X630Y1588D02*
X653Y1588D01*
X3721Y1588D02*
X3744Y1588D01*
X630Y1587D02*
X653Y1587D01*
X3721Y1587D02*
X3744Y1587D01*
X630Y1586D02*
X653Y1586D01*
X3721Y1586D02*
X3744Y1586D01*
X630Y1585D02*
X653Y1585D01*
X3721Y1585D02*
X3744Y1585D01*
X630Y1584D02*
X653Y1584D01*
X3721Y1584D02*
X3744Y1584D01*
X630Y1583D02*
X653Y1583D01*
X3721Y1583D02*
X3744Y1583D01*
X630Y1582D02*
X653Y1582D01*
X3721Y1582D02*
X3744Y1582D01*
X630Y1581D02*
X653Y1581D01*
X3721Y1581D02*
X3744Y1581D01*
X630Y1580D02*
X653Y1580D01*
X3721Y1580D02*
X3744Y1580D01*
X630Y1579D02*
X653Y1579D01*
X3721Y1579D02*
X3744Y1579D01*
X630Y1578D02*
X653Y1578D01*
X3721Y1578D02*
X3744Y1578D01*
X630Y1577D02*
X653Y1577D01*
X3721Y1577D02*
X3744Y1577D01*
X630Y1576D02*
X653Y1576D01*
X3721Y1576D02*
X3744Y1576D01*
X630Y1575D02*
X653Y1575D01*
X3721Y1575D02*
X3744Y1575D01*
X630Y1574D02*
X653Y1574D01*
X3721Y1574D02*
X3744Y1574D01*
X630Y1573D02*
X653Y1573D01*
X3721Y1573D02*
X3744Y1573D01*
X630Y1572D02*
X653Y1572D01*
X3721Y1572D02*
X3744Y1572D01*
X630Y1571D02*
X653Y1571D01*
X3721Y1571D02*
X3744Y1571D01*
X630Y1570D02*
X653Y1570D01*
X3722Y1570D02*
X3744Y1570D01*
X630Y1569D02*
X653Y1569D01*
X3722Y1569D02*
X3744Y1569D01*
X630Y1568D02*
X653Y1568D01*
X3722Y1568D02*
X3745Y1568D01*
X630Y1567D02*
X653Y1567D01*
X3722Y1567D02*
X3745Y1567D01*
X630Y1566D02*
X653Y1566D01*
X3722Y1566D02*
X3745Y1566D01*
X630Y1565D02*
X653Y1565D01*
X3722Y1565D02*
X3745Y1565D01*
X630Y1564D02*
X653Y1564D01*
X3722Y1564D02*
X3745Y1564D01*
X630Y1563D02*
X653Y1563D01*
X3722Y1563D02*
X3745Y1563D01*
X630Y1562D02*
X653Y1562D01*
X3722Y1562D02*
X3745Y1562D01*
X630Y1561D02*
X653Y1561D01*
X3722Y1561D02*
X3745Y1561D01*
X630Y1560D02*
X653Y1560D01*
X3722Y1560D02*
X3745Y1560D01*
X630Y1559D02*
X653Y1559D01*
X3722Y1559D02*
X3745Y1559D01*
X630Y1558D02*
X653Y1558D01*
X3722Y1558D02*
X3745Y1558D01*
X630Y1557D02*
X653Y1557D01*
X3722Y1557D02*
X3745Y1557D01*
X630Y1556D02*
X653Y1556D01*
X3722Y1556D02*
X3745Y1556D01*
X630Y1555D02*
X653Y1555D01*
X3722Y1555D02*
X3745Y1555D01*
X630Y1554D02*
X653Y1554D01*
X3722Y1554D02*
X3745Y1554D01*
X630Y1553D02*
X653Y1553D01*
X3722Y1553D02*
X3745Y1553D01*
X630Y1552D02*
X653Y1552D01*
X3722Y1552D02*
X3745Y1552D01*
X630Y1551D02*
X653Y1551D01*
X3722Y1551D02*
X3745Y1551D01*
X630Y1550D02*
X653Y1550D01*
X3722Y1550D02*
X3745Y1550D01*
X630Y1549D02*
X653Y1549D01*
X3722Y1549D02*
X3745Y1549D01*
X630Y1548D02*
X653Y1548D01*
X3722Y1548D02*
X3745Y1548D01*
X630Y1547D02*
X653Y1547D01*
X3722Y1547D02*
X3745Y1547D01*
X630Y1546D02*
X653Y1546D01*
X3722Y1546D02*
X3745Y1546D01*
X630Y1545D02*
X653Y1545D01*
X3722Y1545D02*
X3745Y1545D01*
X630Y1544D02*
X653Y1544D01*
X3722Y1544D02*
X3745Y1544D01*
X630Y1543D02*
X653Y1543D01*
X3722Y1543D02*
X3745Y1543D01*
X630Y1542D02*
X653Y1542D01*
X3722Y1542D02*
X3745Y1542D01*
X630Y1541D02*
X653Y1541D01*
X3722Y1541D02*
X3745Y1541D01*
X630Y1540D02*
X653Y1540D01*
X3722Y1540D02*
X3745Y1540D01*
X630Y1539D02*
X653Y1539D01*
X3722Y1539D02*
X3745Y1539D01*
X630Y1538D02*
X653Y1538D01*
X3722Y1538D02*
X3745Y1538D01*
X630Y1537D02*
X653Y1537D01*
X3722Y1537D02*
X3745Y1537D01*
X630Y1536D02*
X653Y1536D01*
X3722Y1536D02*
X3745Y1536D01*
X630Y1535D02*
X653Y1535D01*
X3722Y1535D02*
X3745Y1535D01*
X630Y1534D02*
X653Y1534D01*
X3722Y1534D02*
X3745Y1534D01*
X630Y1533D02*
X653Y1533D01*
X3722Y1533D02*
X3745Y1533D01*
X630Y1532D02*
X653Y1532D01*
X3722Y1532D02*
X3745Y1532D01*
X630Y1531D02*
X653Y1531D01*
X3722Y1531D02*
X3745Y1531D01*
X630Y1530D02*
X653Y1530D01*
X3722Y1530D02*
X3745Y1530D01*
X630Y1529D02*
X653Y1529D01*
X3722Y1529D02*
X3745Y1529D01*
X630Y1528D02*
X653Y1528D01*
X3722Y1528D02*
X3745Y1528D01*
X630Y1527D02*
X653Y1527D01*
X3722Y1527D02*
X3745Y1527D01*
X630Y1526D02*
X653Y1526D01*
X3722Y1526D02*
X3745Y1526D01*
X630Y1525D02*
X653Y1525D01*
X3722Y1525D02*
X3745Y1525D01*
X630Y1524D02*
X653Y1524D01*
X3722Y1524D02*
X3745Y1524D01*
X630Y1523D02*
X653Y1523D01*
X3722Y1523D02*
X3745Y1523D01*
X630Y1522D02*
X653Y1522D01*
X3722Y1522D02*
X3745Y1522D01*
X630Y1521D02*
X653Y1521D01*
X3722Y1521D02*
X3745Y1521D01*
X630Y1520D02*
X653Y1520D01*
X3722Y1520D02*
X3745Y1520D01*
X630Y1519D02*
X653Y1519D01*
X3722Y1519D02*
X3745Y1519D01*
X630Y1518D02*
X653Y1518D01*
X3722Y1518D02*
X3745Y1518D01*
X630Y1517D02*
X653Y1517D01*
X3722Y1517D02*
X3745Y1517D01*
X630Y1516D02*
X653Y1516D01*
X3722Y1516D02*
X3745Y1516D01*
X630Y1515D02*
X653Y1515D01*
X3722Y1515D02*
X3745Y1515D01*
X630Y1514D02*
X653Y1514D01*
X3722Y1514D02*
X3745Y1514D01*
X630Y1513D02*
X653Y1513D01*
X3722Y1513D02*
X3745Y1513D01*
X630Y1512D02*
X653Y1512D01*
X3722Y1512D02*
X3745Y1512D01*
X630Y1511D02*
X653Y1511D01*
X3722Y1511D02*
X3745Y1511D01*
X630Y1510D02*
X653Y1510D01*
X3722Y1510D02*
X3745Y1510D01*
X630Y1509D02*
X653Y1509D01*
X3722Y1509D02*
X3745Y1509D01*
X630Y1508D02*
X653Y1508D01*
X3722Y1508D02*
X3745Y1508D01*
X630Y1507D02*
X653Y1507D01*
X3722Y1507D02*
X3745Y1507D01*
X630Y1506D02*
X653Y1506D01*
X3722Y1506D02*
X3745Y1506D01*
X630Y1505D02*
X653Y1505D01*
X3722Y1505D02*
X3745Y1505D01*
X630Y1504D02*
X653Y1504D01*
X3722Y1504D02*
X3745Y1504D01*
X630Y1503D02*
X653Y1503D01*
X3722Y1503D02*
X3745Y1503D01*
X630Y1502D02*
X653Y1502D01*
X3722Y1502D02*
X3745Y1502D01*
X630Y1501D02*
X653Y1501D01*
X3722Y1501D02*
X3745Y1501D01*
X630Y1500D02*
X653Y1500D01*
X3722Y1500D02*
X3745Y1500D01*
X630Y1499D02*
X653Y1499D01*
X3722Y1499D02*
X3745Y1499D01*
X630Y1498D02*
X653Y1498D01*
X3722Y1498D02*
X3745Y1498D01*
X630Y1497D02*
X653Y1497D01*
X3722Y1497D02*
X3745Y1497D01*
X630Y1496D02*
X653Y1496D01*
X3722Y1496D02*
X3745Y1496D01*
X630Y1495D02*
X653Y1495D01*
X3722Y1495D02*
X3745Y1495D01*
X630Y1494D02*
X653Y1494D01*
X3722Y1494D02*
X3745Y1494D01*
X630Y1493D02*
X653Y1493D01*
X3722Y1493D02*
X3745Y1493D01*
X630Y1492D02*
X653Y1492D01*
X3722Y1492D02*
X3745Y1492D01*
X630Y1491D02*
X653Y1491D01*
X3722Y1491D02*
X3745Y1491D01*
X630Y1490D02*
X653Y1490D01*
X3722Y1490D02*
X3745Y1490D01*
X630Y1489D02*
X653Y1489D01*
X3722Y1489D02*
X3745Y1489D01*
X630Y1488D02*
X653Y1488D01*
X3722Y1488D02*
X3745Y1488D01*
X630Y1487D02*
X653Y1487D01*
X3722Y1487D02*
X3745Y1487D01*
X630Y1486D02*
X653Y1486D01*
X3722Y1486D02*
X3745Y1486D01*
X630Y1485D02*
X653Y1485D01*
X3722Y1485D02*
X3745Y1485D01*
X630Y1484D02*
X653Y1484D01*
X3722Y1484D02*
X3745Y1484D01*
X630Y1483D02*
X653Y1483D01*
X3722Y1483D02*
X3745Y1483D01*
X630Y1482D02*
X653Y1482D01*
X3722Y1482D02*
X3745Y1482D01*
X630Y1481D02*
X653Y1481D01*
X3722Y1481D02*
X3745Y1481D01*
X630Y1480D02*
X653Y1480D01*
X3722Y1480D02*
X3745Y1480D01*
X630Y1479D02*
X653Y1479D01*
X3722Y1479D02*
X3745Y1479D01*
X630Y1478D02*
X653Y1478D01*
X3722Y1478D02*
X3745Y1478D01*
X630Y1477D02*
X653Y1477D01*
X3722Y1477D02*
X3745Y1477D01*
X630Y1476D02*
X653Y1476D01*
X3722Y1476D02*
X3745Y1476D01*
X630Y1475D02*
X653Y1475D01*
X3722Y1475D02*
X3745Y1475D01*
X630Y1474D02*
X653Y1474D01*
X3722Y1474D02*
X3745Y1474D01*
X630Y1473D02*
X653Y1473D01*
X3722Y1473D02*
X3745Y1473D01*
X630Y1472D02*
X653Y1472D01*
X3722Y1472D02*
X3745Y1472D01*
X630Y1471D02*
X653Y1471D01*
X3722Y1471D02*
X3745Y1471D01*
X630Y1470D02*
X653Y1470D01*
X3722Y1470D02*
X3745Y1470D01*
X630Y1469D02*
X653Y1469D01*
X3722Y1469D02*
X3745Y1469D01*
X630Y1468D02*
X653Y1468D01*
X3722Y1468D02*
X3745Y1468D01*
X630Y1467D02*
X653Y1467D01*
X3722Y1467D02*
X3745Y1467D01*
X630Y1466D02*
X653Y1466D01*
X3722Y1466D02*
X3745Y1466D01*
X630Y1465D02*
X653Y1465D01*
X3722Y1465D02*
X3745Y1465D01*
X630Y1464D02*
X653Y1464D01*
X3722Y1464D02*
X3745Y1464D01*
X630Y1463D02*
X653Y1463D01*
X3722Y1463D02*
X3745Y1463D01*
X630Y1462D02*
X653Y1462D01*
X3722Y1462D02*
X3745Y1462D01*
X630Y1461D02*
X653Y1461D01*
X3722Y1461D02*
X3745Y1461D01*
X630Y1460D02*
X653Y1460D01*
X3722Y1460D02*
X3745Y1460D01*
X630Y1459D02*
X653Y1459D01*
X3722Y1459D02*
X3745Y1459D01*
X630Y1458D02*
X653Y1458D01*
X3722Y1458D02*
X3745Y1458D01*
X630Y1457D02*
X653Y1457D01*
X3722Y1457D02*
X3745Y1457D01*
X630Y1456D02*
X653Y1456D01*
X3722Y1456D02*
X3745Y1456D01*
X630Y1455D02*
X653Y1455D01*
X3722Y1455D02*
X3745Y1455D01*
X630Y1454D02*
X653Y1454D01*
X3722Y1454D02*
X3745Y1454D01*
X630Y1453D02*
X653Y1453D01*
X3722Y1453D02*
X3745Y1453D01*
X630Y1452D02*
X653Y1452D01*
X3722Y1452D02*
X3745Y1452D01*
X630Y1451D02*
X653Y1451D01*
X3722Y1451D02*
X3745Y1451D01*
X630Y1450D02*
X653Y1450D01*
X3722Y1450D02*
X3745Y1450D01*
X630Y1449D02*
X653Y1449D01*
X3722Y1449D02*
X3745Y1449D01*
X630Y1448D02*
X653Y1448D01*
X3722Y1448D02*
X3745Y1448D01*
X630Y1447D02*
X653Y1447D01*
X3722Y1447D02*
X3745Y1447D01*
X630Y1446D02*
X653Y1446D01*
X3722Y1446D02*
X3745Y1446D01*
X630Y1445D02*
X653Y1445D01*
X3722Y1445D02*
X3745Y1445D01*
X630Y1444D02*
X653Y1444D01*
X3722Y1444D02*
X3745Y1444D01*
X630Y1443D02*
X653Y1443D01*
X3722Y1443D02*
X3745Y1443D01*
X630Y1442D02*
X653Y1442D01*
X3722Y1442D02*
X3745Y1442D01*
X630Y1441D02*
X653Y1441D01*
X3722Y1441D02*
X3745Y1441D01*
X630Y1440D02*
X653Y1440D01*
X3722Y1440D02*
X3745Y1440D01*
X630Y1439D02*
X653Y1439D01*
X3722Y1439D02*
X3745Y1439D01*
X630Y1438D02*
X653Y1438D01*
X3722Y1438D02*
X3745Y1438D01*
X630Y1437D02*
X653Y1437D01*
X3722Y1437D02*
X3745Y1437D01*
X630Y1436D02*
X653Y1436D01*
X3722Y1436D02*
X3745Y1436D01*
X630Y1435D02*
X653Y1435D01*
X3722Y1435D02*
X3745Y1435D01*
X630Y1434D02*
X653Y1434D01*
X3722Y1434D02*
X3745Y1434D01*
X630Y1433D02*
X653Y1433D01*
X3722Y1433D02*
X3745Y1433D01*
X630Y1432D02*
X653Y1432D01*
X3722Y1432D02*
X3745Y1432D01*
X630Y1431D02*
X653Y1431D01*
X3722Y1431D02*
X3745Y1431D01*
X630Y1430D02*
X653Y1430D01*
X3722Y1430D02*
X3745Y1430D01*
X630Y1429D02*
X653Y1429D01*
X3722Y1429D02*
X3745Y1429D01*
X630Y1428D02*
X653Y1428D01*
X3722Y1428D02*
X3745Y1428D01*
X630Y1427D02*
X653Y1427D01*
X3722Y1427D02*
X3745Y1427D01*
X630Y1426D02*
X653Y1426D01*
X3722Y1426D02*
X3745Y1426D01*
X630Y1425D02*
X653Y1425D01*
X3722Y1425D02*
X3745Y1425D01*
X630Y1424D02*
X653Y1424D01*
X3722Y1424D02*
X3745Y1424D01*
X630Y1423D02*
X653Y1423D01*
X3722Y1423D02*
X3745Y1423D01*
X630Y1422D02*
X653Y1422D01*
X3722Y1422D02*
X3745Y1422D01*
X630Y1421D02*
X653Y1421D01*
X3722Y1421D02*
X3745Y1421D01*
X630Y1420D02*
X653Y1420D01*
X3722Y1420D02*
X3745Y1420D01*
X630Y1419D02*
X653Y1419D01*
X3722Y1419D02*
X3745Y1419D01*
X630Y1418D02*
X653Y1418D01*
X3722Y1418D02*
X3745Y1418D01*
X630Y1417D02*
X653Y1417D01*
X3722Y1417D02*
X3745Y1417D01*
X630Y1416D02*
X653Y1416D01*
X3722Y1416D02*
X3745Y1416D01*
X630Y1415D02*
X653Y1415D01*
X3722Y1415D02*
X3745Y1415D01*
X630Y1414D02*
X653Y1414D01*
X3722Y1414D02*
X3745Y1414D01*
X630Y1413D02*
X653Y1413D01*
X3722Y1413D02*
X3745Y1413D01*
X630Y1412D02*
X653Y1412D01*
X3722Y1412D02*
X3745Y1412D01*
X630Y1411D02*
X653Y1411D01*
X3722Y1411D02*
X3745Y1411D01*
X630Y1410D02*
X653Y1410D01*
X3722Y1410D02*
X3745Y1410D01*
X630Y1409D02*
X653Y1409D01*
X3722Y1409D02*
X3745Y1409D01*
X630Y1408D02*
X653Y1408D01*
X3722Y1408D02*
X3745Y1408D01*
X630Y1407D02*
X653Y1407D01*
X3722Y1407D02*
X3745Y1407D01*
X630Y1406D02*
X653Y1406D01*
X3722Y1406D02*
X3745Y1406D01*
X630Y1405D02*
X653Y1405D01*
X3722Y1405D02*
X3745Y1405D01*
X630Y1404D02*
X653Y1404D01*
X3722Y1404D02*
X3745Y1404D01*
X630Y1403D02*
X653Y1403D01*
X3722Y1403D02*
X3745Y1403D01*
X630Y1402D02*
X653Y1402D01*
X3722Y1402D02*
X3745Y1402D01*
X630Y1401D02*
X653Y1401D01*
X3722Y1401D02*
X3745Y1401D01*
X630Y1400D02*
X653Y1400D01*
X3722Y1400D02*
X3745Y1400D01*
X630Y1399D02*
X653Y1399D01*
X3722Y1399D02*
X3745Y1399D01*
X630Y1398D02*
X653Y1398D01*
X3722Y1398D02*
X3745Y1398D01*
X630Y1397D02*
X653Y1397D01*
X3722Y1397D02*
X3745Y1397D01*
X630Y1396D02*
X653Y1396D01*
X3722Y1396D02*
X3745Y1396D01*
X630Y1395D02*
X653Y1395D01*
X3722Y1395D02*
X3745Y1395D01*
X630Y1394D02*
X653Y1394D01*
X3722Y1394D02*
X3745Y1394D01*
X630Y1393D02*
X653Y1393D01*
X3722Y1393D02*
X3745Y1393D01*
X630Y1392D02*
X653Y1392D01*
X3722Y1392D02*
X3745Y1392D01*
X630Y1391D02*
X653Y1391D01*
X3722Y1391D02*
X3745Y1391D01*
X630Y1390D02*
X653Y1390D01*
X3722Y1390D02*
X3745Y1390D01*
X630Y1389D02*
X653Y1389D01*
X3722Y1389D02*
X3745Y1389D01*
X630Y1388D02*
X653Y1388D01*
X3722Y1388D02*
X3745Y1388D01*
X630Y1387D02*
X653Y1387D01*
X3722Y1387D02*
X3745Y1387D01*
X630Y1386D02*
X653Y1386D01*
X3722Y1386D02*
X3745Y1386D01*
X630Y1385D02*
X653Y1385D01*
X3722Y1385D02*
X3745Y1385D01*
X630Y1384D02*
X653Y1384D01*
X3722Y1384D02*
X3745Y1384D01*
X630Y1383D02*
X653Y1383D01*
X3722Y1383D02*
X3745Y1383D01*
X630Y1382D02*
X653Y1382D01*
X3722Y1382D02*
X3745Y1382D01*
X630Y1381D02*
X653Y1381D01*
X3722Y1381D02*
X3745Y1381D01*
X630Y1380D02*
X653Y1380D01*
X3722Y1380D02*
X3745Y1380D01*
X630Y1379D02*
X653Y1379D01*
X3722Y1379D02*
X3745Y1379D01*
X630Y1378D02*
X653Y1378D01*
X3722Y1378D02*
X3745Y1378D01*
X630Y1377D02*
X653Y1377D01*
X3722Y1377D02*
X3745Y1377D01*
X630Y1376D02*
X653Y1376D01*
X3722Y1376D02*
X3745Y1376D01*
X630Y1375D02*
X653Y1375D01*
X3722Y1375D02*
X3745Y1375D01*
X630Y1374D02*
X653Y1374D01*
X3722Y1374D02*
X3745Y1374D01*
X630Y1373D02*
X653Y1373D01*
X3722Y1373D02*
X3745Y1373D01*
X630Y1372D02*
X653Y1372D01*
X3722Y1372D02*
X3745Y1372D01*
X630Y1371D02*
X653Y1371D01*
X3722Y1371D02*
X3745Y1371D01*
X630Y1370D02*
X653Y1370D01*
X3722Y1370D02*
X3745Y1370D01*
X630Y1369D02*
X653Y1369D01*
X3722Y1369D02*
X3745Y1369D01*
X630Y1368D02*
X653Y1368D01*
X3722Y1368D02*
X3745Y1368D01*
X630Y1367D02*
X653Y1367D01*
X3722Y1367D02*
X3745Y1367D01*
X630Y1366D02*
X653Y1366D01*
X3722Y1366D02*
X3745Y1366D01*
X630Y1365D02*
X653Y1365D01*
X3722Y1365D02*
X3745Y1365D01*
X630Y1364D02*
X653Y1364D01*
X3722Y1364D02*
X3745Y1364D01*
X630Y1363D02*
X653Y1363D01*
X3722Y1363D02*
X3745Y1363D01*
X630Y1362D02*
X653Y1362D01*
X3722Y1362D02*
X3745Y1362D01*
X630Y1361D02*
X653Y1361D01*
X3722Y1361D02*
X3745Y1361D01*
X630Y1360D02*
X653Y1360D01*
X3722Y1360D02*
X3745Y1360D01*
X630Y1359D02*
X653Y1359D01*
X3722Y1359D02*
X3745Y1359D01*
X630Y1358D02*
X653Y1358D01*
X3722Y1358D02*
X3745Y1358D01*
X630Y1357D02*
X653Y1357D01*
X3722Y1357D02*
X3745Y1357D01*
X630Y1356D02*
X653Y1356D01*
X3722Y1356D02*
X3745Y1356D01*
X630Y1355D02*
X653Y1355D01*
X3722Y1355D02*
X3745Y1355D01*
X630Y1354D02*
X653Y1354D01*
X3722Y1354D02*
X3745Y1354D01*
X630Y1353D02*
X653Y1353D01*
X3722Y1353D02*
X3745Y1353D01*
X630Y1352D02*
X653Y1352D01*
X3722Y1352D02*
X3745Y1352D01*
X630Y1351D02*
X653Y1351D01*
X3722Y1351D02*
X3745Y1351D01*
X630Y1350D02*
X653Y1350D01*
X3722Y1350D02*
X3745Y1350D01*
X630Y1349D02*
X653Y1349D01*
X3722Y1349D02*
X3745Y1349D01*
X630Y1348D02*
X653Y1348D01*
X3722Y1348D02*
X3745Y1348D01*
X630Y1347D02*
X653Y1347D01*
X3722Y1347D02*
X3745Y1347D01*
X630Y1346D02*
X653Y1346D01*
X3722Y1346D02*
X3745Y1346D01*
X630Y1345D02*
X653Y1345D01*
X3722Y1345D02*
X3745Y1345D01*
X630Y1344D02*
X653Y1344D01*
X3722Y1344D02*
X3745Y1344D01*
X630Y1343D02*
X653Y1343D01*
X3722Y1343D02*
X3745Y1343D01*
X630Y1342D02*
X653Y1342D01*
X3722Y1342D02*
X3745Y1342D01*
X630Y1341D02*
X653Y1341D01*
X3722Y1341D02*
X3745Y1341D01*
X630Y1340D02*
X653Y1340D01*
X3723Y1340D02*
X3745Y1340D01*
X630Y1339D02*
X653Y1339D01*
X3723Y1339D02*
X3746Y1339D01*
X630Y1338D02*
X653Y1338D01*
X3723Y1338D02*
X3746Y1338D01*
X630Y1337D02*
X653Y1337D01*
X3723Y1337D02*
X3746Y1337D01*
X630Y1336D02*
X653Y1336D01*
X3723Y1336D02*
X3746Y1336D01*
X630Y1335D02*
X653Y1335D01*
X3723Y1335D02*
X3746Y1335D01*
X630Y1334D02*
X653Y1334D01*
X3723Y1334D02*
X3746Y1334D01*
X630Y1333D02*
X653Y1333D01*
X3723Y1333D02*
X3746Y1333D01*
X630Y1332D02*
X653Y1332D01*
X3723Y1332D02*
X3746Y1332D01*
X630Y1331D02*
X653Y1331D01*
X3723Y1331D02*
X3746Y1331D01*
X630Y1330D02*
X653Y1330D01*
X3723Y1330D02*
X3746Y1330D01*
X630Y1329D02*
X653Y1329D01*
X3723Y1329D02*
X3746Y1329D01*
X630Y1328D02*
X653Y1328D01*
X3723Y1328D02*
X3746Y1328D01*
X630Y1327D02*
X653Y1327D01*
X3723Y1327D02*
X3746Y1327D01*
X630Y1326D02*
X653Y1326D01*
X3723Y1326D02*
X3746Y1326D01*
X630Y1325D02*
X653Y1325D01*
X3723Y1325D02*
X3746Y1325D01*
X630Y1324D02*
X653Y1324D01*
X3723Y1324D02*
X3746Y1324D01*
X630Y1323D02*
X653Y1323D01*
X3723Y1323D02*
X3746Y1323D01*
X630Y1322D02*
X653Y1322D01*
X3723Y1322D02*
X3746Y1322D01*
X630Y1321D02*
X653Y1321D01*
X3723Y1321D02*
X3746Y1321D01*
X630Y1320D02*
X653Y1320D01*
X3723Y1320D02*
X3746Y1320D01*
X630Y1319D02*
X653Y1319D01*
X3723Y1319D02*
X3746Y1319D01*
X630Y1318D02*
X653Y1318D01*
X3723Y1318D02*
X3746Y1318D01*
X630Y1317D02*
X653Y1317D01*
X3723Y1317D02*
X3746Y1317D01*
X630Y1316D02*
X653Y1316D01*
X3723Y1316D02*
X3746Y1316D01*
X630Y1315D02*
X653Y1315D01*
X3723Y1315D02*
X3746Y1315D01*
X630Y1314D02*
X653Y1314D01*
X3723Y1314D02*
X3746Y1314D01*
X630Y1313D02*
X653Y1313D01*
X3723Y1313D02*
X3746Y1313D01*
X630Y1312D02*
X653Y1312D01*
X3723Y1312D02*
X3746Y1312D01*
X630Y1311D02*
X653Y1311D01*
X3723Y1311D02*
X3746Y1311D01*
X630Y1310D02*
X653Y1310D01*
X3723Y1310D02*
X3746Y1310D01*
X630Y1309D02*
X653Y1309D01*
X3723Y1309D02*
X3746Y1309D01*
X630Y1308D02*
X653Y1308D01*
X3723Y1308D02*
X3746Y1308D01*
X630Y1307D02*
X653Y1307D01*
X3723Y1307D02*
X3746Y1307D01*
X630Y1306D02*
X653Y1306D01*
X3723Y1306D02*
X3746Y1306D01*
X630Y1305D02*
X653Y1305D01*
X3723Y1305D02*
X3746Y1305D01*
X630Y1304D02*
X653Y1304D01*
X3723Y1304D02*
X3746Y1304D01*
X630Y1303D02*
X653Y1303D01*
X3723Y1303D02*
X3746Y1303D01*
X630Y1302D02*
X653Y1302D01*
X3723Y1302D02*
X3746Y1302D01*
X630Y1301D02*
X653Y1301D01*
X3723Y1301D02*
X3746Y1301D01*
X630Y1300D02*
X653Y1300D01*
X3723Y1300D02*
X3746Y1300D01*
X630Y1299D02*
X653Y1299D01*
X3723Y1299D02*
X3746Y1299D01*
X630Y1298D02*
X653Y1298D01*
X3723Y1298D02*
X3746Y1298D01*
X630Y1297D02*
X653Y1297D01*
X3723Y1297D02*
X3746Y1297D01*
X630Y1296D02*
X653Y1296D01*
X3723Y1296D02*
X3746Y1296D01*
X630Y1295D02*
X653Y1295D01*
X3723Y1295D02*
X3746Y1295D01*
X630Y1294D02*
X653Y1294D01*
X3723Y1294D02*
X3746Y1294D01*
X630Y1293D02*
X653Y1293D01*
X3723Y1293D02*
X3746Y1293D01*
X630Y1292D02*
X653Y1292D01*
X3723Y1292D02*
X3746Y1292D01*
X630Y1291D02*
X653Y1291D01*
X3723Y1291D02*
X3746Y1291D01*
X630Y1290D02*
X653Y1290D01*
X3723Y1290D02*
X3746Y1290D01*
X630Y1289D02*
X653Y1289D01*
X3723Y1289D02*
X3746Y1289D01*
X630Y1288D02*
X653Y1288D01*
X3723Y1288D02*
X3746Y1288D01*
X630Y1287D02*
X653Y1287D01*
X3723Y1287D02*
X3746Y1287D01*
X630Y1286D02*
X653Y1286D01*
X3723Y1286D02*
X3746Y1286D01*
X630Y1285D02*
X653Y1285D01*
X3723Y1285D02*
X3746Y1285D01*
X630Y1284D02*
X653Y1284D01*
X3723Y1284D02*
X3746Y1284D01*
X630Y1283D02*
X653Y1283D01*
X3723Y1283D02*
X3746Y1283D01*
X630Y1282D02*
X653Y1282D01*
X3723Y1282D02*
X3746Y1282D01*
X630Y1281D02*
X653Y1281D01*
X3723Y1281D02*
X3746Y1281D01*
X630Y1280D02*
X653Y1280D01*
X3723Y1280D02*
X3746Y1280D01*
X630Y1279D02*
X653Y1279D01*
X3723Y1279D02*
X3746Y1279D01*
X630Y1278D02*
X653Y1278D01*
X3723Y1278D02*
X3746Y1278D01*
X630Y1277D02*
X653Y1277D01*
X3723Y1277D02*
X3746Y1277D01*
X630Y1276D02*
X653Y1276D01*
X3723Y1276D02*
X3746Y1276D01*
X630Y1275D02*
X653Y1275D01*
X3723Y1275D02*
X3746Y1275D01*
X630Y1274D02*
X653Y1274D01*
X3723Y1274D02*
X3746Y1274D01*
X630Y1273D02*
X653Y1273D01*
X3723Y1273D02*
X3746Y1273D01*
X630Y1272D02*
X653Y1272D01*
X3723Y1272D02*
X3746Y1272D01*
X630Y1271D02*
X653Y1271D01*
X3723Y1271D02*
X3746Y1271D01*
X630Y1270D02*
X653Y1270D01*
X3723Y1270D02*
X3746Y1270D01*
X630Y1269D02*
X653Y1269D01*
X3723Y1269D02*
X3746Y1269D01*
X630Y1268D02*
X653Y1268D01*
X3723Y1268D02*
X3746Y1268D01*
X630Y1267D02*
X653Y1267D01*
X3723Y1267D02*
X3746Y1267D01*
X630Y1266D02*
X653Y1266D01*
X3723Y1266D02*
X3746Y1266D01*
X630Y1265D02*
X653Y1265D01*
X3723Y1265D02*
X3746Y1265D01*
X630Y1264D02*
X653Y1264D01*
X3723Y1264D02*
X3746Y1264D01*
X630Y1263D02*
X653Y1263D01*
X3723Y1263D02*
X3746Y1263D01*
X630Y1262D02*
X653Y1262D01*
X3723Y1262D02*
X3746Y1262D01*
X630Y1261D02*
X653Y1261D01*
X3723Y1261D02*
X3746Y1261D01*
X630Y1260D02*
X653Y1260D01*
X3723Y1260D02*
X3746Y1260D01*
X630Y1259D02*
X653Y1259D01*
X3723Y1259D02*
X3746Y1259D01*
X630Y1258D02*
X653Y1258D01*
X3723Y1258D02*
X3746Y1258D01*
X630Y1257D02*
X653Y1257D01*
X3723Y1257D02*
X3746Y1257D01*
X630Y1256D02*
X653Y1256D01*
X3723Y1256D02*
X3746Y1256D01*
X630Y1255D02*
X653Y1255D01*
X3723Y1255D02*
X3746Y1255D01*
X630Y1254D02*
X653Y1254D01*
X3723Y1254D02*
X3746Y1254D01*
X630Y1253D02*
X653Y1253D01*
X3723Y1253D02*
X3746Y1253D01*
X630Y1252D02*
X653Y1252D01*
X3723Y1252D02*
X3746Y1252D01*
X630Y1251D02*
X653Y1251D01*
X3723Y1251D02*
X3746Y1251D01*
X630Y1250D02*
X653Y1250D01*
X3723Y1250D02*
X3746Y1250D01*
X630Y1249D02*
X653Y1249D01*
X3723Y1249D02*
X3746Y1249D01*
X630Y1248D02*
X653Y1248D01*
X3723Y1248D02*
X3746Y1248D01*
X630Y1247D02*
X653Y1247D01*
X3723Y1247D02*
X3746Y1247D01*
X630Y1246D02*
X653Y1246D01*
X3723Y1246D02*
X3746Y1246D01*
X630Y1245D02*
X653Y1245D01*
X3723Y1245D02*
X3746Y1245D01*
X630Y1244D02*
X653Y1244D01*
X3723Y1244D02*
X3746Y1244D01*
X630Y1243D02*
X653Y1243D01*
X3723Y1243D02*
X3746Y1243D01*
X630Y1242D02*
X653Y1242D01*
X3723Y1242D02*
X3746Y1242D01*
X630Y1241D02*
X653Y1241D01*
X3723Y1241D02*
X3746Y1241D01*
X630Y1240D02*
X653Y1240D01*
X3723Y1240D02*
X3746Y1240D01*
X630Y1239D02*
X653Y1239D01*
X3723Y1239D02*
X3746Y1239D01*
X630Y1238D02*
X653Y1238D01*
X3723Y1238D02*
X3746Y1238D01*
X630Y1237D02*
X653Y1237D01*
X3723Y1237D02*
X3746Y1237D01*
X630Y1236D02*
X653Y1236D01*
X3723Y1236D02*
X3746Y1236D01*
X630Y1235D02*
X653Y1235D01*
X3723Y1235D02*
X3746Y1235D01*
X630Y1234D02*
X653Y1234D01*
X3723Y1234D02*
X3746Y1234D01*
X630Y1233D02*
X653Y1233D01*
X3723Y1233D02*
X3746Y1233D01*
X630Y1232D02*
X653Y1232D01*
X3723Y1232D02*
X3746Y1232D01*
X630Y1231D02*
X653Y1231D01*
X3723Y1231D02*
X3746Y1231D01*
X630Y1230D02*
X653Y1230D01*
X3723Y1230D02*
X3746Y1230D01*
X630Y1229D02*
X653Y1229D01*
X3723Y1229D02*
X3746Y1229D01*
X630Y1228D02*
X653Y1228D01*
X3723Y1228D02*
X3746Y1228D01*
X630Y1227D02*
X653Y1227D01*
X3723Y1227D02*
X3746Y1227D01*
X630Y1226D02*
X653Y1226D01*
X3723Y1226D02*
X3746Y1226D01*
X630Y1225D02*
X653Y1225D01*
X3723Y1225D02*
X3746Y1225D01*
X630Y1224D02*
X653Y1224D01*
X3723Y1224D02*
X3746Y1224D01*
X630Y1223D02*
X653Y1223D01*
X3723Y1223D02*
X3746Y1223D01*
X630Y1222D02*
X653Y1222D01*
X3723Y1222D02*
X3746Y1222D01*
X630Y1221D02*
X653Y1221D01*
X3723Y1221D02*
X3746Y1221D01*
X630Y1220D02*
X653Y1220D01*
X3723Y1220D02*
X3746Y1220D01*
X630Y1219D02*
X653Y1219D01*
X3723Y1219D02*
X3746Y1219D01*
X630Y1218D02*
X653Y1218D01*
X3723Y1218D02*
X3746Y1218D01*
X630Y1217D02*
X653Y1217D01*
X3723Y1217D02*
X3746Y1217D01*
X630Y1216D02*
X653Y1216D01*
X3723Y1216D02*
X3746Y1216D01*
X630Y1215D02*
X653Y1215D01*
X3723Y1215D02*
X3746Y1215D01*
X630Y1214D02*
X653Y1214D01*
X3723Y1214D02*
X3746Y1214D01*
X630Y1213D02*
X653Y1213D01*
X3723Y1213D02*
X3746Y1213D01*
X630Y1212D02*
X653Y1212D01*
X3723Y1212D02*
X3746Y1212D01*
X630Y1211D02*
X653Y1211D01*
X3723Y1211D02*
X3746Y1211D01*
X630Y1210D02*
X653Y1210D01*
X3723Y1210D02*
X3746Y1210D01*
X630Y1209D02*
X653Y1209D01*
X3723Y1209D02*
X3746Y1209D01*
X630Y1208D02*
X653Y1208D01*
X3723Y1208D02*
X3746Y1208D01*
X630Y1207D02*
X653Y1207D01*
X3723Y1207D02*
X3746Y1207D01*
X630Y1206D02*
X653Y1206D01*
X3723Y1206D02*
X3746Y1206D01*
X630Y1205D02*
X653Y1205D01*
X3723Y1205D02*
X3746Y1205D01*
X630Y1204D02*
X653Y1204D01*
X3723Y1204D02*
X3746Y1204D01*
X630Y1203D02*
X653Y1203D01*
X3723Y1203D02*
X3746Y1203D01*
X630Y1202D02*
X653Y1202D01*
X3723Y1202D02*
X3746Y1202D01*
X630Y1201D02*
X653Y1201D01*
X3723Y1201D02*
X3746Y1201D01*
X630Y1200D02*
X653Y1200D01*
X3723Y1200D02*
X3746Y1200D01*
X630Y1199D02*
X653Y1199D01*
X3723Y1199D02*
X3746Y1199D01*
X630Y1198D02*
X653Y1198D01*
X3723Y1198D02*
X3746Y1198D01*
X630Y1197D02*
X653Y1197D01*
X3723Y1197D02*
X3746Y1197D01*
X630Y1196D02*
X653Y1196D01*
X3723Y1196D02*
X3746Y1196D01*
X630Y1195D02*
X653Y1195D01*
X3723Y1195D02*
X3746Y1195D01*
X630Y1194D02*
X653Y1194D01*
X3723Y1194D02*
X3746Y1194D01*
X630Y1193D02*
X653Y1193D01*
X3723Y1193D02*
X3746Y1193D01*
X630Y1192D02*
X653Y1192D01*
X3723Y1192D02*
X3746Y1192D01*
X630Y1191D02*
X653Y1191D01*
X3723Y1191D02*
X3746Y1191D01*
X630Y1190D02*
X653Y1190D01*
X3723Y1190D02*
X3746Y1190D01*
X630Y1189D02*
X653Y1189D01*
X3723Y1189D02*
X3746Y1189D01*
X630Y1188D02*
X653Y1188D01*
X3723Y1188D02*
X3746Y1188D01*
X630Y1187D02*
X653Y1187D01*
X3723Y1187D02*
X3746Y1187D01*
X630Y1186D02*
X653Y1186D01*
X3723Y1186D02*
X3746Y1186D01*
X630Y1185D02*
X653Y1185D01*
X3723Y1185D02*
X3746Y1185D01*
X630Y1184D02*
X653Y1184D01*
X3723Y1184D02*
X3746Y1184D01*
X630Y1183D02*
X653Y1183D01*
X3723Y1183D02*
X3746Y1183D01*
X630Y1182D02*
X653Y1182D01*
X3723Y1182D02*
X3746Y1182D01*
X630Y1181D02*
X653Y1181D01*
X3723Y1181D02*
X3746Y1181D01*
X630Y1180D02*
X653Y1180D01*
X3723Y1180D02*
X3746Y1180D01*
X630Y1179D02*
X653Y1179D01*
X3723Y1179D02*
X3746Y1179D01*
X630Y1178D02*
X653Y1178D01*
X3723Y1178D02*
X3746Y1178D01*
X630Y1177D02*
X653Y1177D01*
X3723Y1177D02*
X3746Y1177D01*
X630Y1176D02*
X653Y1176D01*
X3723Y1176D02*
X3746Y1176D01*
X630Y1175D02*
X653Y1175D01*
X3723Y1175D02*
X3746Y1175D01*
X630Y1174D02*
X653Y1174D01*
X3723Y1174D02*
X3746Y1174D01*
X630Y1173D02*
X653Y1173D01*
X3723Y1173D02*
X3746Y1173D01*
X630Y1172D02*
X653Y1172D01*
X3723Y1172D02*
X3746Y1172D01*
X630Y1171D02*
X653Y1171D01*
X3723Y1171D02*
X3746Y1171D01*
X630Y1170D02*
X653Y1170D01*
X3723Y1170D02*
X3746Y1170D01*
X630Y1169D02*
X653Y1169D01*
X3723Y1169D02*
X3746Y1169D01*
X630Y1168D02*
X653Y1168D01*
X3723Y1168D02*
X3746Y1168D01*
X630Y1167D02*
X653Y1167D01*
X3723Y1167D02*
X3746Y1167D01*
X630Y1166D02*
X653Y1166D01*
X3723Y1166D02*
X3746Y1166D01*
X630Y1165D02*
X653Y1165D01*
X3723Y1165D02*
X3746Y1165D01*
X630Y1164D02*
X653Y1164D01*
X3723Y1164D02*
X3746Y1164D01*
X630Y1163D02*
X653Y1163D01*
X3723Y1163D02*
X3746Y1163D01*
X630Y1162D02*
X653Y1162D01*
X3723Y1162D02*
X3746Y1162D01*
X630Y1161D02*
X653Y1161D01*
X3723Y1161D02*
X3746Y1161D01*
X630Y1160D02*
X653Y1160D01*
X3723Y1160D02*
X3746Y1160D01*
X630Y1159D02*
X653Y1159D01*
X3723Y1159D02*
X3746Y1159D01*
X630Y1158D02*
X653Y1158D01*
X3723Y1158D02*
X3746Y1158D01*
X630Y1157D02*
X653Y1157D01*
X3723Y1157D02*
X3746Y1157D01*
X630Y1156D02*
X653Y1156D01*
X3723Y1156D02*
X3746Y1156D01*
X630Y1155D02*
X653Y1155D01*
X3723Y1155D02*
X3746Y1155D01*
X630Y1154D02*
X653Y1154D01*
X3723Y1154D02*
X3746Y1154D01*
X630Y1153D02*
X653Y1153D01*
X3723Y1153D02*
X3746Y1153D01*
X630Y1152D02*
X653Y1152D01*
X3723Y1152D02*
X3746Y1152D01*
X630Y1151D02*
X653Y1151D01*
X3723Y1151D02*
X3746Y1151D01*
X630Y1150D02*
X653Y1150D01*
X3723Y1150D02*
X3746Y1150D01*
X630Y1149D02*
X653Y1149D01*
X3723Y1149D02*
X3746Y1149D01*
X630Y1148D02*
X653Y1148D01*
X3723Y1148D02*
X3746Y1148D01*
X630Y1147D02*
X653Y1147D01*
X3723Y1147D02*
X3746Y1147D01*
X630Y1146D02*
X653Y1146D01*
X3723Y1146D02*
X3746Y1146D01*
X630Y1145D02*
X653Y1145D01*
X3723Y1145D02*
X3746Y1145D01*
X630Y1144D02*
X653Y1144D01*
X3723Y1144D02*
X3746Y1144D01*
X630Y1143D02*
X653Y1143D01*
X3723Y1143D02*
X3746Y1143D01*
X630Y1142D02*
X653Y1142D01*
X3723Y1142D02*
X3746Y1142D01*
X630Y1141D02*
X653Y1141D01*
X3723Y1141D02*
X3746Y1141D01*
X630Y1140D02*
X653Y1140D01*
X3723Y1140D02*
X3746Y1140D01*
X630Y1139D02*
X653Y1139D01*
X3723Y1139D02*
X3746Y1139D01*
X630Y1138D02*
X653Y1138D01*
X3724Y1138D02*
X3746Y1138D01*
X630Y1137D02*
X653Y1137D01*
X3724Y1137D02*
X3746Y1137D01*
X630Y1136D02*
X653Y1136D01*
X3724Y1136D02*
X3747Y1136D01*
X630Y1135D02*
X653Y1135D01*
X3724Y1135D02*
X3747Y1135D01*
X630Y1134D02*
X653Y1134D01*
X3724Y1134D02*
X3747Y1134D01*
X630Y1133D02*
X653Y1133D01*
X3724Y1133D02*
X3747Y1133D01*
X630Y1132D02*
X653Y1132D01*
X3724Y1132D02*
X3747Y1132D01*
X630Y1131D02*
X653Y1131D01*
X3724Y1131D02*
X3747Y1131D01*
X630Y1130D02*
X653Y1130D01*
X3724Y1130D02*
X3747Y1130D01*
X630Y1129D02*
X653Y1129D01*
X3724Y1129D02*
X3747Y1129D01*
X630Y1128D02*
X653Y1128D01*
X3724Y1128D02*
X3747Y1128D01*
X630Y1127D02*
X653Y1127D01*
X3724Y1127D02*
X3747Y1127D01*
X630Y1126D02*
X653Y1126D01*
X3724Y1126D02*
X3747Y1126D01*
X630Y1125D02*
X653Y1125D01*
X3724Y1125D02*
X3747Y1125D01*
X630Y1124D02*
X653Y1124D01*
X3724Y1124D02*
X3747Y1124D01*
X630Y1123D02*
X653Y1123D01*
X3724Y1123D02*
X3747Y1123D01*
X630Y1122D02*
X653Y1122D01*
X3724Y1122D02*
X3747Y1122D01*
X630Y1121D02*
X653Y1121D01*
X3724Y1121D02*
X3747Y1121D01*
X630Y1120D02*
X653Y1120D01*
X3724Y1120D02*
X3747Y1120D01*
X630Y1119D02*
X653Y1119D01*
X3724Y1119D02*
X3747Y1119D01*
X630Y1118D02*
X653Y1118D01*
X3724Y1118D02*
X3747Y1118D01*
X630Y1117D02*
X653Y1117D01*
X3724Y1117D02*
X3747Y1117D01*
X630Y1116D02*
X653Y1116D01*
X3724Y1116D02*
X3747Y1116D01*
X630Y1115D02*
X653Y1115D01*
X3724Y1115D02*
X3747Y1115D01*
X630Y1114D02*
X653Y1114D01*
X3724Y1114D02*
X3747Y1114D01*
X630Y1113D02*
X653Y1113D01*
X3724Y1113D02*
X3747Y1113D01*
X630Y1112D02*
X653Y1112D01*
X3724Y1112D02*
X3747Y1112D01*
X630Y1111D02*
X653Y1111D01*
X3724Y1111D02*
X3747Y1111D01*
X630Y1110D02*
X653Y1110D01*
X3724Y1110D02*
X3747Y1110D01*
X630Y1109D02*
X653Y1109D01*
X3724Y1109D02*
X3747Y1109D01*
X630Y1108D02*
X653Y1108D01*
X3724Y1108D02*
X3747Y1108D01*
X630Y1107D02*
X653Y1107D01*
X3724Y1107D02*
X3747Y1107D01*
X630Y1106D02*
X653Y1106D01*
X3724Y1106D02*
X3747Y1106D01*
X630Y1105D02*
X653Y1105D01*
X3724Y1105D02*
X3747Y1105D01*
X630Y1104D02*
X653Y1104D01*
X3724Y1104D02*
X3747Y1104D01*
X630Y1103D02*
X653Y1103D01*
X3724Y1103D02*
X3747Y1103D01*
X630Y1102D02*
X653Y1102D01*
X3724Y1102D02*
X3747Y1102D01*
X630Y1101D02*
X653Y1101D01*
X3724Y1101D02*
X3747Y1101D01*
X630Y1100D02*
X653Y1100D01*
X3724Y1100D02*
X3747Y1100D01*
X630Y1099D02*
X653Y1099D01*
X3724Y1099D02*
X3747Y1099D01*
X630Y1098D02*
X653Y1098D01*
X3724Y1098D02*
X3747Y1098D01*
X630Y1097D02*
X653Y1097D01*
X3724Y1097D02*
X3747Y1097D01*
X630Y1096D02*
X653Y1096D01*
X3724Y1096D02*
X3747Y1096D01*
X630Y1095D02*
X653Y1095D01*
X3724Y1095D02*
X3747Y1095D01*
X630Y1094D02*
X653Y1094D01*
X3724Y1094D02*
X3747Y1094D01*
X630Y1093D02*
X653Y1093D01*
X3724Y1093D02*
X3747Y1093D01*
X630Y1092D02*
X653Y1092D01*
X3724Y1092D02*
X3747Y1092D01*
X630Y1091D02*
X653Y1091D01*
X3724Y1091D02*
X3747Y1091D01*
X630Y1090D02*
X653Y1090D01*
X3724Y1090D02*
X3747Y1090D01*
X630Y1089D02*
X653Y1089D01*
X3724Y1089D02*
X3747Y1089D01*
X630Y1088D02*
X653Y1088D01*
X3724Y1088D02*
X3747Y1088D01*
X630Y1087D02*
X653Y1087D01*
X3724Y1087D02*
X3747Y1087D01*
X630Y1086D02*
X653Y1086D01*
X3724Y1086D02*
X3747Y1086D01*
X630Y1085D02*
X653Y1085D01*
X3724Y1085D02*
X3747Y1085D01*
X630Y1084D02*
X653Y1084D01*
X3724Y1084D02*
X3747Y1084D01*
X630Y1083D02*
X653Y1083D01*
X3724Y1083D02*
X3747Y1083D01*
X630Y1082D02*
X653Y1082D01*
X3724Y1082D02*
X3747Y1082D01*
X630Y1081D02*
X653Y1081D01*
X3724Y1081D02*
X3747Y1081D01*
X630Y1080D02*
X653Y1080D01*
X3724Y1080D02*
X3747Y1080D01*
X630Y1079D02*
X653Y1079D01*
X3724Y1079D02*
X3747Y1079D01*
X630Y1078D02*
X653Y1078D01*
X3724Y1078D02*
X3747Y1078D01*
X630Y1077D02*
X653Y1077D01*
X3724Y1077D02*
X3747Y1077D01*
X630Y1076D02*
X653Y1076D01*
X3724Y1076D02*
X3747Y1076D01*
X630Y1075D02*
X653Y1075D01*
X3724Y1075D02*
X3747Y1075D01*
X630Y1074D02*
X653Y1074D01*
X3724Y1074D02*
X3747Y1074D01*
X630Y1073D02*
X653Y1073D01*
X3724Y1073D02*
X3747Y1073D01*
X630Y1072D02*
X653Y1072D01*
X3724Y1072D02*
X3747Y1072D01*
X630Y1071D02*
X653Y1071D01*
X3724Y1071D02*
X3747Y1071D01*
X630Y1070D02*
X653Y1070D01*
X3724Y1070D02*
X3747Y1070D01*
X630Y1069D02*
X653Y1069D01*
X3724Y1069D02*
X3747Y1069D01*
X630Y1068D02*
X653Y1068D01*
X3724Y1068D02*
X3747Y1068D01*
X630Y1067D02*
X653Y1067D01*
X3724Y1067D02*
X3747Y1067D01*
X630Y1066D02*
X653Y1066D01*
X3724Y1066D02*
X3747Y1066D01*
X630Y1065D02*
X653Y1065D01*
X3724Y1065D02*
X3747Y1065D01*
X630Y1064D02*
X653Y1064D01*
X3724Y1064D02*
X3747Y1064D01*
X630Y1063D02*
X653Y1063D01*
X3724Y1063D02*
X3747Y1063D01*
X630Y1062D02*
X653Y1062D01*
X3724Y1062D02*
X3747Y1062D01*
X630Y1061D02*
X653Y1061D01*
X3724Y1061D02*
X3747Y1061D01*
X630Y1060D02*
X653Y1060D01*
X3724Y1060D02*
X3747Y1060D01*
X630Y1059D02*
X653Y1059D01*
X3724Y1059D02*
X3747Y1059D01*
X630Y1058D02*
X653Y1058D01*
X3724Y1058D02*
X3747Y1058D01*
X630Y1057D02*
X653Y1057D01*
X3724Y1057D02*
X3747Y1057D01*
X630Y1056D02*
X653Y1056D01*
X3724Y1056D02*
X3747Y1056D01*
X630Y1055D02*
X653Y1055D01*
X3724Y1055D02*
X3747Y1055D01*
X630Y1054D02*
X653Y1054D01*
X3724Y1054D02*
X3747Y1054D01*
X630Y1053D02*
X653Y1053D01*
X3724Y1053D02*
X3747Y1053D01*
X630Y1052D02*
X653Y1052D01*
X3724Y1052D02*
X3747Y1052D01*
X630Y1051D02*
X653Y1051D01*
X3724Y1051D02*
X3747Y1051D01*
X630Y1050D02*
X653Y1050D01*
X3724Y1050D02*
X3747Y1050D01*
X630Y1049D02*
X653Y1049D01*
X3724Y1049D02*
X3747Y1049D01*
X630Y1048D02*
X653Y1048D01*
X3724Y1048D02*
X3747Y1048D01*
X630Y1047D02*
X653Y1047D01*
X3724Y1047D02*
X3747Y1047D01*
X630Y1046D02*
X653Y1046D01*
X3724Y1046D02*
X3747Y1046D01*
X630Y1045D02*
X653Y1045D01*
X3724Y1045D02*
X3747Y1045D01*
X630Y1044D02*
X653Y1044D01*
X3724Y1044D02*
X3747Y1044D01*
X630Y1043D02*
X653Y1043D01*
X3724Y1043D02*
X3747Y1043D01*
X630Y1042D02*
X653Y1042D01*
X3724Y1042D02*
X3747Y1042D01*
X630Y1041D02*
X653Y1041D01*
X3724Y1041D02*
X3747Y1041D01*
X630Y1040D02*
X653Y1040D01*
X3724Y1040D02*
X3747Y1040D01*
X630Y1039D02*
X653Y1039D01*
X3724Y1039D02*
X3747Y1039D01*
X630Y1038D02*
X653Y1038D01*
X3724Y1038D02*
X3747Y1038D01*
X630Y1037D02*
X653Y1037D01*
X3724Y1037D02*
X3747Y1037D01*
X630Y1036D02*
X653Y1036D01*
X3724Y1036D02*
X3747Y1036D01*
X630Y1035D02*
X653Y1035D01*
X3724Y1035D02*
X3747Y1035D01*
X630Y1034D02*
X653Y1034D01*
X3724Y1034D02*
X3747Y1034D01*
X630Y1033D02*
X653Y1033D01*
X3724Y1033D02*
X3747Y1033D01*
X630Y1032D02*
X653Y1032D01*
X3724Y1032D02*
X3747Y1032D01*
X630Y1031D02*
X653Y1031D01*
X3724Y1031D02*
X3747Y1031D01*
X630Y1030D02*
X653Y1030D01*
X3724Y1030D02*
X3747Y1030D01*
X630Y1029D02*
X653Y1029D01*
X3724Y1029D02*
X3747Y1029D01*
X630Y1028D02*
X653Y1028D01*
X3724Y1028D02*
X3747Y1028D01*
X630Y1027D02*
X653Y1027D01*
X3724Y1027D02*
X3747Y1027D01*
X630Y1026D02*
X653Y1026D01*
X3724Y1026D02*
X3747Y1026D01*
X630Y1025D02*
X653Y1025D01*
X3724Y1025D02*
X3747Y1025D01*
X630Y1024D02*
X653Y1024D01*
X3724Y1024D02*
X3747Y1024D01*
X630Y1023D02*
X653Y1023D01*
X3724Y1023D02*
X3747Y1023D01*
X630Y1022D02*
X653Y1022D01*
X3724Y1022D02*
X3747Y1022D01*
X630Y1021D02*
X653Y1021D01*
X3724Y1021D02*
X3747Y1021D01*
X630Y1020D02*
X653Y1020D01*
X3724Y1020D02*
X3747Y1020D01*
X630Y1019D02*
X653Y1019D01*
X3724Y1019D02*
X3747Y1019D01*
X630Y1018D02*
X653Y1018D01*
X3724Y1018D02*
X3747Y1018D01*
X630Y1017D02*
X653Y1017D01*
X3724Y1017D02*
X3747Y1017D01*
X630Y1016D02*
X653Y1016D01*
X3724Y1016D02*
X3747Y1016D01*
X630Y1015D02*
X653Y1015D01*
X3724Y1015D02*
X3747Y1015D01*
X630Y1014D02*
X653Y1014D01*
X3724Y1014D02*
X3747Y1014D01*
X630Y1013D02*
X653Y1013D01*
X3724Y1013D02*
X3747Y1013D01*
X630Y1012D02*
X653Y1012D01*
X3724Y1012D02*
X3747Y1012D01*
X630Y1011D02*
X653Y1011D01*
X3724Y1011D02*
X3747Y1011D01*
X630Y1010D02*
X653Y1010D01*
X3724Y1010D02*
X3747Y1010D01*
X630Y1009D02*
X653Y1009D01*
X3724Y1009D02*
X3747Y1009D01*
X630Y1008D02*
X653Y1008D01*
X3724Y1008D02*
X3747Y1008D01*
X630Y1007D02*
X653Y1007D01*
X3724Y1007D02*
X3747Y1007D01*
X630Y1006D02*
X653Y1006D01*
X3724Y1006D02*
X3747Y1006D01*
X630Y1005D02*
X653Y1005D01*
X3724Y1005D02*
X3747Y1005D01*
X630Y1004D02*
X653Y1004D01*
X3724Y1004D02*
X3747Y1004D01*
X630Y1003D02*
X653Y1003D01*
X3724Y1003D02*
X3747Y1003D01*
X630Y1002D02*
X653Y1002D01*
X3724Y1002D02*
X3747Y1002D01*
X630Y1001D02*
X653Y1001D01*
X3724Y1001D02*
X3747Y1001D01*
X630Y1000D02*
X653Y1000D01*
X3724Y1000D02*
X3747Y1000D01*
X630Y999D02*
X653Y999D01*
X3724Y999D02*
X3747Y999D01*
X630Y998D02*
X653Y998D01*
X3724Y998D02*
X3747Y998D01*
X630Y997D02*
X653Y997D01*
X3724Y997D02*
X3747Y997D01*
X630Y996D02*
X653Y996D01*
X3724Y996D02*
X3747Y996D01*
X630Y995D02*
X653Y995D01*
X3724Y995D02*
X3747Y995D01*
X630Y994D02*
X653Y994D01*
X3724Y994D02*
X3747Y994D01*
X630Y993D02*
X653Y993D01*
X3724Y993D02*
X3747Y993D01*
X630Y992D02*
X653Y992D01*
X3724Y992D02*
X3747Y992D01*
X630Y991D02*
X653Y991D01*
X3724Y991D02*
X3747Y991D01*
X630Y990D02*
X653Y990D01*
X3724Y990D02*
X3747Y990D01*
X630Y989D02*
X653Y989D01*
X3724Y989D02*
X3747Y989D01*
X630Y988D02*
X653Y988D01*
X3724Y988D02*
X3747Y988D01*
X630Y987D02*
X653Y987D01*
X3724Y987D02*
X3747Y987D01*
X630Y986D02*
X653Y986D01*
X3724Y986D02*
X3747Y986D01*
X630Y985D02*
X653Y985D01*
X3724Y985D02*
X3747Y985D01*
X630Y984D02*
X653Y984D01*
X3724Y984D02*
X3747Y984D01*
X630Y983D02*
X653Y983D01*
X3724Y983D02*
X3747Y983D01*
X630Y982D02*
X653Y982D01*
X3724Y982D02*
X3747Y982D01*
X630Y981D02*
X653Y981D01*
X3724Y981D02*
X3747Y981D01*
X630Y980D02*
X653Y980D01*
X3724Y980D02*
X3747Y980D01*
X630Y979D02*
X653Y979D01*
X3724Y979D02*
X3747Y979D01*
X630Y978D02*
X653Y978D01*
X3724Y978D02*
X3747Y978D01*
X630Y977D02*
X653Y977D01*
X3724Y977D02*
X3747Y977D01*
X630Y976D02*
X653Y976D01*
X3724Y976D02*
X3747Y976D01*
X630Y975D02*
X653Y975D01*
X3724Y975D02*
X3747Y975D01*
X630Y974D02*
X653Y974D01*
X3724Y974D02*
X3747Y974D01*
X630Y973D02*
X653Y973D01*
X3724Y973D02*
X3747Y973D01*
X630Y972D02*
X653Y972D01*
X3724Y972D02*
X3747Y972D01*
X630Y971D02*
X653Y971D01*
X3724Y971D02*
X3747Y971D01*
X630Y970D02*
X653Y970D01*
X3724Y970D02*
X3747Y970D01*
X630Y969D02*
X653Y969D01*
X3724Y969D02*
X3747Y969D01*
X630Y968D02*
X653Y968D01*
X3724Y968D02*
X3747Y968D01*
X630Y967D02*
X653Y967D01*
X3724Y967D02*
X3747Y967D01*
X630Y966D02*
X653Y966D01*
X3724Y966D02*
X3747Y966D01*
X630Y965D02*
X653Y965D01*
X3724Y965D02*
X3747Y965D01*
X630Y964D02*
X653Y964D01*
X3724Y964D02*
X3747Y964D01*
X630Y963D02*
X653Y963D01*
X3724Y963D02*
X3747Y963D01*
X630Y962D02*
X653Y962D01*
X3724Y962D02*
X3747Y962D01*
X630Y961D02*
X653Y961D01*
X3724Y961D02*
X3747Y961D01*
X630Y960D02*
X653Y960D01*
X3724Y960D02*
X3747Y960D01*
X630Y959D02*
X653Y959D01*
X3724Y959D02*
X3747Y959D01*
X630Y958D02*
X653Y958D01*
X3724Y958D02*
X3747Y958D01*
X630Y957D02*
X653Y957D01*
X3724Y957D02*
X3747Y957D01*
X630Y956D02*
X653Y956D01*
X3724Y956D02*
X3747Y956D01*
X630Y955D02*
X653Y955D01*
X3724Y955D02*
X3747Y955D01*
X630Y954D02*
X653Y954D01*
X3724Y954D02*
X3747Y954D01*
X630Y953D02*
X653Y953D01*
X3724Y953D02*
X3747Y953D01*
X630Y952D02*
X653Y952D01*
X3724Y952D02*
X3747Y952D01*
X630Y951D02*
X653Y951D01*
X3724Y951D02*
X3747Y951D01*
X630Y950D02*
X653Y950D01*
X3724Y950D02*
X3747Y950D01*
X630Y949D02*
X653Y949D01*
X3725Y949D02*
X3747Y949D01*
X630Y948D02*
X653Y948D01*
X3725Y948D02*
X3748Y948D01*
X630Y947D02*
X653Y947D01*
X3725Y947D02*
X3748Y947D01*
X630Y946D02*
X653Y946D01*
X3725Y946D02*
X3748Y946D01*
X630Y945D02*
X653Y945D01*
X3725Y945D02*
X3748Y945D01*
X630Y944D02*
X653Y944D01*
X3725Y944D02*
X3748Y944D01*
X630Y943D02*
X653Y943D01*
X3725Y943D02*
X3748Y943D01*
X630Y942D02*
X653Y942D01*
X3725Y942D02*
X3748Y942D01*
X630Y941D02*
X653Y941D01*
X3725Y941D02*
X3748Y941D01*
X630Y940D02*
X653Y940D01*
X3725Y940D02*
X3748Y940D01*
X630Y939D02*
X653Y939D01*
X3725Y939D02*
X3748Y939D01*
X630Y938D02*
X653Y938D01*
X3725Y938D02*
X3748Y938D01*
X630Y937D02*
X653Y937D01*
X3725Y937D02*
X3748Y937D01*
X630Y936D02*
X653Y936D01*
X3725Y936D02*
X3748Y936D01*
X630Y935D02*
X653Y935D01*
X3725Y935D02*
X3748Y935D01*
X630Y934D02*
X653Y934D01*
X3725Y934D02*
X3748Y934D01*
X630Y933D02*
X653Y933D01*
X3725Y933D02*
X3748Y933D01*
X630Y932D02*
X653Y932D01*
X3725Y932D02*
X3748Y932D01*
X630Y931D02*
X653Y931D01*
X3725Y931D02*
X3748Y931D01*
X630Y930D02*
X653Y930D01*
X3725Y930D02*
X3748Y930D01*
X630Y929D02*
X653Y929D01*
X3725Y929D02*
X3748Y929D01*
X630Y928D02*
X653Y928D01*
X3725Y928D02*
X3748Y928D01*
X630Y927D02*
X653Y927D01*
X3725Y927D02*
X3748Y927D01*
X630Y926D02*
X653Y926D01*
X3725Y926D02*
X3748Y926D01*
X630Y925D02*
X653Y925D01*
X3725Y925D02*
X3748Y925D01*
X630Y924D02*
X653Y924D01*
X3725Y924D02*
X3748Y924D01*
X630Y923D02*
X653Y923D01*
X3725Y923D02*
X3748Y923D01*
X630Y922D02*
X653Y922D01*
X3725Y922D02*
X3748Y922D01*
X630Y921D02*
X653Y921D01*
X3725Y921D02*
X3748Y921D01*
X630Y920D02*
X653Y920D01*
X3725Y920D02*
X3748Y920D01*
X630Y919D02*
X653Y919D01*
X3725Y919D02*
X3748Y919D01*
X630Y918D02*
X653Y918D01*
X3725Y918D02*
X3748Y918D01*
X630Y917D02*
X653Y917D01*
X3725Y917D02*
X3748Y917D01*
X630Y916D02*
X653Y916D01*
X3725Y916D02*
X3748Y916D01*
X630Y915D02*
X653Y915D01*
X3725Y915D02*
X3748Y915D01*
X630Y914D02*
X653Y914D01*
X3725Y914D02*
X3748Y914D01*
X630Y913D02*
X653Y913D01*
X3725Y913D02*
X3748Y913D01*
X630Y912D02*
X653Y912D01*
X3725Y912D02*
X3748Y912D01*
X630Y911D02*
X653Y911D01*
X3725Y911D02*
X3748Y911D01*
X630Y910D02*
X653Y910D01*
X3725Y910D02*
X3748Y910D01*
X630Y909D02*
X653Y909D01*
X3725Y909D02*
X3748Y909D01*
X630Y908D02*
X653Y908D01*
X3725Y908D02*
X3748Y908D01*
X630Y907D02*
X653Y907D01*
X3725Y907D02*
X3748Y907D01*
X630Y906D02*
X653Y906D01*
X3725Y906D02*
X3748Y906D01*
X630Y905D02*
X653Y905D01*
X3725Y905D02*
X3748Y905D01*
X630Y904D02*
X653Y904D01*
X3725Y904D02*
X3748Y904D01*
X630Y903D02*
X653Y903D01*
X3725Y903D02*
X3748Y903D01*
X630Y902D02*
X653Y902D01*
X3725Y902D02*
X3748Y902D01*
X630Y901D02*
X653Y901D01*
X3725Y901D02*
X3748Y901D01*
X630Y900D02*
X653Y900D01*
X3725Y900D02*
X3748Y900D01*
X630Y899D02*
X653Y899D01*
X3725Y899D02*
X3748Y899D01*
X630Y898D02*
X653Y898D01*
X3725Y898D02*
X3748Y898D01*
X630Y897D02*
X653Y897D01*
X3725Y897D02*
X3748Y897D01*
X630Y896D02*
X653Y896D01*
X3725Y896D02*
X3748Y896D01*
X630Y895D02*
X653Y895D01*
X3725Y895D02*
X3748Y895D01*
X630Y894D02*
X653Y894D01*
X3725Y894D02*
X3748Y894D01*
X630Y893D02*
X653Y893D01*
X3725Y893D02*
X3748Y893D01*
X630Y892D02*
X653Y892D01*
X3725Y892D02*
X3748Y892D01*
X630Y891D02*
X653Y891D01*
X3725Y891D02*
X3748Y891D01*
X630Y890D02*
X653Y890D01*
X3725Y890D02*
X3748Y890D01*
X630Y889D02*
X653Y889D01*
X3725Y889D02*
X3748Y889D01*
X630Y888D02*
X653Y888D01*
X3725Y888D02*
X3748Y888D01*
X630Y887D02*
X653Y887D01*
X3725Y887D02*
X3748Y887D01*
X630Y886D02*
X653Y886D01*
X3725Y886D02*
X3748Y886D01*
X630Y885D02*
X653Y885D01*
X3725Y885D02*
X3748Y885D01*
X630Y884D02*
X653Y884D01*
X3725Y884D02*
X3748Y884D01*
X630Y883D02*
X653Y883D01*
X3725Y883D02*
X3748Y883D01*
X630Y882D02*
X653Y882D01*
X3725Y882D02*
X3748Y882D01*
X630Y881D02*
X653Y881D01*
X3725Y881D02*
X3748Y881D01*
X630Y880D02*
X653Y880D01*
X3725Y880D02*
X3748Y880D01*
X630Y879D02*
X653Y879D01*
X3725Y879D02*
X3748Y879D01*
X630Y878D02*
X653Y878D01*
X3725Y878D02*
X3748Y878D01*
X630Y877D02*
X653Y877D01*
X3725Y877D02*
X3748Y877D01*
X630Y876D02*
X653Y876D01*
X3725Y876D02*
X3748Y876D01*
X630Y875D02*
X653Y875D01*
X3725Y875D02*
X3748Y875D01*
X630Y874D02*
X653Y874D01*
X3725Y874D02*
X3748Y874D01*
X630Y873D02*
X653Y873D01*
X3725Y873D02*
X3748Y873D01*
X630Y872D02*
X653Y872D01*
X3725Y872D02*
X3748Y872D01*
X630Y871D02*
X653Y871D01*
X3725Y871D02*
X3748Y871D01*
X630Y870D02*
X653Y870D01*
X3725Y870D02*
X3748Y870D01*
X630Y869D02*
X653Y869D01*
X3725Y869D02*
X3748Y869D01*
X630Y868D02*
X653Y868D01*
X3725Y868D02*
X3748Y868D01*
X630Y867D02*
X653Y867D01*
X3725Y867D02*
X3748Y867D01*
X630Y866D02*
X653Y866D01*
X3725Y866D02*
X3748Y866D01*
X630Y865D02*
X653Y865D01*
X3725Y865D02*
X3748Y865D01*
X630Y864D02*
X653Y864D01*
X3725Y864D02*
X3748Y864D01*
X630Y863D02*
X653Y863D01*
X3725Y863D02*
X3748Y863D01*
X630Y862D02*
X653Y862D01*
X3725Y862D02*
X3748Y862D01*
X630Y861D02*
X653Y861D01*
X3725Y861D02*
X3748Y861D01*
X630Y860D02*
X653Y860D01*
X3725Y860D02*
X3748Y860D01*
X630Y859D02*
X653Y859D01*
X3725Y859D02*
X3748Y859D01*
X630Y858D02*
X653Y858D01*
X3725Y858D02*
X3748Y858D01*
X630Y857D02*
X653Y857D01*
X3725Y857D02*
X3748Y857D01*
X630Y856D02*
X653Y856D01*
X3725Y856D02*
X3748Y856D01*
X630Y855D02*
X653Y855D01*
X3725Y855D02*
X3748Y855D01*
X630Y854D02*
X653Y854D01*
X3725Y854D02*
X3748Y854D01*
X630Y853D02*
X653Y853D01*
X3725Y853D02*
X3748Y853D01*
X630Y852D02*
X653Y852D01*
X3725Y852D02*
X3748Y852D01*
X630Y851D02*
X653Y851D01*
X3725Y851D02*
X3748Y851D01*
X630Y850D02*
X653Y850D01*
X3725Y850D02*
X3748Y850D01*
X630Y849D02*
X653Y849D01*
X3725Y849D02*
X3748Y849D01*
X630Y848D02*
X653Y848D01*
X3725Y848D02*
X3748Y848D01*
X630Y847D02*
X653Y847D01*
X3725Y847D02*
X3748Y847D01*
X630Y846D02*
X653Y846D01*
X3725Y846D02*
X3748Y846D01*
X630Y845D02*
X653Y845D01*
X3725Y845D02*
X3748Y845D01*
X630Y844D02*
X653Y844D01*
X3725Y844D02*
X3748Y844D01*
X630Y843D02*
X653Y843D01*
X3725Y843D02*
X3748Y843D01*
X630Y842D02*
X653Y842D01*
X3725Y842D02*
X3748Y842D01*
X630Y841D02*
X653Y841D01*
X3725Y841D02*
X3748Y841D01*
X630Y840D02*
X653Y840D01*
X3725Y840D02*
X3748Y840D01*
X630Y839D02*
X653Y839D01*
X3725Y839D02*
X3748Y839D01*
X630Y838D02*
X653Y838D01*
X3725Y838D02*
X3748Y838D01*
X630Y837D02*
X653Y837D01*
X3725Y837D02*
X3748Y837D01*
X630Y836D02*
X653Y836D01*
X3725Y836D02*
X3748Y836D01*
X630Y835D02*
X653Y835D01*
X3725Y835D02*
X3748Y835D01*
X630Y834D02*
X653Y834D01*
X3725Y834D02*
X3748Y834D01*
X630Y833D02*
X653Y833D01*
X3725Y833D02*
X3748Y833D01*
X630Y832D02*
X653Y832D01*
X3725Y832D02*
X3748Y832D01*
X630Y831D02*
X653Y831D01*
X3725Y831D02*
X3748Y831D01*
X630Y830D02*
X653Y830D01*
X3725Y830D02*
X3748Y830D01*
X630Y829D02*
X653Y829D01*
X3725Y829D02*
X3748Y829D01*
X630Y828D02*
X653Y828D01*
X3725Y828D02*
X3748Y828D01*
X630Y827D02*
X653Y827D01*
X3725Y827D02*
X3748Y827D01*
X630Y826D02*
X653Y826D01*
X3725Y826D02*
X3748Y826D01*
X630Y825D02*
X653Y825D01*
X3725Y825D02*
X3748Y825D01*
X630Y824D02*
X653Y824D01*
X3725Y824D02*
X3748Y824D01*
X630Y823D02*
X653Y823D01*
X3725Y823D02*
X3748Y823D01*
X630Y822D02*
X653Y822D01*
X3725Y822D02*
X3748Y822D01*
X630Y821D02*
X653Y821D01*
X3725Y821D02*
X3748Y821D01*
X630Y820D02*
X653Y820D01*
X3725Y820D02*
X3748Y820D01*
X630Y819D02*
X653Y819D01*
X3725Y819D02*
X3748Y819D01*
X630Y818D02*
X653Y818D01*
X3725Y818D02*
X3748Y818D01*
X630Y817D02*
X653Y817D01*
X3725Y817D02*
X3748Y817D01*
X630Y816D02*
X653Y816D01*
X3725Y816D02*
X3748Y816D01*
X630Y815D02*
X653Y815D01*
X3725Y815D02*
X3748Y815D01*
X630Y814D02*
X653Y814D01*
X3725Y814D02*
X3748Y814D01*
X630Y813D02*
X653Y813D01*
X3725Y813D02*
X3748Y813D01*
X630Y812D02*
X653Y812D01*
X3725Y812D02*
X3748Y812D01*
X630Y811D02*
X653Y811D01*
X3725Y811D02*
X3748Y811D01*
X630Y810D02*
X653Y810D01*
X3725Y810D02*
X3748Y810D01*
X630Y809D02*
X653Y809D01*
X3725Y809D02*
X3748Y809D01*
X630Y808D02*
X653Y808D01*
X3725Y808D02*
X3748Y808D01*
X630Y807D02*
X653Y807D01*
X3725Y807D02*
X3748Y807D01*
X630Y806D02*
X653Y806D01*
X3725Y806D02*
X3748Y806D01*
X630Y805D02*
X653Y805D01*
X3725Y805D02*
X3748Y805D01*
X630Y804D02*
X653Y804D01*
X3725Y804D02*
X3748Y804D01*
X630Y803D02*
X653Y803D01*
X3725Y803D02*
X3748Y803D01*
X630Y802D02*
X653Y802D01*
X3725Y802D02*
X3748Y802D01*
X630Y801D02*
X653Y801D01*
X3725Y801D02*
X3748Y801D01*
X630Y800D02*
X653Y800D01*
X3725Y800D02*
X3748Y800D01*
X630Y799D02*
X653Y799D01*
X3725Y799D02*
X3748Y799D01*
X630Y798D02*
X653Y798D01*
X3725Y798D02*
X3748Y798D01*
X630Y797D02*
X653Y797D01*
X3725Y797D02*
X3748Y797D01*
X630Y796D02*
X653Y796D01*
X3725Y796D02*
X3748Y796D01*
X630Y795D02*
X653Y795D01*
X3725Y795D02*
X3748Y795D01*
X630Y794D02*
X653Y794D01*
X3725Y794D02*
X3748Y794D01*
X630Y793D02*
X653Y793D01*
X3725Y793D02*
X3748Y793D01*
X630Y792D02*
X653Y792D01*
X3725Y792D02*
X3748Y792D01*
X630Y791D02*
X653Y791D01*
X3725Y791D02*
X3748Y791D01*
X630Y790D02*
X653Y790D01*
X3725Y790D02*
X3748Y790D01*
X630Y789D02*
X653Y789D01*
X3725Y789D02*
X3748Y789D01*
X630Y788D02*
X653Y788D01*
X3725Y788D02*
X3748Y788D01*
X630Y787D02*
X653Y787D01*
X3725Y787D02*
X3748Y787D01*
X630Y786D02*
X653Y786D01*
X3725Y786D02*
X3748Y786D01*
X630Y785D02*
X653Y785D01*
X3725Y785D02*
X3748Y785D01*
X630Y784D02*
X653Y784D01*
X3725Y784D02*
X3748Y784D01*
X630Y783D02*
X653Y783D01*
X3725Y783D02*
X3748Y783D01*
X630Y782D02*
X653Y782D01*
X3725Y782D02*
X3748Y782D01*
X630Y781D02*
X653Y781D01*
X3725Y781D02*
X3748Y781D01*
X630Y780D02*
X653Y780D01*
X3725Y780D02*
X3748Y780D01*
X630Y779D02*
X653Y779D01*
X3725Y779D02*
X3748Y779D01*
X630Y778D02*
X653Y778D01*
X3725Y778D02*
X3748Y778D01*
X630Y777D02*
X653Y777D01*
X3725Y777D02*
X3748Y777D01*
X630Y776D02*
X653Y776D01*
X3725Y776D02*
X3748Y776D01*
X630Y775D02*
X653Y775D01*
X3725Y775D02*
X3748Y775D01*
X630Y774D02*
X653Y774D01*
X3725Y774D02*
X3748Y774D01*
X630Y773D02*
X653Y773D01*
X3725Y773D02*
X3748Y773D01*
X630Y772D02*
X653Y772D01*
X3725Y772D02*
X3748Y772D01*
X630Y771D02*
X653Y771D01*
X3725Y771D02*
X3748Y771D01*
X630Y770D02*
X653Y770D01*
X3725Y770D02*
X3748Y770D01*
X630Y769D02*
X653Y769D01*
X3725Y769D02*
X3748Y769D01*
X630Y768D02*
X653Y768D01*
X3725Y768D02*
X3748Y768D01*
X630Y767D02*
X653Y767D01*
X3726Y767D02*
X3748Y767D01*
X630Y766D02*
X653Y766D01*
X3726Y766D02*
X3749Y766D01*
X630Y765D02*
X653Y765D01*
X3726Y765D02*
X3749Y765D01*
X630Y764D02*
X653Y764D01*
X3726Y764D02*
X3749Y764D01*
X630Y763D02*
X653Y763D01*
X3726Y763D02*
X3749Y763D01*
X630Y762D02*
X653Y762D01*
X3726Y762D02*
X3749Y762D01*
X630Y761D02*
X653Y761D01*
X3726Y761D02*
X3749Y761D01*
X630Y760D02*
X653Y760D01*
X3726Y760D02*
X3749Y760D01*
X630Y759D02*
X653Y759D01*
X3726Y759D02*
X3749Y759D01*
X630Y758D02*
X653Y758D01*
X3726Y758D02*
X3749Y758D01*
X630Y757D02*
X653Y757D01*
X3726Y757D02*
X3749Y757D01*
X630Y756D02*
X653Y756D01*
X3726Y756D02*
X3749Y756D01*
X630Y755D02*
X653Y755D01*
X3726Y755D02*
X3749Y755D01*
X630Y754D02*
X653Y754D01*
X3726Y754D02*
X3749Y754D01*
X630Y753D02*
X653Y753D01*
X3726Y753D02*
X3749Y753D01*
X630Y752D02*
X653Y752D01*
X3726Y752D02*
X3749Y752D01*
X630Y751D02*
X653Y751D01*
X3726Y751D02*
X3749Y751D01*
X630Y750D02*
X653Y750D01*
X3726Y750D02*
X3749Y750D01*
X630Y749D02*
X653Y749D01*
X3726Y749D02*
X3749Y749D01*
X630Y748D02*
X653Y748D01*
X3726Y748D02*
X3749Y748D01*
X630Y747D02*
X653Y747D01*
X3726Y747D02*
X3749Y747D01*
X630Y746D02*
X653Y746D01*
X3726Y746D02*
X3749Y746D01*
X630Y745D02*
X653Y745D01*
X3726Y745D02*
X3749Y745D01*
X630Y744D02*
X653Y744D01*
X3726Y744D02*
X3749Y744D01*
X630Y743D02*
X653Y743D01*
X3726Y743D02*
X3749Y743D01*
X630Y742D02*
X653Y742D01*
X3726Y742D02*
X3749Y742D01*
X630Y741D02*
X653Y741D01*
X3726Y741D02*
X3749Y741D01*
X630Y740D02*
X653Y740D01*
X3726Y740D02*
X3749Y740D01*
X630Y739D02*
X653Y739D01*
X3726Y739D02*
X3749Y739D01*
X630Y738D02*
X653Y738D01*
X3726Y738D02*
X3749Y738D01*
X630Y737D02*
X653Y737D01*
X3726Y737D02*
X3749Y737D01*
X630Y736D02*
X653Y736D01*
X3726Y736D02*
X3749Y736D01*
X630Y735D02*
X653Y735D01*
X3726Y735D02*
X3749Y735D01*
X630Y734D02*
X653Y734D01*
X3726Y734D02*
X3749Y734D01*
X630Y733D02*
X653Y733D01*
X3726Y733D02*
X3749Y733D01*
X630Y732D02*
X653Y732D01*
X3726Y732D02*
X3749Y732D01*
X630Y731D02*
X653Y731D01*
X3726Y731D02*
X3749Y731D01*
X630Y730D02*
X653Y730D01*
X3726Y730D02*
X3749Y730D01*
X630Y729D02*
X653Y729D01*
X3726Y729D02*
X3749Y729D01*
X630Y728D02*
X653Y728D01*
X3726Y728D02*
X3749Y728D01*
X630Y727D02*
X653Y727D01*
X3726Y727D02*
X3749Y727D01*
X630Y726D02*
X653Y726D01*
X3726Y726D02*
X3749Y726D01*
X630Y725D02*
X653Y725D01*
X3726Y725D02*
X3749Y725D01*
X630Y724D02*
X653Y724D01*
X3726Y724D02*
X3749Y724D01*
X630Y723D02*
X653Y723D01*
X3726Y723D02*
X3749Y723D01*
X630Y722D02*
X653Y722D01*
X3726Y722D02*
X3749Y722D01*
X630Y721D02*
X653Y721D01*
X3726Y721D02*
X3749Y721D01*
X630Y720D02*
X653Y720D01*
X3726Y720D02*
X3749Y720D01*
X630Y719D02*
X653Y719D01*
X3726Y719D02*
X3749Y719D01*
X630Y718D02*
X653Y718D01*
X3726Y718D02*
X3749Y718D01*
X630Y717D02*
X653Y717D01*
X3726Y717D02*
X3749Y717D01*
X630Y716D02*
X653Y716D01*
X3726Y716D02*
X3749Y716D01*
X630Y715D02*
X653Y715D01*
X3726Y715D02*
X3749Y715D01*
X630Y714D02*
X653Y714D01*
X3726Y714D02*
X3749Y714D01*
X630Y713D02*
X653Y713D01*
X3726Y713D02*
X3749Y713D01*
X630Y712D02*
X653Y712D01*
X3726Y712D02*
X3749Y712D01*
X630Y711D02*
X653Y711D01*
X3726Y711D02*
X3749Y711D01*
X630Y710D02*
X653Y710D01*
X3726Y710D02*
X3749Y710D01*
X630Y709D02*
X653Y709D01*
X3726Y709D02*
X3749Y709D01*
X630Y708D02*
X653Y708D01*
X3726Y708D02*
X3749Y708D01*
X630Y707D02*
X653Y707D01*
X3726Y707D02*
X3749Y707D01*
X630Y706D02*
X653Y706D01*
X3726Y706D02*
X3749Y706D01*
X630Y705D02*
X653Y705D01*
X3726Y705D02*
X3749Y705D01*
X630Y704D02*
X653Y704D01*
X3726Y704D02*
X3749Y704D01*
X630Y703D02*
X653Y703D01*
X3726Y703D02*
X3749Y703D01*
X630Y702D02*
X653Y702D01*
X3726Y702D02*
X3749Y702D01*
X630Y701D02*
X653Y701D01*
X3726Y701D02*
X3749Y701D01*
X630Y700D02*
X653Y700D01*
X3726Y700D02*
X3749Y700D01*
X630Y699D02*
X653Y699D01*
X3726Y699D02*
X3749Y699D01*
X630Y698D02*
X653Y698D01*
X3726Y698D02*
X3749Y698D01*
X630Y697D02*
X653Y697D01*
X3726Y697D02*
X3749Y697D01*
X630Y696D02*
X653Y696D01*
X3726Y696D02*
X3749Y696D01*
X630Y695D02*
X653Y695D01*
X3726Y695D02*
X3749Y695D01*
X630Y694D02*
X653Y694D01*
X3726Y694D02*
X3749Y694D01*
X630Y693D02*
X653Y693D01*
X3726Y693D02*
X3749Y693D01*
X630Y692D02*
X653Y692D01*
X3726Y692D02*
X3749Y692D01*
X630Y691D02*
X653Y691D01*
X3726Y691D02*
X3749Y691D01*
X630Y690D02*
X653Y690D01*
X3726Y690D02*
X3749Y690D01*
X630Y689D02*
X653Y689D01*
X3726Y689D02*
X3749Y689D01*
X630Y688D02*
X653Y688D01*
X3726Y688D02*
X3749Y688D01*
X630Y687D02*
X653Y687D01*
X3726Y687D02*
X3749Y687D01*
X630Y686D02*
X653Y686D01*
X3726Y686D02*
X3749Y686D01*
X630Y685D02*
X653Y685D01*
X3726Y685D02*
X3749Y685D01*
X630Y684D02*
X653Y684D01*
X3726Y684D02*
X3749Y684D01*
X630Y683D02*
X653Y683D01*
X3726Y683D02*
X3749Y683D01*
X630Y682D02*
X653Y682D01*
X3726Y682D02*
X3749Y682D01*
X630Y681D02*
X653Y681D01*
X3726Y681D02*
X3749Y681D01*
X630Y680D02*
X653Y680D01*
X3726Y680D02*
X3749Y680D01*
X630Y679D02*
X653Y679D01*
X3726Y679D02*
X3749Y679D01*
X630Y678D02*
X653Y678D01*
X3726Y678D02*
X3749Y678D01*
X630Y677D02*
X653Y677D01*
X3726Y677D02*
X3749Y677D01*
X630Y676D02*
X653Y676D01*
X3726Y676D02*
X3749Y676D01*
X630Y675D02*
X653Y675D01*
X3726Y675D02*
X3749Y675D01*
X630Y674D02*
X653Y674D01*
X3726Y674D02*
X3749Y674D01*
X630Y673D02*
X653Y673D01*
X3726Y673D02*
X3749Y673D01*
X630Y672D02*
X653Y672D01*
X3726Y672D02*
X3749Y672D01*
X630Y671D02*
X653Y671D01*
X3726Y671D02*
X3749Y671D01*
X630Y670D02*
X653Y670D01*
X3726Y670D02*
X3749Y670D01*
X630Y669D02*
X653Y669D01*
X3726Y669D02*
X3749Y669D01*
X630Y668D02*
X653Y668D01*
X3726Y668D02*
X3749Y668D01*
X630Y667D02*
X653Y667D01*
X3726Y667D02*
X3749Y667D01*
X630Y666D02*
X653Y666D01*
X3726Y666D02*
X3749Y666D01*
X630Y665D02*
X653Y665D01*
X3726Y665D02*
X3749Y665D01*
X630Y664D02*
X653Y664D01*
X3726Y664D02*
X3749Y664D01*
X630Y663D02*
X653Y663D01*
X3726Y663D02*
X3749Y663D01*
X630Y662D02*
X653Y662D01*
X3726Y662D02*
X3749Y662D01*
X630Y661D02*
X653Y661D01*
X3726Y661D02*
X3749Y661D01*
X630Y660D02*
X653Y660D01*
X3726Y660D02*
X3749Y660D01*
X630Y659D02*
X653Y659D01*
X3726Y659D02*
X3749Y659D01*
X630Y658D02*
X653Y658D01*
X3726Y658D02*
X3749Y658D01*
X630Y657D02*
X653Y657D01*
X3726Y657D02*
X3749Y657D01*
X630Y656D02*
X653Y656D01*
X3726Y656D02*
X3749Y656D01*
X630Y655D02*
X653Y655D01*
X3726Y655D02*
X3749Y655D01*
X630Y654D02*
X653Y654D01*
X3726Y654D02*
X3749Y654D01*
X630Y653D02*
X653Y653D01*
X3726Y653D02*
X3749Y653D01*
X630Y652D02*
X653Y652D01*
X3726Y652D02*
X3749Y652D01*
X630Y651D02*
X653Y651D01*
X3726Y651D02*
X3749Y651D01*
X630Y650D02*
X653Y650D01*
X3726Y650D02*
X3749Y650D01*
X630Y649D02*
X653Y649D01*
X3726Y649D02*
X3749Y649D01*
X630Y648D02*
X653Y648D01*
X3726Y648D02*
X3749Y648D01*
X630Y647D02*
X653Y647D01*
X3726Y647D02*
X3749Y647D01*
X630Y646D02*
X653Y646D01*
X3726Y646D02*
X3749Y646D01*
X630Y645D02*
X653Y645D01*
X3726Y645D02*
X3749Y645D01*
X630Y644D02*
X653Y644D01*
X3726Y644D02*
X3749Y644D01*
X630Y643D02*
X653Y643D01*
X3726Y643D02*
X3749Y643D01*
X630Y642D02*
X653Y642D01*
X3726Y642D02*
X3749Y642D01*
X630Y641D02*
X653Y641D01*
X3726Y641D02*
X3749Y641D01*
X630Y640D02*
X653Y640D01*
X3726Y640D02*
X3749Y640D01*
X630Y639D02*
X653Y639D01*
X3726Y639D02*
X3749Y639D01*
X630Y638D02*
X653Y638D01*
X3726Y638D02*
X3749Y638D01*
X630Y637D02*
X653Y637D01*
X3726Y637D02*
X3749Y637D01*
X630Y636D02*
X653Y636D01*
X3726Y636D02*
X3749Y636D01*
X630Y635D02*
X653Y635D01*
X3726Y635D02*
X3749Y635D01*
X630Y634D02*
X653Y634D01*
X3726Y634D02*
X3749Y634D01*
X630Y633D02*
X653Y633D01*
X3726Y633D02*
X3749Y633D01*
X630Y632D02*
X653Y632D01*
X3726Y632D02*
X3749Y632D01*
X630Y631D02*
X653Y631D01*
X3726Y631D02*
X3749Y631D01*
X630Y630D02*
X653Y630D01*
X3726Y630D02*
X3749Y630D01*
X630Y629D02*
X653Y629D01*
X3726Y629D02*
X3749Y629D01*
X630Y628D02*
X653Y628D01*
X3726Y628D02*
X3749Y628D01*
X630Y627D02*
X653Y627D01*
X3726Y627D02*
X3749Y627D01*
X630Y626D02*
X653Y626D01*
X3726Y626D02*
X3749Y626D01*
X630Y625D02*
X653Y625D01*
X3726Y625D02*
X3749Y625D01*
X630Y624D02*
X653Y624D01*
X3726Y624D02*
X3749Y624D01*
X630Y623D02*
X653Y623D01*
X3726Y623D02*
X3749Y623D01*
X630Y622D02*
X653Y622D01*
X3726Y622D02*
X3749Y622D01*
X630Y621D02*
X653Y621D01*
X3726Y621D02*
X3749Y621D01*
X630Y620D02*
X653Y620D01*
X3726Y620D02*
X3749Y620D01*
X630Y619D02*
X653Y619D01*
X3726Y619D02*
X3749Y619D01*
X630Y618D02*
X653Y618D01*
X3726Y618D02*
X3749Y618D01*
X630Y617D02*
X653Y617D01*
X3726Y617D02*
X3749Y617D01*
X630Y616D02*
X653Y616D01*
X3726Y616D02*
X3749Y616D01*
X630Y615D02*
X653Y615D01*
X3726Y615D02*
X3749Y615D01*
X630Y614D02*
X653Y614D01*
X3726Y614D02*
X3749Y614D01*
X630Y613D02*
X653Y613D01*
X3726Y613D02*
X3749Y613D01*
X630Y612D02*
X653Y612D01*
X3726Y612D02*
X3749Y612D01*
X630Y611D02*
X653Y611D01*
X3726Y611D02*
X3749Y611D01*
X630Y610D02*
X653Y610D01*
X3726Y610D02*
X3749Y610D01*
X630Y609D02*
X653Y609D01*
X3726Y609D02*
X3749Y609D01*
X630Y608D02*
X653Y608D01*
X3726Y608D02*
X3749Y608D01*
X630Y607D02*
X653Y607D01*
X3726Y607D02*
X3749Y607D01*
X630Y606D02*
X653Y606D01*
X3726Y606D02*
X3749Y606D01*
X630Y605D02*
X653Y605D01*
X3726Y605D02*
X3749Y605D01*
X630Y604D02*
X653Y604D01*
X3726Y604D02*
X3749Y604D01*
X630Y603D02*
X653Y603D01*
X3726Y603D02*
X3749Y603D01*
X630Y602D02*
X653Y602D01*
X3726Y602D02*
X3749Y602D01*
X630Y601D02*
X653Y601D01*
X3726Y601D02*
X3749Y601D01*
X630Y600D02*
X653Y600D01*
X3726Y600D02*
X3749Y600D01*
X630Y599D02*
X653Y599D01*
X3726Y599D02*
X3749Y599D01*
X630Y598D02*
X653Y598D01*
X3726Y598D02*
X3749Y598D01*
X630Y597D02*
X653Y597D01*
X3726Y597D02*
X3749Y597D01*
X630Y596D02*
X653Y596D01*
X3726Y596D02*
X3749Y596D01*
X630Y595D02*
X653Y595D01*
X3726Y595D02*
X3749Y595D01*
X630Y594D02*
X653Y594D01*
X3726Y594D02*
X3749Y594D01*
X630Y593D02*
X653Y593D01*
X3726Y593D02*
X3749Y593D01*
X630Y592D02*
X653Y592D01*
X3726Y592D02*
X3749Y592D01*
X630Y591D02*
X653Y591D01*
X3726Y591D02*
X3749Y591D01*
X630Y590D02*
X653Y590D01*
X3726Y590D02*
X3749Y590D01*
X630Y589D02*
X653Y589D01*
X3726Y589D02*
X3749Y589D01*
X630Y588D02*
X653Y588D01*
X3726Y588D02*
X3749Y588D01*
X630Y587D02*
X653Y587D01*
X3726Y587D02*
X3749Y587D01*
X630Y586D02*
X653Y586D01*
X3726Y586D02*
X3749Y586D01*
X630Y585D02*
X653Y585D01*
X3726Y585D02*
X3749Y585D01*
X630Y584D02*
X653Y584D01*
X3727Y584D02*
X3750Y584D01*
X630Y583D02*
X653Y583D01*
X3727Y583D02*
X3750Y583D01*
X630Y582D02*
X653Y582D01*
X3727Y582D02*
X3750Y582D01*
X630Y581D02*
X653Y581D01*
X3727Y581D02*
X3750Y581D01*
X630Y580D02*
X653Y580D01*
X3727Y580D02*
X3750Y580D01*
X630Y579D02*
X653Y579D01*
X3727Y579D02*
X3750Y579D01*
X630Y578D02*
X653Y578D01*
X3727Y578D02*
X3750Y578D01*
X630Y577D02*
X653Y577D01*
X3727Y577D02*
X3750Y577D01*
X630Y576D02*
X653Y576D01*
X3727Y576D02*
X3750Y576D01*
X630Y575D02*
X653Y575D01*
X3727Y575D02*
X3750Y575D01*
X630Y574D02*
X653Y574D01*
X3727Y574D02*
X3750Y574D01*
X630Y573D02*
X653Y573D01*
X3727Y573D02*
X3750Y573D01*
X630Y572D02*
X653Y572D01*
X3727Y572D02*
X3750Y572D01*
X630Y571D02*
X653Y571D01*
X3727Y571D02*
X3750Y571D01*
X630Y570D02*
X653Y570D01*
X3727Y570D02*
X3750Y570D01*
X630Y569D02*
X653Y569D01*
X3727Y569D02*
X3750Y569D01*
X630Y568D02*
X653Y568D01*
X3727Y568D02*
X3750Y568D01*
X630Y567D02*
X653Y567D01*
X3727Y567D02*
X3750Y567D01*
X630Y566D02*
X653Y566D01*
X3727Y566D02*
X3750Y566D01*
X630Y565D02*
X653Y565D01*
X3727Y565D02*
X3750Y565D01*
X630Y564D02*
X653Y564D01*
X3727Y564D02*
X3750Y564D01*
X630Y563D02*
X653Y563D01*
X3727Y563D02*
X3750Y563D01*
X630Y562D02*
X653Y562D01*
X3727Y562D02*
X3750Y562D01*
X630Y561D02*
X653Y561D01*
X3727Y561D02*
X3750Y561D01*
X630Y560D02*
X653Y560D01*
X3727Y560D02*
X3750Y560D01*
X630Y559D02*
X653Y559D01*
X3727Y559D02*
X3750Y559D01*
X630Y558D02*
X653Y558D01*
X3727Y558D02*
X3750Y558D01*
X630Y557D02*
X653Y557D01*
X3727Y557D02*
X3750Y557D01*
X630Y556D02*
X653Y556D01*
X3727Y556D02*
X3750Y556D01*
X630Y555D02*
X653Y555D01*
X3727Y555D02*
X3750Y555D01*
X630Y554D02*
X653Y554D01*
X3727Y554D02*
X3750Y554D01*
X630Y553D02*
X653Y553D01*
X3727Y553D02*
X3750Y553D01*
X630Y552D02*
X653Y552D01*
X3727Y552D02*
X3750Y552D01*
X630Y551D02*
X653Y551D01*
X3727Y551D02*
X3750Y551D01*
X630Y550D02*
X653Y550D01*
X3727Y550D02*
X3750Y550D01*
X630Y549D02*
X653Y549D01*
X3727Y549D02*
X3750Y549D01*
X630Y548D02*
X653Y548D01*
X3727Y548D02*
X3750Y548D01*
X630Y547D02*
X653Y547D01*
X3727Y547D02*
X3750Y547D01*
X630Y546D02*
X653Y546D01*
X3727Y546D02*
X3750Y546D01*
X630Y545D02*
X653Y545D01*
X3727Y545D02*
X3750Y545D01*
X630Y544D02*
X653Y544D01*
X3727Y544D02*
X3750Y544D01*
X630Y543D02*
X653Y543D01*
X3727Y543D02*
X3750Y543D01*
X630Y542D02*
X653Y542D01*
X3727Y542D02*
X3750Y542D01*
X630Y541D02*
X653Y541D01*
X3727Y541D02*
X3750Y541D01*
X630Y540D02*
X653Y540D01*
X3727Y540D02*
X3750Y540D01*
X630Y539D02*
X653Y539D01*
X3727Y539D02*
X3750Y539D01*
X630Y538D02*
X653Y538D01*
X3727Y538D02*
X3750Y538D01*
X630Y537D02*
X653Y537D01*
X3727Y537D02*
X3750Y537D01*
X630Y536D02*
X653Y536D01*
X3727Y536D02*
X3750Y536D01*
X630Y535D02*
X653Y535D01*
X3727Y535D02*
X3750Y535D01*
X630Y534D02*
X653Y534D01*
X3727Y534D02*
X3750Y534D01*
X630Y533D02*
X653Y533D01*
X3727Y533D02*
X3750Y533D01*
X630Y532D02*
X653Y532D01*
X3727Y532D02*
X3750Y532D01*
X630Y531D02*
X653Y531D01*
X3727Y531D02*
X3750Y531D01*
X630Y530D02*
X653Y530D01*
X3727Y530D02*
X3750Y530D01*
X630Y529D02*
X653Y529D01*
X3727Y529D02*
X3750Y529D01*
X630Y528D02*
X653Y528D01*
X3727Y528D02*
X3750Y528D01*
X630Y527D02*
X653Y527D01*
X3727Y527D02*
X3750Y527D01*
X630Y526D02*
X653Y526D01*
X3727Y526D02*
X3750Y526D01*
X630Y525D02*
X653Y525D01*
X3727Y525D02*
X3750Y525D01*
X630Y524D02*
X653Y524D01*
X3727Y524D02*
X3750Y524D01*
X630Y523D02*
X653Y523D01*
X3727Y523D02*
X3750Y523D01*
X630Y522D02*
X653Y522D01*
X3727Y522D02*
X3750Y522D01*
X630Y521D02*
X653Y521D01*
X3727Y521D02*
X3750Y521D01*
X630Y520D02*
X653Y520D01*
X3727Y520D02*
X3750Y520D01*
X630Y519D02*
X653Y519D01*
X3727Y519D02*
X3750Y519D01*
X630Y518D02*
X653Y518D01*
X3727Y518D02*
X3750Y518D01*
X630Y517D02*
X653Y517D01*
X3727Y517D02*
X3750Y517D01*
X630Y516D02*
X653Y516D01*
X3727Y516D02*
X3750Y516D01*
X630Y515D02*
X653Y515D01*
X3727Y515D02*
X3750Y515D01*
X630Y514D02*
X653Y514D01*
X3727Y514D02*
X3750Y514D01*
X630Y513D02*
X653Y513D01*
X3727Y513D02*
X3750Y513D01*
X630Y512D02*
X653Y512D01*
X3727Y512D02*
X3750Y512D01*
X630Y511D02*
X653Y511D01*
X3727Y511D02*
X3750Y511D01*
X630Y510D02*
X653Y510D01*
X3727Y510D02*
X3750Y510D01*
X630Y509D02*
X653Y509D01*
X3727Y509D02*
X3750Y509D01*
X630Y508D02*
X653Y508D01*
X3727Y508D02*
X3750Y508D01*
X630Y507D02*
X653Y507D01*
X3727Y507D02*
X3750Y507D01*
X630Y506D02*
X653Y506D01*
X3727Y506D02*
X3750Y506D01*
X630Y505D02*
X653Y505D01*
X3727Y505D02*
X3750Y505D01*
X630Y504D02*
X653Y504D01*
X3727Y504D02*
X3750Y504D01*
X630Y503D02*
X653Y503D01*
X3727Y503D02*
X3750Y503D01*
X630Y502D02*
X653Y502D01*
X3727Y502D02*
X3750Y502D01*
X630Y501D02*
X653Y501D01*
X3727Y501D02*
X3750Y501D01*
X630Y500D02*
X653Y500D01*
X3727Y500D02*
X3750Y500D01*
X630Y499D02*
X653Y499D01*
X3727Y499D02*
X3750Y499D01*
X630Y498D02*
X653Y498D01*
X3727Y498D02*
X3750Y498D01*
X630Y497D02*
X653Y497D01*
X3727Y497D02*
X3750Y497D01*
X630Y496D02*
X653Y496D01*
X3727Y496D02*
X3750Y496D01*
X630Y495D02*
X653Y495D01*
X3727Y495D02*
X3750Y495D01*
X630Y494D02*
X653Y494D01*
X3727Y494D02*
X3750Y494D01*
X630Y493D02*
X653Y493D01*
X3727Y493D02*
X3750Y493D01*
X630Y492D02*
X653Y492D01*
X3727Y492D02*
X3750Y492D01*
X630Y491D02*
X653Y491D01*
X3727Y491D02*
X3750Y491D01*
X630Y490D02*
X653Y490D01*
X3727Y490D02*
X3750Y490D01*
X630Y489D02*
X653Y489D01*
X3727Y489D02*
X3750Y489D01*
X630Y488D02*
X653Y488D01*
X3727Y488D02*
X3750Y488D01*
X630Y487D02*
X653Y487D01*
X3727Y487D02*
X3750Y487D01*
X630Y486D02*
X653Y486D01*
X3727Y486D02*
X3750Y486D01*
X630Y485D02*
X653Y485D01*
X3727Y485D02*
X3750Y485D01*
X630Y484D02*
X653Y484D01*
X3727Y484D02*
X3750Y484D01*
X630Y483D02*
X653Y483D01*
X3727Y483D02*
X3750Y483D01*
X630Y482D02*
X653Y482D01*
X3727Y482D02*
X3750Y482D01*
X630Y481D02*
X653Y481D01*
X3727Y481D02*
X3750Y481D01*
X630Y480D02*
X653Y480D01*
X3727Y480D02*
X3750Y480D01*
X630Y479D02*
X653Y479D01*
X3727Y479D02*
X3750Y479D01*
X630Y478D02*
X653Y478D01*
X3727Y478D02*
X3750Y478D01*
X630Y477D02*
X653Y477D01*
X3727Y477D02*
X3750Y477D01*
X630Y476D02*
X653Y476D01*
X3727Y476D02*
X3750Y476D01*
X630Y475D02*
X653Y475D01*
X3727Y475D02*
X3750Y475D01*
X630Y474D02*
X653Y474D01*
X3727Y474D02*
X3750Y474D01*
X630Y473D02*
X653Y473D01*
X3727Y473D02*
X3750Y473D01*
X630Y472D02*
X653Y472D01*
X3727Y472D02*
X3750Y472D01*
X630Y471D02*
X653Y471D01*
X3727Y471D02*
X3750Y471D01*
X630Y470D02*
X653Y470D01*
X3727Y470D02*
X3750Y470D01*
X630Y469D02*
X653Y469D01*
X3727Y469D02*
X3750Y469D01*
X630Y468D02*
X653Y468D01*
X3727Y468D02*
X3750Y468D01*
X630Y467D02*
X653Y467D01*
X3727Y467D02*
X3750Y467D01*
X630Y466D02*
X653Y466D01*
X3727Y466D02*
X3750Y466D01*
X630Y465D02*
X653Y465D01*
X3727Y465D02*
X3750Y465D01*
X630Y464D02*
X653Y464D01*
X3727Y464D02*
X3750Y464D01*
X630Y463D02*
X653Y463D01*
X3727Y463D02*
X3750Y463D01*
X630Y462D02*
X653Y462D01*
X3727Y462D02*
X3750Y462D01*
X630Y461D02*
X653Y461D01*
X3727Y461D02*
X3750Y461D01*
X630Y460D02*
X653Y460D01*
X3727Y460D02*
X3750Y460D01*
X630Y459D02*
X653Y459D01*
X3727Y459D02*
X3750Y459D01*
X630Y458D02*
X653Y458D01*
X3727Y458D02*
X3750Y458D01*
X630Y457D02*
X653Y457D01*
X3727Y457D02*
X3750Y457D01*
X630Y456D02*
X653Y456D01*
X3727Y456D02*
X3750Y456D01*
X630Y455D02*
X653Y455D01*
X3727Y455D02*
X3750Y455D01*
X630Y454D02*
X653Y454D01*
X3727Y454D02*
X3750Y454D01*
X630Y453D02*
X653Y453D01*
X3727Y453D02*
X3750Y453D01*
X630Y452D02*
X653Y452D01*
X3727Y452D02*
X3750Y452D01*
X630Y451D02*
X653Y451D01*
X3727Y451D02*
X3750Y451D01*
X630Y450D02*
X653Y450D01*
X3727Y450D02*
X3750Y450D01*
X630Y449D02*
X653Y449D01*
X3727Y449D02*
X3750Y449D01*
X630Y448D02*
X653Y448D01*
X3727Y448D02*
X3750Y448D01*
X630Y447D02*
X653Y447D01*
X3727Y447D02*
X3750Y447D01*
X630Y446D02*
X653Y446D01*
X3727Y446D02*
X3750Y446D01*
X630Y445D02*
X653Y445D01*
X3727Y445D02*
X3750Y445D01*
X630Y444D02*
X653Y444D01*
X3727Y444D02*
X3750Y444D01*
X630Y443D02*
X653Y443D01*
X3727Y443D02*
X3750Y443D01*
X630Y442D02*
X653Y442D01*
X3727Y442D02*
X3750Y442D01*
X630Y441D02*
X653Y441D01*
X3727Y441D02*
X3750Y441D01*
X630Y440D02*
X653Y440D01*
X3727Y440D02*
X3750Y440D01*
X630Y439D02*
X653Y439D01*
X3727Y439D02*
X3750Y439D01*
X630Y438D02*
X653Y438D01*
X3727Y438D02*
X3750Y438D01*
X630Y437D02*
X653Y437D01*
X3727Y437D02*
X3750Y437D01*
X630Y436D02*
X653Y436D01*
X3727Y436D02*
X3750Y436D01*
X630Y435D02*
X653Y435D01*
X3727Y435D02*
X3750Y435D01*
X630Y434D02*
X653Y434D01*
X3727Y434D02*
X3750Y434D01*
X630Y433D02*
X653Y433D01*
X3727Y433D02*
X3750Y433D01*
X630Y432D02*
X653Y432D01*
X3727Y432D02*
X3750Y432D01*
X630Y431D02*
X653Y431D01*
X3727Y431D02*
X3750Y431D01*
X630Y430D02*
X653Y430D01*
X3727Y430D02*
X3750Y430D01*
X630Y429D02*
X653Y429D01*
X3727Y429D02*
X3750Y429D01*
X630Y428D02*
X653Y428D01*
X3727Y428D02*
X3750Y428D01*
X630Y427D02*
X653Y427D01*
X3727Y427D02*
X3750Y427D01*
X630Y426D02*
X653Y426D01*
X3727Y426D02*
X3750Y426D01*
X630Y425D02*
X653Y425D01*
X3727Y425D02*
X3750Y425D01*
X630Y424D02*
X653Y424D01*
X3727Y424D02*
X3750Y424D01*
X630Y423D02*
X653Y423D01*
X3727Y423D02*
X3750Y423D01*
X630Y422D02*
X653Y422D01*
X3727Y422D02*
X3750Y422D01*
X630Y421D02*
X653Y421D01*
X3727Y421D02*
X3750Y421D01*
X630Y420D02*
X653Y420D01*
X3727Y420D02*
X3750Y420D01*
X630Y419D02*
X653Y419D01*
X3727Y419D02*
X3750Y419D01*
X630Y418D02*
X653Y418D01*
X3727Y418D02*
X3750Y418D01*
X630Y417D02*
X653Y417D01*
X3727Y417D02*
X3750Y417D01*
X630Y416D02*
X653Y416D01*
X3727Y416D02*
X3750Y416D01*
X630Y415D02*
X653Y415D01*
X3727Y415D02*
X3750Y415D01*
X630Y414D02*
X653Y414D01*
X3727Y414D02*
X3750Y414D01*
X630Y413D02*
X653Y413D01*
X3727Y413D02*
X3750Y413D01*
X630Y412D02*
X653Y412D01*
X3727Y412D02*
X3750Y412D01*
X630Y411D02*
X653Y411D01*
X3727Y411D02*
X3750Y411D01*
X630Y410D02*
X653Y410D01*
X3727Y410D02*
X3750Y410D01*
X630Y409D02*
X653Y409D01*
X3727Y409D02*
X3750Y409D01*
X630Y408D02*
X653Y408D01*
X3727Y408D02*
X3750Y408D01*
X630Y407D02*
X653Y407D01*
X3727Y407D02*
X3750Y407D01*
X630Y406D02*
X653Y406D01*
X3727Y406D02*
X3750Y406D01*
X630Y405D02*
X653Y405D01*
X3727Y405D02*
X3750Y405D01*
X630Y404D02*
X653Y404D01*
X3727Y404D02*
X3750Y404D01*
X630Y403D02*
X653Y403D01*
X3727Y403D02*
X3750Y403D01*
X630Y402D02*
X653Y402D01*
X3728Y402D02*
X3751Y402D01*
X630Y401D02*
X653Y401D01*
X3728Y401D02*
X3751Y401D01*
X630Y400D02*
X653Y400D01*
X3728Y400D02*
X3751Y400D01*
X630Y399D02*
X653Y399D01*
X3728Y399D02*
X3751Y399D01*
X630Y398D02*
X653Y398D01*
X3728Y398D02*
X3751Y398D01*
X630Y397D02*
X653Y397D01*
X3728Y397D02*
X3751Y397D01*
X630Y396D02*
X653Y396D01*
X3728Y396D02*
X3751Y396D01*
X630Y395D02*
X653Y395D01*
X3728Y395D02*
X3751Y395D01*
X630Y394D02*
X653Y394D01*
X3728Y394D02*
X3751Y394D01*
X630Y393D02*
X653Y393D01*
X3728Y393D02*
X3751Y393D01*
X630Y392D02*
X653Y392D01*
X3728Y392D02*
X3751Y392D01*
X630Y391D02*
X653Y391D01*
X3728Y391D02*
X3751Y391D01*
X630Y390D02*
X653Y390D01*
X3728Y390D02*
X3751Y390D01*
X630Y389D02*
X653Y389D01*
X3728Y389D02*
X3751Y389D01*
X630Y388D02*
X653Y388D01*
X3728Y388D02*
X3751Y388D01*
X630Y387D02*
X653Y387D01*
X3728Y387D02*
X3751Y387D01*
X630Y386D02*
X653Y386D01*
X3728Y386D02*
X3751Y386D01*
X630Y385D02*
X653Y385D01*
X3728Y385D02*
X3751Y385D01*
X630Y384D02*
X653Y384D01*
X3728Y384D02*
X3751Y384D01*
X630Y383D02*
X653Y383D01*
X3728Y383D02*
X3751Y383D01*
X630Y382D02*
X653Y382D01*
X3728Y382D02*
X3751Y382D01*
X630Y381D02*
X653Y381D01*
X3728Y381D02*
X3751Y381D01*
X630Y380D02*
X653Y380D01*
X3728Y380D02*
X3751Y380D01*
X630Y379D02*
X653Y379D01*
X3728Y379D02*
X3751Y379D01*
X630Y378D02*
X653Y378D01*
X3728Y378D02*
X3751Y378D01*
X630Y377D02*
X653Y377D01*
X3728Y377D02*
X3751Y377D01*
X630Y376D02*
X653Y376D01*
X3728Y376D02*
X3751Y376D01*
X630Y375D02*
X653Y375D01*
X3728Y375D02*
X3751Y375D01*
X630Y374D02*
X653Y374D01*
X3728Y374D02*
X3751Y374D01*
X630Y373D02*
X653Y373D01*
X3728Y373D02*
X3751Y373D01*
X630Y372D02*
X653Y372D01*
X3728Y372D02*
X3751Y372D01*
X630Y371D02*
X653Y371D01*
X3728Y371D02*
X3751Y371D01*
X630Y370D02*
X653Y370D01*
X3728Y370D02*
X3751Y370D01*
X630Y369D02*
X653Y369D01*
X3728Y369D02*
X3751Y369D01*
X630Y368D02*
X653Y368D01*
X3728Y368D02*
X3751Y368D01*
X630Y367D02*
X653Y367D01*
X3728Y367D02*
X3751Y367D01*
X630Y366D02*
X653Y366D01*
X3728Y366D02*
X3751Y366D01*
X630Y365D02*
X653Y365D01*
X3728Y365D02*
X3751Y365D01*
X630Y364D02*
X653Y364D01*
X3728Y364D02*
X3751Y364D01*
X630Y363D02*
X653Y363D01*
X3728Y363D02*
X3751Y363D01*
X630Y362D02*
X653Y362D01*
X3728Y362D02*
X3751Y362D01*
X630Y361D02*
X653Y361D01*
X3728Y361D02*
X3751Y361D01*
X630Y360D02*
X653Y360D01*
X3728Y360D02*
X3751Y360D01*
X630Y359D02*
X653Y359D01*
X3728Y359D02*
X3751Y359D01*
X630Y358D02*
X653Y358D01*
X3728Y358D02*
X3751Y358D01*
X630Y357D02*
X653Y357D01*
X3728Y357D02*
X3751Y357D01*
X630Y356D02*
X653Y356D01*
X3728Y356D02*
X3751Y356D01*
X630Y355D02*
X653Y355D01*
X3728Y355D02*
X3751Y355D01*
X630Y354D02*
X653Y354D01*
X3728Y354D02*
X3751Y354D01*
X630Y353D02*
X653Y353D01*
X3728Y353D02*
X3751Y353D01*
X630Y352D02*
X653Y352D01*
X3728Y352D02*
X3751Y352D01*
X630Y351D02*
X653Y351D01*
X3728Y351D02*
X3751Y351D01*
X630Y350D02*
X653Y350D01*
X3728Y350D02*
X3751Y350D01*
X630Y349D02*
X653Y349D01*
X3728Y349D02*
X3751Y349D01*
X630Y348D02*
X653Y348D01*
X3728Y348D02*
X3751Y348D01*
X630Y347D02*
X653Y347D01*
X3728Y347D02*
X3751Y347D01*
X630Y346D02*
X653Y346D01*
X3728Y346D02*
X3751Y346D01*
X630Y345D02*
X653Y345D01*
X3728Y345D02*
X3751Y345D01*
X630Y344D02*
X653Y344D01*
X3728Y344D02*
X3751Y344D01*
X630Y343D02*
X653Y343D01*
X3728Y343D02*
X3751Y343D01*
X630Y342D02*
X653Y342D01*
X3728Y342D02*
X3751Y342D01*
X630Y341D02*
X653Y341D01*
X3728Y341D02*
X3751Y341D01*
X630Y340D02*
X653Y340D01*
X3728Y340D02*
X3751Y340D01*
X630Y339D02*
X653Y339D01*
X3728Y339D02*
X3751Y339D01*
X630Y338D02*
X653Y338D01*
X3728Y338D02*
X3751Y338D01*
X630Y337D02*
X653Y337D01*
X3728Y337D02*
X3751Y337D01*
X630Y336D02*
X653Y336D01*
X3728Y336D02*
X3751Y336D01*
X630Y335D02*
X653Y335D01*
X3728Y335D02*
X3751Y335D01*
X630Y334D02*
X653Y334D01*
X3728Y334D02*
X3751Y334D01*
X630Y333D02*
X653Y333D01*
X3728Y333D02*
X3751Y333D01*
X630Y332D02*
X653Y332D01*
X3728Y332D02*
X3751Y332D01*
X630Y331D02*
X653Y331D01*
X3728Y331D02*
X3751Y331D01*
X630Y330D02*
X653Y330D01*
X3728Y330D02*
X3751Y330D01*
X630Y329D02*
X653Y329D01*
X3728Y329D02*
X3751Y329D01*
X630Y328D02*
X653Y328D01*
X3728Y328D02*
X3751Y328D01*
X630Y327D02*
X653Y327D01*
X3728Y327D02*
X3751Y327D01*
X630Y326D02*
X653Y326D01*
X3728Y326D02*
X3751Y326D01*
X630Y325D02*
X653Y325D01*
X3728Y325D02*
X3751Y325D01*
X630Y324D02*
X653Y324D01*
X3728Y324D02*
X3751Y324D01*
X630Y323D02*
X653Y323D01*
X3728Y323D02*
X3751Y323D01*
X630Y322D02*
X653Y322D01*
X3728Y322D02*
X3751Y322D01*
X630Y321D02*
X653Y321D01*
X3728Y321D02*
X3751Y321D01*
X630Y320D02*
X653Y320D01*
X3728Y320D02*
X3751Y320D01*
X630Y319D02*
X653Y319D01*
X3728Y319D02*
X3751Y319D01*
X630Y318D02*
X653Y318D01*
X3728Y318D02*
X3751Y318D01*
X630Y317D02*
X653Y317D01*
X3728Y317D02*
X3751Y317D01*
X630Y316D02*
X653Y316D01*
X3728Y316D02*
X3751Y316D01*
X630Y315D02*
X653Y315D01*
X3728Y315D02*
X3751Y315D01*
X630Y314D02*
X653Y314D01*
X3728Y314D02*
X3751Y314D01*
X630Y313D02*
X653Y313D01*
X3728Y313D02*
X3751Y313D01*
X630Y312D02*
X653Y312D01*
X3728Y312D02*
X3751Y312D01*
X630Y311D02*
X653Y311D01*
X3728Y311D02*
X3751Y311D01*
X630Y310D02*
X653Y310D01*
X3728Y310D02*
X3751Y310D01*
X630Y309D02*
X653Y309D01*
X3728Y309D02*
X3751Y309D01*
X630Y308D02*
X653Y308D01*
X3728Y308D02*
X3751Y308D01*
X630Y307D02*
X653Y307D01*
X3728Y307D02*
X3751Y307D01*
X630Y306D02*
X653Y306D01*
X3728Y306D02*
X3751Y306D01*
X630Y305D02*
X653Y305D01*
X3728Y305D02*
X3751Y305D01*
X630Y304D02*
X653Y304D01*
X3728Y304D02*
X3751Y304D01*
X630Y303D02*
X653Y303D01*
X3728Y303D02*
X3751Y303D01*
X630Y302D02*
X653Y302D01*
X3728Y302D02*
X3751Y302D01*
X630Y301D02*
X653Y301D01*
X3728Y301D02*
X3751Y301D01*
X630Y300D02*
X653Y300D01*
X3728Y300D02*
X3751Y300D01*
X630Y299D02*
X653Y299D01*
X3728Y299D02*
X3751Y299D01*
X630Y298D02*
X653Y298D01*
X3728Y298D02*
X3751Y298D01*
X630Y297D02*
X653Y297D01*
X3728Y297D02*
X3751Y297D01*
X630Y296D02*
X653Y296D01*
X3728Y296D02*
X3751Y296D01*
X630Y295D02*
X653Y295D01*
X3728Y295D02*
X3751Y295D01*
X630Y294D02*
X653Y294D01*
X3728Y294D02*
X3751Y294D01*
X630Y293D02*
X653Y293D01*
X3728Y293D02*
X3751Y293D01*
X630Y292D02*
X653Y292D01*
X3728Y292D02*
X3751Y292D01*
X630Y291D02*
X653Y291D01*
X3728Y291D02*
X3751Y291D01*
X630Y290D02*
X653Y290D01*
X3728Y290D02*
X3751Y290D01*
X630Y289D02*
X653Y289D01*
X3728Y289D02*
X3751Y289D01*
X630Y288D02*
X653Y288D01*
X3728Y288D02*
X3751Y288D01*
X630Y287D02*
X653Y287D01*
X3728Y287D02*
X3751Y287D01*
X630Y286D02*
X653Y286D01*
X3728Y286D02*
X3751Y286D01*
X630Y285D02*
X653Y285D01*
X3728Y285D02*
X3751Y285D01*
X630Y284D02*
X653Y284D01*
X3728Y284D02*
X3751Y284D01*
X630Y283D02*
X653Y283D01*
X3728Y283D02*
X3751Y283D01*
X630Y282D02*
X653Y282D01*
X3728Y282D02*
X3751Y282D01*
X630Y281D02*
X653Y281D01*
X3728Y281D02*
X3751Y281D01*
X630Y280D02*
X653Y280D01*
X3728Y280D02*
X3751Y280D01*
X630Y279D02*
X653Y279D01*
X3728Y279D02*
X3751Y279D01*
X630Y278D02*
X653Y278D01*
X3728Y278D02*
X3751Y278D01*
X630Y277D02*
X653Y277D01*
X3728Y277D02*
X3751Y277D01*
X630Y276D02*
X653Y276D01*
X3728Y276D02*
X3751Y276D01*
X630Y275D02*
X653Y275D01*
X3728Y275D02*
X3751Y275D01*
X630Y274D02*
X653Y274D01*
X3728Y274D02*
X3751Y274D01*
X630Y273D02*
X653Y273D01*
X3728Y273D02*
X3751Y273D01*
X630Y272D02*
X653Y272D01*
X3728Y272D02*
X3751Y272D01*
X630Y271D02*
X653Y271D01*
X3728Y271D02*
X3751Y271D01*
X630Y270D02*
X653Y270D01*
X3728Y270D02*
X3751Y270D01*
X630Y269D02*
X653Y269D01*
X3728Y269D02*
X3751Y269D01*
X630Y268D02*
X653Y268D01*
X3728Y268D02*
X3751Y268D01*
X630Y267D02*
X653Y267D01*
X3728Y267D02*
X3751Y267D01*
X630Y266D02*
X653Y266D01*
X3728Y266D02*
X3751Y266D01*
X630Y265D02*
X653Y265D01*
X3728Y265D02*
X3751Y265D01*
X630Y264D02*
X653Y264D01*
X3728Y264D02*
X3751Y264D01*
X630Y263D02*
X653Y263D01*
X3728Y263D02*
X3751Y263D01*
X630Y262D02*
X653Y262D01*
X3728Y262D02*
X3751Y262D01*
X630Y261D02*
X653Y261D01*
X3728Y261D02*
X3751Y261D01*
X630Y260D02*
X653Y260D01*
X3728Y260D02*
X3751Y260D01*
X630Y259D02*
X653Y259D01*
X3728Y259D02*
X3751Y259D01*
X630Y258D02*
X653Y258D01*
X3728Y258D02*
X3751Y258D01*
X630Y257D02*
X653Y257D01*
X3728Y257D02*
X3751Y257D01*
X630Y256D02*
X653Y256D01*
X3728Y256D02*
X3751Y256D01*
X630Y255D02*
X653Y255D01*
X3728Y255D02*
X3751Y255D01*
X630Y254D02*
X653Y254D01*
X3728Y254D02*
X3751Y254D01*
X630Y253D02*
X653Y253D01*
X3728Y253D02*
X3751Y253D01*
X630Y252D02*
X653Y252D01*
X3728Y252D02*
X3751Y252D01*
X630Y251D02*
X653Y251D01*
X3728Y251D02*
X3751Y251D01*
X630Y250D02*
X653Y250D01*
X3728Y250D02*
X3751Y250D01*
X630Y249D02*
X653Y249D01*
X3728Y249D02*
X3751Y249D01*
X630Y248D02*
X653Y248D01*
X3728Y248D02*
X3751Y248D01*
X630Y247D02*
X653Y247D01*
X3728Y247D02*
X3751Y247D01*
X630Y246D02*
X653Y246D01*
X3728Y246D02*
X3751Y246D01*
X630Y245D02*
X653Y245D01*
X3728Y245D02*
X3751Y245D01*
X630Y244D02*
X653Y244D01*
X3728Y244D02*
X3751Y244D01*
X630Y243D02*
X653Y243D01*
X3728Y243D02*
X3751Y243D01*
X630Y242D02*
X653Y242D01*
X3728Y242D02*
X3751Y242D01*
X630Y241D02*
X653Y241D01*
X3728Y241D02*
X3751Y241D01*
X630Y240D02*
X653Y240D01*
X3728Y240D02*
X3751Y240D01*
X630Y239D02*
X653Y239D01*
X3728Y239D02*
X3751Y239D01*
X630Y238D02*
X653Y238D01*
X3728Y238D02*
X3751Y238D01*
X630Y237D02*
X653Y237D01*
X3728Y237D02*
X3751Y237D01*
X630Y236D02*
X653Y236D01*
X3728Y236D02*
X3751Y236D01*
X630Y235D02*
X653Y235D01*
X3728Y235D02*
X3751Y235D01*
X630Y234D02*
X653Y234D01*
X3728Y234D02*
X3751Y234D01*
X630Y233D02*
X653Y233D01*
X3728Y233D02*
X3751Y233D01*
X630Y232D02*
X653Y232D01*
X3728Y232D02*
X3751Y232D01*
X630Y231D02*
X653Y231D01*
X3728Y231D02*
X3751Y231D01*
X630Y230D02*
X653Y230D01*
X3728Y230D02*
X3751Y230D01*
X630Y229D02*
X653Y229D01*
X3728Y229D02*
X3751Y229D01*
X630Y228D02*
X653Y228D01*
X3728Y228D02*
X3751Y228D01*
X630Y227D02*
X653Y227D01*
X3728Y227D02*
X3751Y227D01*
X630Y226D02*
X653Y226D01*
X3728Y226D02*
X3751Y226D01*
X630Y225D02*
X653Y225D01*
X3728Y225D02*
X3751Y225D01*
X630Y224D02*
X653Y224D01*
X3728Y224D02*
X3751Y224D01*
X630Y223D02*
X653Y223D01*
X3728Y223D02*
X3751Y223D01*
X630Y222D02*
X653Y222D01*
X3728Y222D02*
X3751Y222D01*
X630Y221D02*
X653Y221D01*
X3728Y221D02*
X3752Y221D01*
X630Y220D02*
X653Y220D01*
X3729Y220D02*
X3752Y220D01*
X630Y219D02*
X653Y219D01*
X3729Y219D02*
X3752Y219D01*
X630Y218D02*
X653Y218D01*
X3729Y218D02*
X3752Y218D01*
X630Y217D02*
X653Y217D01*
X3729Y217D02*
X3752Y217D01*
X630Y216D02*
X653Y216D01*
X3729Y216D02*
X3752Y216D01*
X630Y215D02*
X653Y215D01*
X3729Y215D02*
X3752Y215D01*
X630Y214D02*
X653Y214D01*
X3729Y214D02*
X3752Y214D01*
X630Y213D02*
X653Y213D01*
X3729Y213D02*
X3752Y213D01*
X630Y212D02*
X653Y212D01*
X3729Y212D02*
X3752Y212D01*
X630Y211D02*
X653Y211D01*
X3729Y211D02*
X3752Y211D01*
X630Y210D02*
X653Y210D01*
X3729Y210D02*
X3752Y210D01*
X630Y209D02*
X653Y209D01*
X3729Y209D02*
X3752Y209D01*
X630Y208D02*
X653Y208D01*
X3729Y208D02*
X3752Y208D01*
X630Y207D02*
X653Y207D01*
X3729Y207D02*
X3752Y207D01*
X630Y206D02*
X653Y206D01*
X3729Y206D02*
X3752Y206D01*
X630Y205D02*
X653Y205D01*
X3729Y205D02*
X3752Y205D01*
X630Y204D02*
X653Y204D01*
X3729Y204D02*
X3752Y204D01*
X630Y203D02*
X653Y203D01*
X3729Y203D02*
X3752Y203D01*
X630Y202D02*
X653Y202D01*
X3729Y202D02*
X3752Y202D01*
X630Y201D02*
X653Y201D01*
X3729Y201D02*
X3752Y201D01*
X630Y200D02*
X653Y200D01*
X3729Y200D02*
X3752Y200D01*
X630Y199D02*
X653Y199D01*
X3729Y199D02*
X3752Y199D01*
X630Y198D02*
X653Y198D01*
X3729Y198D02*
X3752Y198D01*
X630Y197D02*
X653Y197D01*
X3729Y197D02*
X3752Y197D01*
X630Y196D02*
X653Y196D01*
X3729Y196D02*
X3752Y196D01*
X630Y195D02*
X653Y195D01*
X3729Y195D02*
X3752Y195D01*
X630Y194D02*
X653Y194D01*
X3729Y194D02*
X3752Y194D01*
X630Y193D02*
X653Y193D01*
X3729Y193D02*
X3752Y193D01*
X630Y192D02*
X653Y192D01*
X3729Y192D02*
X3752Y192D01*
X630Y191D02*
X653Y191D01*
X3729Y191D02*
X3752Y191D01*
X630Y190D02*
X653Y190D01*
X3729Y190D02*
X3752Y190D01*
X630Y189D02*
X653Y189D01*
X3729Y189D02*
X3752Y189D01*
X630Y188D02*
X653Y188D01*
X3729Y188D02*
X3752Y188D01*
X630Y187D02*
X653Y187D01*
X3729Y187D02*
X3752Y187D01*
X630Y186D02*
X653Y186D01*
X3729Y186D02*
X3752Y186D01*
X630Y185D02*
X653Y185D01*
X3729Y185D02*
X3752Y185D01*
X630Y184D02*
X653Y184D01*
X3729Y184D02*
X3752Y184D01*
X630Y183D02*
X653Y183D01*
X3729Y183D02*
X3752Y183D01*
X630Y182D02*
X653Y182D01*
X3729Y182D02*
X3752Y182D01*
X630Y181D02*
X653Y181D01*
X3729Y181D02*
X3752Y181D01*
X630Y180D02*
X653Y180D01*
X3729Y180D02*
X3752Y180D01*
X630Y179D02*
X653Y179D01*
X3729Y179D02*
X3752Y179D01*
X630Y178D02*
X653Y178D01*
X3729Y178D02*
X3752Y178D01*
X630Y177D02*
X653Y177D01*
X3729Y177D02*
X3752Y177D01*
X630Y176D02*
X653Y176D01*
X3729Y176D02*
X3752Y176D01*
X630Y175D02*
X653Y175D01*
X3729Y175D02*
X3752Y175D01*
X630Y174D02*
X653Y174D01*
X3729Y174D02*
X3752Y174D01*
X630Y173D02*
X653Y173D01*
X3729Y173D02*
X3752Y173D01*
X630Y172D02*
X653Y172D01*
X3729Y172D02*
X3752Y172D01*
X630Y171D02*
X653Y171D01*
X3729Y171D02*
X3752Y171D01*
X630Y170D02*
X653Y170D01*
X3729Y170D02*
X3752Y170D01*
X630Y169D02*
X653Y169D01*
X3729Y169D02*
X3752Y169D01*
X630Y168D02*
X653Y168D01*
X3729Y168D02*
X3752Y168D01*
X630Y167D02*
X653Y167D01*
X3729Y167D02*
X3752Y167D01*
X630Y166D02*
X653Y166D01*
X3729Y166D02*
X3752Y166D01*
X630Y165D02*
X653Y165D01*
X3729Y165D02*
X3752Y165D01*
X630Y164D02*
X653Y164D01*
X3729Y164D02*
X3752Y164D01*
X630Y163D02*
X653Y163D01*
X3729Y163D02*
X3752Y163D01*
X630Y162D02*
X653Y162D01*
X3729Y162D02*
X3752Y162D01*
X630Y161D02*
X653Y161D01*
X3729Y161D02*
X3752Y161D01*
X630Y160D02*
X653Y160D01*
X3729Y160D02*
X3752Y160D01*
X630Y159D02*
X653Y159D01*
X3729Y159D02*
X3752Y159D01*
X630Y158D02*
X653Y158D01*
X3729Y158D02*
X3752Y158D01*
X630Y157D02*
X653Y157D01*
X3729Y157D02*
X3752Y157D01*
X630Y156D02*
X653Y156D01*
X3729Y156D02*
X3752Y156D01*
X630Y155D02*
X653Y155D01*
X3729Y155D02*
X3752Y155D01*
X630Y154D02*
X653Y154D01*
X3729Y154D02*
X3752Y154D01*
X630Y153D02*
X653Y153D01*
X3729Y153D02*
X3752Y153D01*
X630Y152D02*
X653Y152D01*
X3729Y152D02*
X3752Y152D01*
X630Y151D02*
X653Y151D01*
X3729Y151D02*
X3752Y151D01*
X630Y150D02*
X653Y150D01*
X3729Y150D02*
X3752Y150D01*
X630Y149D02*
X653Y149D01*
X3729Y149D02*
X3752Y149D01*
X630Y148D02*
X653Y148D01*
X3729Y148D02*
X3752Y148D01*
X630Y147D02*
X653Y147D01*
X3729Y147D02*
X3752Y147D01*
X630Y146D02*
X653Y146D01*
X3729Y146D02*
X3752Y146D01*
X630Y145D02*
X653Y145D01*
X3729Y145D02*
X3752Y145D01*
X630Y144D02*
X653Y144D01*
X3729Y144D02*
X3752Y144D01*
X630Y143D02*
X653Y143D01*
X3729Y143D02*
X3752Y143D01*
X630Y142D02*
X653Y142D01*
X3729Y142D02*
X3752Y142D01*
X630Y141D02*
X653Y141D01*
X3729Y141D02*
X3752Y141D01*
X630Y140D02*
X653Y140D01*
X3729Y140D02*
X3752Y140D01*
X630Y139D02*
X653Y139D01*
X3729Y139D02*
X3752Y139D01*
X630Y138D02*
X653Y138D01*
X3729Y138D02*
X3752Y138D01*
X630Y137D02*
X653Y137D01*
X3729Y137D02*
X3752Y137D01*
X630Y136D02*
X653Y136D01*
X3729Y136D02*
X3752Y136D01*
X630Y135D02*
X653Y135D01*
X3729Y135D02*
X3752Y135D01*
X630Y134D02*
X653Y134D01*
X3729Y134D02*
X3752Y134D01*
X630Y133D02*
X653Y133D01*
X3729Y133D02*
X3752Y133D01*
X630Y132D02*
X653Y132D01*
X3729Y132D02*
X3752Y132D01*
X630Y131D02*
X653Y131D01*
X3729Y131D02*
X3752Y131D01*
X630Y130D02*
X653Y130D01*
X3729Y130D02*
X3752Y130D01*
X630Y129D02*
X653Y129D01*
X3729Y129D02*
X3752Y129D01*
X630Y128D02*
X653Y128D01*
X3729Y128D02*
X3752Y128D01*
X630Y127D02*
X653Y127D01*
X3729Y127D02*
X3752Y127D01*
X630Y126D02*
X653Y126D01*
X3729Y126D02*
X3752Y126D01*
X630Y125D02*
X653Y125D01*
X3729Y125D02*
X3752Y125D01*
X630Y124D02*
X653Y124D01*
X3729Y124D02*
X3752Y124D01*
X630Y123D02*
X653Y123D01*
X3729Y123D02*
X3752Y123D01*
X630Y122D02*
X653Y122D01*
X3729Y122D02*
X3752Y122D01*
X630Y121D02*
X653Y121D01*
X3729Y121D02*
X3752Y121D01*
X630Y120D02*
X653Y120D01*
X3729Y120D02*
X3752Y120D01*
X630Y119D02*
X653Y119D01*
X3729Y119D02*
X3752Y119D01*
X630Y118D02*
X653Y118D01*
X3729Y118D02*
X3752Y118D01*
X630Y117D02*
X653Y117D01*
X3729Y117D02*
X3752Y117D01*
X630Y116D02*
X653Y116D01*
X3729Y116D02*
X3752Y116D01*
X630Y115D02*
X653Y115D01*
X3729Y115D02*
X3752Y115D01*
X630Y114D02*
X653Y114D01*
X3729Y114D02*
X3752Y114D01*
X630Y113D02*
X653Y113D01*
X3729Y113D02*
X3752Y113D01*
X630Y112D02*
X653Y112D01*
X3729Y112D02*
X3752Y112D01*
X630Y111D02*
X653Y111D01*
X3729Y111D02*
X3752Y111D01*
X630Y110D02*
X653Y110D01*
X3729Y110D02*
X3752Y110D01*
X630Y109D02*
X653Y109D01*
X3729Y109D02*
X3752Y109D01*
X630Y108D02*
X653Y108D01*
X3729Y108D02*
X3752Y108D01*
X630Y107D02*
X653Y107D01*
X3729Y107D02*
X3752Y107D01*
X630Y106D02*
X653Y106D01*
X3729Y106D02*
X3752Y106D01*
X630Y105D02*
X653Y105D01*
X3729Y105D02*
X3752Y105D01*
X630Y104D02*
X653Y104D01*
X3729Y104D02*
X3752Y104D01*
X630Y103D02*
X653Y103D01*
X3729Y103D02*
X3752Y103D01*
X630Y102D02*
X653Y102D01*
X3729Y102D02*
X3752Y102D01*
X630Y101D02*
X653Y101D01*
X3729Y101D02*
X3752Y101D01*
X630Y100D02*
X653Y100D01*
X3729Y100D02*
X3752Y100D01*
X630Y99D02*
X653Y99D01*
X3729Y99D02*
X3752Y99D01*
X630Y98D02*
X653Y98D01*
X3729Y98D02*
X3752Y98D01*
X630Y97D02*
X653Y97D01*
X3729Y97D02*
X3752Y97D01*
X630Y96D02*
X653Y96D01*
X3729Y96D02*
X3752Y96D01*
X630Y95D02*
X653Y95D01*
X3729Y95D02*
X3752Y95D01*
X630Y94D02*
X653Y94D01*
X3729Y94D02*
X3752Y94D01*
X630Y93D02*
X653Y93D01*
X3729Y93D02*
X3752Y93D01*
X630Y92D02*
X653Y92D01*
X3729Y92D02*
X3752Y92D01*
X630Y91D02*
X653Y91D01*
X3729Y91D02*
X3752Y91D01*
X630Y90D02*
X653Y90D01*
X3729Y90D02*
X3752Y90D01*
X630Y89D02*
X653Y89D01*
X3729Y89D02*
X3752Y89D01*
X630Y88D02*
X653Y88D01*
X3729Y88D02*
X3752Y88D01*
X630Y87D02*
X653Y87D01*
X3729Y87D02*
X3752Y87D01*
X630Y86D02*
X653Y86D01*
X3729Y86D02*
X3752Y86D01*
X630Y85D02*
X3752Y85D01*
X630Y84D02*
X3752Y84D01*
X630Y83D02*
X3752Y83D01*
X630Y82D02*
X3752Y82D01*
X630Y81D02*
X3752Y81D01*
X630Y80D02*
X3752Y80D01*
X630Y79D02*
X3752Y79D01*
X630Y78D02*
X3752Y78D01*
X630Y77D02*
X3752Y77D01*
X630Y76D02*
X3752Y76D01*
X630Y75D02*
X3752Y75D01*
X630Y74D02*
X3752Y74D01*
X630Y73D02*
X3752Y73D01*
X630Y72D02*
X3752Y72D01*
X630Y71D02*
X3752Y71D01*
X630Y70D02*
X3752Y70D01*
X631Y69D02*
X3752Y69D01*
X631Y68D02*
X3751Y68D01*
X632Y67D02*
X3751Y67D01*
X632Y66D02*
X3750Y66D01*
X633Y65D02*
X3749Y65D01*
X634Y64D02*
X3748Y64D01*
X635Y63D02*
X3747Y63D01*
X637Y62D02*
X3745Y62D01*
D02*
G04 End of Copper0*
M02*